<svg
	xmlns="http://www.w3.org/2000/svg" xmlns:xlink="http://www.w3.org/1999/xlink"
	width="1200" height="500" preserveAspectRatio="none"
	viewBox="-600 -250 1200 500"
	>

<defs><style type="text/css"><![CDATA[
	.data {stroke: red; stroke-width: 1; stroke-linecap: round; stroke-linejoin: round; vector-effect: non-scaling-stroke; fill:none;}
	.frame {stroke: gray; stroke-width: 2; stroke-opacity: 1; vector-effect: non-scaling-stroke;}
	.grid {stroke: black; stroke-width: 1; stroke-opacity: 0.17; vector-effect: non-scaling-stroke; fill:none;}
	.markerArg {text-anchor: middle; dominant-baseline: text-before-edge; font-family: Verdana; fill: black; fill-opacity: 0.60; stroke-width: 0; stroke-opacity: 0.60; vector-effect: non-scaling-stroke;}
	.markerVal {text-anchor: end; dominant-baseline: middle; font-family: Verdana; fill: black; fill-opacity: 0.60; stroke-width: 0; stroke-opacity: 0.60; vector-effect: non-scaling-stroke;}
	.labelArg {text-anchor: middle; dominant-baseline: text-before-edge; font-family: Verdana; fill: black; fill-opacity: 0.60; stroke-width: 0; stroke-opacity: 0.60; vector-effect: non-scaling-stroke;}
	.labelVal {text-anchor: middle; font-family: Verdana; fill: black; fill-opacity: 0.60; stroke-width: 0; stroke-opacity: 0.60; vector-effect: non-scaling-stroke;}
	.title {text-anchor: middle; dominant-baseline: hanging; font-family: Verdana; fill: black; fill-opacity: 0.90; stroke-width: 0; stroke-opacity: 0.90; vector-effect: non-scaling-stroke;}
	.about {text-anchor: middle; font-weight: bold; font-style: italic; font-family: Verdana; fill: black; fill-opacity: 0.60; stroke-width: 0; stroke-opacity: 0.60; vector-effect: non-scaling-stroke;}
	]]></style></defs>


<metadata>
<rdf:RDF xmlns:rdf="http://www.w3.org/1999/02/22-rdf-syntax-ns#" xmlns:dc="http://purl.org/dc/elements/1.1/">
<rdf:Description>
<dc:creator>Urban Biker</dc:creator>
<dc:description>Расстояние [км] — Скорость [км/ч.]</dc:description>
<dc:title>Urban Biker – Road – 5 Ноя 2015 г. 20:25</dc:title>
<dc:date>2015-11-05T18:26:00.452Z</dc:date>
<dc:subject>Road</dc:subject>
<dc:type>distance-speed</dc:type>
</rdf:Description>
</rdf:RDF>
</metadata>

<g>

<polyline class="data" points="
0.000,1.723
2.819,1.408
39.050,2.361
43.515,2.642
45.348,2.883
49.973,2.996
54.297,3.145
59.156,3.294
66.762,3.455
73.443,3.580
81.739,3.722
114.041,2.745
128.160,4.316
131.358,4.569
137.547,4.782
144.302,4.986
149.286,5.168
154.665,5.333
160.407,5.540
166.191,5.678
172.406,5.749
178.722,5.810
184.640,5.925
191.706,6.011
199.652,6.110
205.231,6.234
211.584,6.370
219.163,6.491
227.139,6.636
235.099,6.758
243.045,6.838
249.994,6.898
257.303,6.965
264.795,6.999
272.459,6.974
280.180,6.954
287.521,6.918
294.501,6.861
301.541,6.782
308.453,6.577
315.504,6.437
322.732,6.249
329.997,6.032
336.409,5.854
341.536,5.702
346.813,5.686
352.962,5.755
358.480,5.889
364.020,6.074
370.985,6.317
378.286,6.559
385.485,6.745
392.984,6.838
400.676,6.892
408.043,6.934
415.435,6.892
422.551,6.841
429.232,6.764
436.097,6.709
442.747,6.670
449.175,6.629
455.778,6.592
461.871,6.621
468.097,6.656
475.475,6.706
481.948,6.776
489.116,6.771
497.193,6.739
505.401,6.667
512.649,6.487
519.293,6.228
525.177,5.938
530.982,5.704
536.352,5.553
541.503,5.414
547.361,5.501
553.903,5.663
561.930,5.901
570.301,6.185
578.758,6.398
587.554,6.636
595.545,6.754
603.172,6.847
610.635,6.906
618.058,6.934
625.432,6.948
632.942,6.913
640.494,6.877
647.465,6.706
654.281,6.551
661.593,6.263
667.667,6.012
672.669,5.724
678.105,5.449
684.022,5.304
689.975,5.157
696.135,5.147
702.505,5.131
708.370,5.179
714.164,5.240
720.312,5.275
726.742,5.333
732.344,5.408
737.697,5.481
742.526,5.562
746.755,5.635
751.737,5.684
757.127,5.720
762.948,5.666
768.494,5.524
773.901,5.270
778.740,5.057
783.477,4.835
787.734,4.659
791.364,4.615
795.254,4.734
801.747,5.031
809.000,5.394
816.216,5.927
823.440,6.503
834.862,7.052
844.475,7.526
853.441,7.950
861.902,8.339
861.935,8.543
897.961,8.699
906.901,8.619
915.679,8.477
924.505,8.219
931.875,7.983
938.943,7.581
945.562,7.238
952.532,6.771
958.975,6.249
964.672,5.847
970.627,5.366
976.551,5.075
980.027,4.774
983.707,4.619
988.115,4.646
992.476,4.685
997.487,4.834
1002.319,5.004
1007.937,5.185
1014.105,5.417
1020.191,5.546
1026.238,5.740
1032.706,5.856
1039.372,6.005
1045.957,6.117
1052.419,6.249
1059.398,6.358
1065.833,6.454
1072.267,6.573
1078.821,6.663
1085.542,6.750
1092.771,6.790
1099.730,6.810
1107.199,6.762
1114.845,6.656
1122.173,6.530
1128.527,6.283
1134.800,6.060
1142.205,5.782
1146.687,5.560
1150.886,5.382
1156.551,5.338
1161.589,5.394
1166.826,5.562
1173.093,5.832
1180.310,6.122
1187.841,6.467
1194.785,6.682
1201.400,6.965
1209.094,7.139
1218.076,7.249
1226.740,7.335
1235.128,7.406
1242.431,7.470
1250.105,7.489
1258.539,7.495
1265.276,7.459
1273.516,7.391
1280.691,7.300
1287.721,7.169
1294.911,7.094
1301.850,7.032
1308.765,7.008
1315.423,7.026
1321.231,7.101
1327.987,7.219
1335.250,7.364
1341.210,7.497
1348.030,7.646
1355.891,7.735
1363.895,7.774
1372.375,7.757
1380.758,7.681
1389.218,7.564
1396.839,7.436
1404.396,7.232
1412.335,7.048
1419.487,6.839
1426.175,6.596
1432.868,6.401
1439.455,6.085
1445.802,5.888
1452.363,5.563
1458.481,5.241
1463.813,5.000
1468.522,4.685
1473.147,4.468
1477.594,4.215
1482.648,4.023
1487.240,3.818
1491.964,3.617
1496.514,3.444
1499.974,3.259
1503.339,3.063
1506.280,2.846
1508.032,2.684
1524.405,4.070
1529.316,4.307
1534.048,4.552
1538.581,4.814
1543.764,5.062
1550.189,5.256
1556.047,5.481
1561.870,5.580
1568.431,5.554
1574.459,5.516
1580.253,5.364
1591.864,5.201
1598.231,5.063
1602.702,4.946
1606.744,4.930
1610.681,4.943
1615.459,5.073
1620.423,5.251
1625.843,5.420
1632.255,5.632
1637.946,5.788
1644.378,5.898
1650.227,5.935
1656.489,5.933
1661.907,5.867
1667.762,5.785
1673.634,5.597
1679.699,5.381
1685.591,5.129
1691.045,4.818
1695.808,4.547
1699.737,4.221
1704.532,3.927
1709.523,3.667
1713.830,3.435
1717.628,3.224
1720.887,3.063
1723.947,2.954
1727.296,2.853
1730.893,2.786
1734.344,2.773
1737.738,2.787
1741.756,2.803
1746.367,2.828
1752.226,2.851
1755.763,2.867
1759.164,2.860
1762.704,2.848
1765.658,2.815
1768.815,2.789
1771.971,2.770
1774.694,2.738
1777.583,2.720
1780.400,2.708
1783.626,2.678
1787.100,2.643
1790.535,2.596
1793.377,2.554
1796.474,2.498
1798.674,2.430
1812.426,2.323
1815.646,2.316
1818.768,2.312
1821.819,2.306
1824.709,2.292
1827.647,2.278
1830.741,2.263
1833.767,2.255
1855.178,2.448
1857.875,2.436
1860.339,2.434
1862.591,2.452
1865.282,2.468
1865.292,2.505
1870.428,2.546
1873.031,2.593
1882.785,2.874
1885.598,2.945
1888.814,3.007
1891.998,3.058
1895.601,3.088
1898.981,3.103
1902.126,3.096
1905.556,3.062
1909.606,3.017
1913.327,2.974
1917.261,2.925
1920.090,2.897
1922.237,2.884
1923.790,2.883
1925.298,2.895
1927.582,2.907
1930.314,2.925
1933.466,2.937
1936.245,2.939
1939.229,2.957
1942.473,2.956
1945.712,2.944
1949.537,2.920
1953.137,2.892
1956.820,2.863
1959.784,2.818
1962.299,2.765
1964.999,2.709
1967.971,2.657
1970.869,2.620
1973.374,2.582
1976.026,2.550
1979.372,2.505
1982.530,2.457
1985.858,2.385
1989.045,2.299
1991.949,2.250
1994.051,2.177
1996.302,2.131
1998.371,2.123
2000.845,2.130
2003.739,2.155
2005.688,2.190
2007.765,2.223
2010.070,2.237
2012.511,2.214
2014.713,2.191
2017.256,2.148
2019.679,2.111
2021.800,2.086
2023.457,2.065
2026.070,2.071
2028.456,2.070
2030.605,2.064
2033.106,2.073
2035.622,2.067
2037.818,2.026
2040.157,2.012
2042.524,1.989
2045.730,2.018
2048.912,2.045
2051.187,2.071
2053.626,2.118
2056.961,2.167
2060.295,2.212
2063.470,2.213
2065.938,2.218
2068.306,2.231
2070.112,2.242
2072.492,2.243
2075.944,2.287
2078.624,2.326
2081.371,2.387
2083.723,2.415
2086.281,2.433
2088.597,2.441
2091.438,2.423
2094.591,2.348
2097.616,2.264
2100.510,2.159
2102.898,2.050
2104.979,1.982
2106.700,1.933
2108.481,1.954
2109.666,2.014
2111.517,2.102
2114.266,2.244
2117.169,2.358
2120.038,2.458
2123.343,2.548
2126.337,2.601
2129.116,2.645
2132.567,2.635
2135.644,2.615
2138.864,2.644
2152.334,2.652
2160.237,2.605
2163.018,2.550
2163.117,2.499
2172.131,2.439
2182.963,2.259
2185.980,2.237
2188.192,2.217
2190.003,2.190
2192.186,2.166
2194.828,2.143
2197.187,2.099
2199.599,2.057
2201.484,1.998
2203.168,1.945
2204.755,1.887
2205.971,1.798
2210.536,1.816
2213.151,2.006
2217.502,2.785
2220.528,3.137
2224.590,3.454
2233.333,4.097
2237.218,4.238
2241.329,4.368
2244.857,4.499
2249.298,4.672
2254.473,4.844
2259.331,5.010
2264.637,5.197
2270.572,5.381
2276.789,5.584
2288.188,5.761
2293.496,5.843
2299.111,5.899
2304.644,5.950
2310.334,6.002
2316.257,6.068
2322.405,6.145
2328.888,6.212
2335.285,6.271
2342.016,6.319
2348.473,6.358
2355.343,6.367
2361.956,6.365
2368.555,6.351
2375.347,6.357
2381.442,6.365
2387.804,6.372
2393.661,6.377
2399.995,6.385
2406.459,6.395
2412.421,6.399
2417.971,6.408
2423.322,6.431
2428.702,6.487
2434.532,6.568
2440.368,6.667
2446.692,6.867
2453.244,7.086
2460.632,7.309
2468.506,7.573
2476.934,7.813
2485.350,8.040
2492.972,8.165
2500.097,8.265
2508.268,8.321
2516.186,8.295
2523.998,8.244
2532.068,8.160
2540.361,8.055
2548.333,7.944
2556.653,7.830
2564.259,7.673
2572.002,7.463
2579.443,7.307
2584.544,7.078
2590.351,6.831
2595.990,6.606
2601.925,6.413
2607.474,6.209
2613.124,5.981
2618.813,5.847
2624.212,5.705
2629.401,5.574
2634.714,5.460
2640.354,5.406
2646.066,5.334
2651.557,5.252
2656.882,5.188
2662.035,5.132
2662.111,5.070
2678.905,4.922
2684.398,4.856
2689.231,4.801
2693.949,4.669
2698.820,4.566
2703.716,4.449
2708.375,4.319
2713.063,4.188
2717.601,4.070
2722.327,4.007
2731.636,3.905
2741.156,3.883
2746.004,3.879
2750.636,3.907
2754.966,3.952
2758.920,4.002
2762.743,4.052
2770.721,4.075
2775.446,4.063
2787.460,3.926
2791.813,3.914
2797.210,3.914
2802.389,4.020
2806.415,4.115
2810.394,4.284
2813.774,4.467
2818.084,4.637
2822.973,4.786
2829.315,4.880
2834.529,4.988
2839.930,5.043
2844.404,5.099
2848.787,5.165
2865.171,5.690
2872.159,5.913
2879.513,6.095
2886.600,6.258
2893.368,6.304
2900.275,6.321
2906.742,6.284
2913.089,6.202
2919.036,6.117
2925.202,6.066
2931.202,6.021
2937.311,6.015
2943.955,6.014
2957.322,6.033
2963.376,6.045
2969.545,6.060
2975.866,6.081
2982.080,6.099
2988.243,6.092
2994.665,6.016
3000.989,5.888
3007.416,5.647
3014.305,5.348
3020.503,5.043
3025.386,4.657
3035.857,4.039
3044.668,3.872
3053.454,4.016
3057.909,4.108
3062.899,4.182
3068.173,4.204
3072.792,4.150
3077.258,3.997
3081.093,3.815
3083.019,3.603
3085.538,1.523
3086.869,1.499
3090.316,3.272
3093.391,3.453
3097.337,3.629
3101.725,3.856
3106.801,4.040
3112.658,4.209
3117.478,4.333
3123.160,4.424
3128.651,4.511
3133.687,4.503
3139.092,4.575
3143.486,4.606
3148.873,4.550
3161.163,4.311
3168.141,4.083
3171.281,3.704
3172.626,3.265
3174.420,2.843
3175.934,2.327
3177.282,1.991
3180.612,1.583
3182.330,1.686
3184.257,1.809
3186.260,2.026
3188.161,2.177
3190.330,2.438
3192.295,2.780
3194.525,3.090
3197.782,3.483
3201.504,3.764
3210.671,4.299
3215.445,4.484
3219.937,4.637
3224.955,4.734
3229.790,5.033
3235.374,5.425
3241.077,5.795
3247.947,6.274
3258.729,6.753
3268.850,7.197
3279.583,7.556
3296.143,7.711
3305.044,7.913
3313.582,7.996
3321.107,8.066
3329.894,8.098
3339.329,8.151
3348.229,8.230
3356.695,8.295
3365.025,8.342
3374.069,8.393
3382.740,8.464
3391.935,8.493
3400.555,8.484
3408.801,8.447
3416.787,8.368
3425.158,8.243
3432.871,8.107
3439.698,7.982
3447.083,7.898
3454.296,7.848
3461.964,7.803
3470.082,7.773
3478.776,7.773
3487.515,7.653
3496.113,7.544
3503.430,7.327
3510.443,7.056
3517.574,6.831
3524.258,6.629
3530.372,6.538
3536.520,6.531
3542.479,6.703
3550.528,6.990
3565.355,7.286
3572.604,7.569
3580.773,7.910
3589.356,8.140
3597.179,8.312
3605.793,8.356
3613.526,8.374
3620.625,8.381
3628.385,8.337
3636.333,8.307
3644.569,8.282
3652.378,8.251
3660.343,8.248
3668.827,8.254
3677.256,8.246
3685.637,8.239
3693.609,8.206
3701.870,8.172
3718.501,8.078
3726.392,7.998
3734.709,7.905
3743.242,7.839
3751.250,7.772
3774.252,7.551
3782.184,7.465
3790.618,7.348
3799.031,7.165
3806.573,6.867
3813.987,6.586
3821.035,6.224
3827.864,5.848
3833.356,5.479
3838.492,5.034
3843.651,4.750
3848.280,4.379
3852.580,4.066
3856.830,3.811
3860.440,3.656
3863.684,3.655
3866.439,3.725
3869.981,3.934
3874.464,4.233
3880.194,4.550
3886.148,4.939
3892.986,5.262
3899.073,5.579
3905.219,5.860
3918.914,6.274
3926.919,6.387
3934.175,6.563
3941.141,6.687
3948.520,6.780
3955.833,6.887
3963.592,6.964
3971.484,7.009
3979.629,7.022
3987.475,7.021
3995.154,7.002
4009.960,6.915
4018.044,6.885
4025.331,6.874
4032.991,6.871
4040.294,6.883
4047.163,6.912
4054.632,6.965
4069.857,7.096
4077.376,7.146
4084.995,7.190
4093.213,7.205
4101.199,7.195
4109.181,7.150
4116.986,7.095
4124.229,7.035
4131.297,6.972
4138.377,6.935
4145.362,6.899
4152.615,6.889
4159.882,6.883
4167.119,6.875
4174.357,6.844
4181.729,6.805
4188.681,6.698
4195.321,6.509
4201.936,6.238
4208.466,5.891
4214.835,5.491
4220.528,5.013
4224.946,4.578
4229.199,4.214
4233.099,3.933
4236.733,3.775
4239.952,3.704
4243.725,3.737
4247.904,3.841
4252.107,3.947
4256.321,4.049
4260.220,4.109
4263.810,4.194
4267.867,4.215
4272.252,4.314
4276.259,4.483
4280.347,4.669
4284.668,4.880
4289.803,5.181
4295.965,5.553
4301.753,5.876
4301.780,6.124
4313.844,6.405
4320.257,6.719
4326.796,6.921
4341.207,7.206
4356.767,7.490
4364.718,7.561
4381.343,7.678
4389.725,7.687
4398.048,7.678
4414.164,7.602
4421.980,7.547
4429.715,7.478
4438.001,7.429
4453.520,7.325
4461.013,7.242
4468.044,7.015
4475.387,6.779
4482.614,6.422
4489.458,6.011
4495.180,5.553
4499.749,5.073
4504.015,4.677
4507.927,4.332
4512.311,4.030
4517.932,3.788
4522.778,3.595
4527.118,3.460
4530.964,3.347
4535.642,3.236
4540.266,3.132
4548.384,1.351
4558.975,2.567
4561.165,2.737
4563.578,2.820
4566.381,2.886
4569.039,2.949
4572.073,2.985
4575.619,3.007
4578.886,2.993
4582.029,2.940
4585.025,2.856
4587.997,2.773
4590.945,2.693
4594.103,2.635
4597.077,2.582
4600.129,2.566
4604.761,2.574
4607.605,2.583
4610.630,2.622
4613.515,2.688
4616.345,2.737
4619.299,2.820
4621.786,2.968
4624.664,3.082
4628.084,3.245
4630.834,3.404
4634.327,3.570
4638.290,3.733
4641.956,3.853
4646.015,3.993
4649.705,4.106
4654.104,4.233
4658.778,4.350
4663.568,4.452
4669.233,4.577
4674.560,4.691
4679.762,4.761
4684.183,4.750
4689.235,4.720
4694.384,4.641
4699.406,4.527
4704.058,4.417
4708.104,4.315
4711.817,4.278
4716.369,4.261
4721.515,4.267
4726.770,4.253
4731.292,4.228
4735.445,4.111
4740.409,3.981
4743.871,3.782
4747.299,3.582
4750.800,3.369
4753.825,3.131
4756.334,2.998
4759.216,2.852
4761.512,2.726
4766.720,2.519
4769.410,2.442
4772.054,2.359
4774.817,2.312
4777.558,2.290
4780.313,2.296
4782.462,2.343
4787.751,2.461
4791.279,2.500
4793.976,2.530
4797.263,2.511
4800.379,2.480
4802.340,2.433
4803.775,1.738
4814.470,2.502
4818.731,2.416
4822.360,1.954
4834.252,1.393
4837.158,1.382
4839.886,1.373
4842.488,1.360
4846.688,1.325
4854.861,2.126
4857.153,2.259
4859.918,2.394
4862.613,2.494
4865.013,2.605
4867.656,2.648
4870.339,2.706
4873.312,2.755
4876.657,2.787
4879.615,2.827
4882.734,2.902
4886.141,2.974
4889.422,3.071
4893.345,3.175
4897.006,3.290
4900.731,3.432
4904.805,3.517
4908.891,3.606
4912.281,3.669
4916.483,3.703
4920.763,3.724
4924.539,3.718
4927.622,3.702
4931.413,3.683
4935.644,3.656
4939.627,3.621
4943.236,3.600
4947.083,3.589
4950.720,3.573
4954.785,3.576
4958.081,3.586
4961.977,3.596
4966.197,3.609
4970.555,3.642
4975.248,3.666
4980.716,3.650
4986.001,3.643
4990.629,3.584
4995.223,3.504
4999.788,3.376
5004.249,3.208
5007.382,3.021
5010.351,2.782
5013.543,2.625
5016.207,2.460
5019.070,2.351
5022.522,2.300
5025.795,2.326
5029.062,2.397
5032.880,2.513
5036.675,2.645
5040.376,2.752
5043.444,2.832
5046.985,2.881
5051.358,2.879
5055.160,2.839
5057.647,2.784
5060.892,2.743
5062.888,2.725
5064.898,2.714
5067.676,2.715
5071.360,2.657
5075.148,2.624
5078.571,2.551
5081.470,2.458
5084.575,2.353
5087.629,2.223
5090.895,2.132
5104.350,1.356
5106.615,1.393
5110.202,1.555
5114.206,1.835
5116.608,2.029
5119.398,2.266
5124.748,2.534
5129.443,2.756
5133.723,3.017
5137.358,3.270
5141.699,3.489
5146.397,3.676
5150.323,3.788
5155.120,3.901
5160.270,3.950
5165.229,3.969
5170.092,3.956
5174.797,3.903
5179.680,3.854
5184.178,3.812
5187.738,3.776
5192.020,3.759
5196.090,3.759
5199.538,3.769
5203.508,3.806
5208.054,3.845
5212.939,3.915
5217.145,3.961
5221.546,4.056
5227.761,4.165
5233.206,4.289
5240.478,4.396
5246.041,4.467
5251.471,4.540
5257.019,4.591
5262.801,4.590
5268.911,4.676
5278.212,4.782
5283.461,4.908
5290.073,5.154
5295.673,5.393
5302.449,5.753
5310.598,6.015
5317.458,6.255
5324.191,6.619
5330.668,6.833
5338.997,7.113
5347.270,7.341
5355.473,7.586
5364.969,7.898
5374.528,8.123
5384.575,8.326
5393.245,8.493
5402.542,8.555
5412.197,8.576
5421.692,8.493
5431.823,8.388
5440.390,8.190
5448.395,8.026
5457.922,7.854
5467.338,7.721
5476.332,7.547
5484.950,7.389
5492.874,7.294
5500.538,7.177
5507.093,7.102
5513.552,7.061
5519.870,7.070
5527.223,7.164
5534.880,7.295
5542.760,7.466
5551.732,7.610
5560.518,7.708
5568.139,7.789
5576.561,7.804
5583.708,7.787
5591.665,7.800
5600.031,7.844
5607.131,7.900
5616.346,8.000
5625.862,8.114
5635.681,8.207
5644.814,8.256
5652.432,8.278
5660.453,8.277
5669.199,8.212
5676.517,8.152
5684.590,8.136
5693.013,8.109
5701.768,8.115
5709.847,8.099
5719.045,8.093
5727.069,8.038
5733.953,7.994
5740.709,7.900
5747.829,7.766
5754.142,7.639
5761.535,7.511
5769.257,7.413
5776.470,7.309
5784.324,7.282
5791.773,7.325
5798.949,7.396
5807.258,7.511
5815.385,7.650
5824.133,7.784
5833.020,7.897
5841.704,7.973
5850.096,8.031
5858.081,8.029
5866.350,8.038
5874.791,8.028
5883.124,8.025
5891.190,8.024
5899.372,8.043
5907.627,8.076
5915.686,8.103
5923.780,8.139
5932.144,8.179
5940.905,8.234
5949.239,8.274
5956.970,8.331
5965.284,8.398
5973.827,8.460
5983.305,8.574
5991.355,8.680
5999.855,8.791
6008.374,8.871
6017.798,8.931
6028.568,8.941
6037.140,8.867
6045.771,8.755
6053.757,8.441
6062.257,8.158
6070.081,7.747
6077.339,7.281
6084.721,6.814
6090.373,6.386
6096.107,6.138
6103.683,5.889
6110.702,5.855
6115.739,6.049
6120.808,6.317
6145.349,7.465
6155.427,7.859
6165.143,8.124
6175.142,8.424
6184.575,8.654
6192.838,8.778
6201.341,8.809
6210.739,8.835
6221.984,8.788
6234.116,8.714
6242.233,8.607
6251.409,8.517
6260.726,8.369
6268.927,8.236
6276.123,8.125
6284.490,8.022
6293.353,7.967
6302.312,7.914
6311.179,7.889
6318.942,7.864
6326.451,7.870
6333.845,7.856
6342.477,7.766
6350.600,7.690
6358.556,7.550
6367.095,7.380
6375.212,7.192
6382.690,7.003
6389.135,6.875
6397.354,6.648
6405.881,6.484
6413.146,6.352
6421.315,6.147
6427.991,6.004
6432.968,5.857
6439.579,5.745
6445.583,5.662
6451.058,5.594
6456.065,5.622
6465.254,5.690
6470.542,5.802
6476.347,5.925
6483.762,6.020
6501.872,6.345
6509.572,6.417
6517.574,6.625
6524.579,6.822
6530.976,7.080
6540.009,7.361
6549.727,7.659
6559.906,7.997
6569.763,8.212
6578.969,8.390
6588.069,8.506
6597.619,8.566
6606.560,8.553
6615.222,8.496
6623.957,8.348
6633.085,8.217
6642.801,8.065
6651.798,7.875
6660.571,7.685
6669.117,7.528
6676.427,7.425
6685.212,7.366
6692.377,7.349
6699.553,7.378
6707.379,7.434
6715.447,7.508
6723.638,7.564
6731.489,7.591
6738.803,7.626
6746.865,7.625
6755.357,7.627
6764.039,7.617
6771.691,7.535
6779.194,7.481
6787.684,7.343
6795.909,7.203
6803.455,7.027
6810.752,6.876
6817.187,6.774
6822.913,6.684
6828.926,6.677
6835.802,6.649
6843.213,6.629
6850.933,6.612
6858.568,6.413
6864.749,6.204
6871.264,5.841
6875.985,5.385
6881.060,4.850
6886.357,4.321
6889.894,3.941
6894.197,3.465
6897.990,3.123
6900.928,2.832
6914.118,0.892
6919.075,1.387
6920.379,1.493
6921.901,1.575
6924.976,1.718
6926.920,1.746
6931.529,2.630
6934.173,2.822
6937.636,3.004
6941.339,3.239
6946.236,3.446
6951.490,3.614
6962.365,3.852
6967.337,3.977
6971.591,4.073
6976.220,4.199
6980.050,4.338
6984.683,4.557
6990.306,4.801
6995.428,5.063
7000.791,5.237
7006.024,5.409
7011.648,5.588
7017.146,5.673
7023.096,5.730
7036.219,5.899
7045.724,6.006
7052.360,6.124
7058.401,6.270
7065.633,6.378
7072.791,6.487
7080.338,6.548
7094.282,6.612
7109.152,6.554
7115.467,6.497
7122.033,6.446
7129.016,6.400
7136.078,6.341
7142.805,6.256
7149.202,6.209
7155.624,6.167
7162.410,6.152
7185.244,6.095
7192.810,6.028
7200.744,5.921
7207.360,5.804
7213.231,5.702
7219.750,5.630
7228.848,5.577
7236.585,5.577
7245.907,5.631
7245.933,5.689
7258.032,5.775
7285.681,6.195
7292.673,6.284
7298.974,6.448
7305.431,6.553
7312.265,6.676
7319.205,6.792
7326.154,6.883
7333.234,6.918
7340.347,6.940
7347.328,6.964
7354.364,6.946
7361.502,6.965
7367.992,7.019
7375.911,7.107
7384.644,7.248
7392.241,7.403
7399.881,7.629
7407.843,7.814
7415.668,7.994
7424.167,8.123
7432.210,8.185
7440.759,8.213
7449.647,8.170
7457.950,8.098
7465.724,7.961
7473.647,7.787
7481.237,7.633
7488.835,7.458
7496.469,7.304
7503.840,7.131
7510.060,6.953
7516.418,6.805
7523.044,6.675
7529.841,6.575
7536.100,6.454
7542.257,6.397
7550.178,6.386
7558.032,6.366
7565.611,6.329
7573.321,6.333
7580.305,6.321
7587.942,6.368
7594.695,6.438
7600.959,6.542
7608.251,6.638
7615.250,6.742
7622.988,6.860
7631.587,6.895
7639.453,6.904
7647.151,6.879
7654.610,6.795
7661.668,6.712
7668.524,6.671
7675.427,6.646
7682.938,6.632
7690.143,6.686
7698.061,6.748
7706.004,6.797
7713.787,6.841
7720.808,6.841
7728.689,6.794
7736.030,6.723
7742.720,6.668
7748.792,6.595
7756.211,6.519
7763.391,6.553
7769.372,6.632
7777.033,6.721
7784.838,6.902
7791.818,7.104
7800.854,7.269
7808.748,7.392
7816.448,7.524
7826.096,7.646
7834.296,7.678
7842.217,7.716
7851.009,7.773
7858.936,7.796
7866.218,7.815
7874.263,7.850
7882.440,7.821
7890.915,7.757
7897.947,7.670
7905.377,7.537
7913.268,7.373
7920.705,7.213
7928.013,7.055
7935.653,6.968
7944.059,6.891
7949.980,6.852
7957.485,6.809
7964.610,6.814
7969.836,6.805
7976.298,6.742
7983.609,6.613
7990.937,6.513
7998.015,6.339
8003.615,6.137
8009.049,5.865
8016.180,5.629
8023.005,5.421
8030.394,5.146
8036.791,4.930
8041.926,4.664
8046.304,4.465
8051.461,4.283
8056.057,4.126
8060.322,4.071
8065.470,4.066
8070.307,4.121
8075.274,4.212
8079.227,4.276
8084.814,4.334
8090.204,4.372
8094.599,4.334
8099.331,4.260
8104.198,4.127
8109.683,4.037
8114.509,3.915
8118.736,3.788
8123.346,3.696
8125.743,3.598
8128.811,3.520
8133.972,3.444
8137.012,3.278
8142.042,3.186
8146.119,3.060
8150.248,2.929
8154.598,2.563
8158.189,0.949
8159.734,1.009
8161.660,1.055
8165.297,1.118
8166.918,1.130
8168.565,1.132
8169.567,1.140
8172.602,1.907
8175.518,1.888
8177.788,1.860
8179.805,1.821
8184.392,1.717
8185.804,2.929
8187.846,3.270
8191.752,3.631
8195.747,4.010
8200.104,4.354
8206.278,4.692
8212.099,5.074
8217.685,5.341
8223.690,5.519
8229.485,5.721
8235.480,5.872
8241.468,6.056
8247.586,6.223
8254.000,6.458
8260.637,6.688
8267.643,6.845
8274.807,7.017
8282.097,7.129
8289.471,7.253
8296.669,7.299
8303.623,7.395
8310.889,7.497
8318.465,7.586
8326.141,7.772
8333.968,7.921
8342.114,8.136
8350.431,8.292
8359.095,8.458
8368.011,8.634
8377.247,8.724
8386.183,8.838
8394.609,8.905
8403.216,9.008
8412.173,9.110
8421.309,9.206
8430.512,9.331
8439.895,9.437
8449.443,9.534
8459.243,9.599
8469.082,9.620
8478.629,9.594
8487.903,9.544
8497.343,9.433
8506.492,9.306
8515.611,9.160
8524.640,9.000
8533.628,8.869
8542.339,8.648
8550.563,8.501
8558.905,8.305
8567.183,8.114
8575.546,7.916
8583.322,7.721
8590.821,7.605
8598.054,7.491
8605.439,7.428
8612.567,7.400
8620.283,7.397
8627.595,7.419
8635.468,7.435
8643.388,7.433
8650.770,7.410
8658.150,7.381
8665.264,7.313
8672.591,7.244
8679.814,7.153
8687.002,7.065
8694.100,6.958
8700.966,6.798
8707.494,6.596
8713.945,6.391
8720.198,6.130
8726.401,5.870
8732.128,5.607
8737.588,5.399
8742.590,5.296
8747.727,5.243
8751.163,5.268
8757.233,5.419
8761.564,5.595
8767.965,5.814
8775.282,5.991
8781.554,6.116
8787.532,6.221
8793.909,6.181
8799.516,6.135
8806.291,6.048
8812.867,5.923
8819.170,5.871
8825.117,5.804
8830.475,5.746
8836.306,5.702
8841.451,5.644
8847.714,5.592
8853.351,5.510
8858.249,5.448
8864.397,5.343
8869.700,5.258
8875.436,5.118
8881.134,4.946
8886.108,4.741
8891.269,4.521
8895.105,4.386
8899.316,4.228
8903.180,4.169
8905.186,4.184
8909.292,4.314
8915.130,4.471
8919.505,4.636
8924.298,4.847
8929.865,5.020
8934.861,5.152
8939.697,5.195
8945.350,5.234
8950.229,5.241
8955.074,5.220
8959.759,5.204
8964.505,5.180
8968.976,5.166
8974.463,5.177
8980.304,5.191
8986.109,5.240
8991.611,5.281
8997.233,5.343
9002.827,5.421
9008.728,5.480
9014.410,5.535
9020.196,5.579
9024.873,5.616
9029.714,5.637
9034.449,5.648
9039.397,5.655
9043.908,5.685
9049.145,5.692
9054.718,5.725
9060.865,5.770
9066.557,5.810
9072.248,5.822
9077.678,5.812
9083.248,5.797
9089.077,5.758
9094.714,5.705
9100.709,5.669
9106.450,5.653
9111.668,5.657
9117.000,5.721
9121.554,5.834
9126.377,6.000
9133.043,6.185
9139.470,6.372
9147.553,6.581
9154.777,6.722
9161.256,6.867
9167.885,6.964
9175.243,7.040
9182.036,7.155
9188.474,7.241
9195.887,7.399
9203.064,7.542
9210.792,7.719
9218.431,7.965
9226.827,8.145
9235.257,8.373
9242.918,8.581
9252.109,8.761
9260.775,8.984
9269.607,9.132
9278.933,9.299
9288.752,9.428
9298.696,9.499
9308.294,9.532
9318.546,9.501
9328.698,9.451
9338.014,9.375
9347.114,9.307
9355.772,9.274
9364.131,9.286
9372.951,9.302
9382.714,9.393
9391.665,9.506
9400.564,9.694
9410.722,9.841
9421.138,9.997
9431.333,10.218
9442.155,10.393
9451.984,10.561
9462.077,10.672
9473.452,10.770
9484.209,10.828
9495.144,10.786
9506.022,10.687
9517.449,10.527
9528.131,10.262
9539.356,10.010
9549.452,9.749
9556.426,9.503
9564.737,9.308
9572.829,9.175
9581.638,9.140
9590.681,9.128
9599.865,9.167
9609.577,9.228
9620.032,9.301
9629.796,9.363
9640.033,9.393
9649.799,9.404
9659.417,9.381
9669.830,9.366
9679.642,9.342
9688.760,9.328
9698.170,9.319
9707.068,9.317
9715.792,9.328
9725.268,9.336
9734.340,9.339
9743.421,9.331
9750.951,9.313
9759.571,9.290
9769.396,9.270
9779.526,9.244
9788.740,9.223
9798.046,9.211
9808.246,9.219
9817.684,9.231
9827.174,9.255
9835.488,9.315
9844.914,9.357
9854.168,9.428
9864.172,9.497
9873.640,9.568
9884.061,9.629
9894.205,9.665
9903.883,9.694
9913.798,9.704
9923.536,9.702
9933.058,9.689
9943.624,9.673
9953.993,9.648
9963.722,9.637
9973.071,9.622
9982.903,9.614
9992.532,9.595
10002.224,9.583
10011.456,9.563
10021.247,9.551
10030.844,9.565
10040.069,9.566
10049.017,9.574
10058.887,9.575
10068.308,9.576
10077.763,9.562
10086.717,9.542
10095.838,9.510
10105.216,9.475
10114.787,9.442
10124.117,9.416
10133.425,9.399
10142.334,9.387
10151.670,9.394
10161.827,9.402
10171.250,9.409
10181.398,9.413
10191.256,9.409
10201.123,9.397
10210.207,9.382
10219.262,9.365
10228.701,9.350
10238.013,9.323
10247.128,9.309
10256.738,9.293
10265.968,9.278
10274.308,9.266
10284.120,9.251
10293.854,9.249
10302.921,9.238
10312.743,9.215
10321.926,9.190
10331.098,9.143
10340.715,9.092
10349.744,9.035
10357.762,8.974
10366.162,8.924
10375.453,8.876
10384.858,8.841
10393.953,8.826
10403.026,8.808
10412.418,8.801
10421.189,8.795
10430.082,8.794
10438.877,8.786
10448.413,8.763
10457.098,8.728
10465.337,8.642
10474.225,8.574
10483.570,8.447
10492.259,8.311
10500.127,8.191
10508.433,8.089
10517.033,8.030
10524.815,7.984
10532.727,7.992
10541.178,8.036
10548.823,8.081
10556.750,8.149
10564.724,8.222
10573.258,8.276
10581.130,8.336
10589.651,8.401
10597.761,8.463
10606.386,8.510
10614.982,8.557
10623.683,8.587
10632.745,8.604
10640.963,8.607
10650.026,8.600
10658.753,8.596
10667.316,8.597
10676.578,8.605
10685.676,8.623
10694.755,8.640
10703.516,8.660
10712.979,8.675
10721.818,8.689
10729.411,8.703
10737.559,8.713
10746.312,8.732
10755.422,8.747
10764.011,8.759
10772.215,8.775
10780.577,8.783
10789.998,8.773
10798.358,8.772
10807.301,8.765
10816.807,8.757
10825.386,8.761
10833.389,8.785
10841.527,8.809
10850.899,8.838
10859.386,8.867
10869.276,8.894
10877.954,8.913
10886.688,8.929
10894.943,8.959
10903.546,8.969
10912.178,9.039
10920.679,9.102
10930.634,9.171
10939.420,9.249
10950.109,9.320
10958.580,9.393
10967.873,9.408
10976.715,9.425
10985.249,9.434
10995.026,9.416
11005.407,9.422
11015.433,9.429
11024.729,9.463
11034.026,9.513
11043.614,9.579
11053.610,9.651
11063.920,9.692
11074.658,9.725
11084.926,9.753
11094.911,9.722
11104.182,9.687
11113.999,9.653
11123.290,9.616
11132.122,9.562
11141.086,9.499
11150.556,9.450
11159.914,9.397
11168.770,9.340
11178.497,9.307
11188.103,9.252
11197.006,9.209
11205.664,9.164
11214.414,9.124
11223.771,9.068
11234.065,8.976
11244.149,8.898
11253.663,8.824
11261.470,8.727
11269.815,8.605
11278.267,8.513
11286.314,8.435
11294.936,8.358
11303.197,8.265
11311.608,8.184
11320.140,8.132
11327.887,8.056
11336.480,8.004
11344.523,7.935
11352.463,7.883
11360.219,7.845
11367.926,7.807
11375.198,7.802
11383.101,7.786
11391.306,7.790
11399.218,7.795
11407.342,7.790
11415.384,7.784
11423.400,7.774
11431.440,7.758
11438.992,7.741
11446.487,7.725
11454.569,7.720
11462.033,7.706
11470.180,7.709
11477.002,7.712
11484.835,7.714
11493.067,7.724
11500.921,7.738
11510.011,7.754
11517.901,7.772
11526.497,7.797
11534.159,7.821
11541.082,7.839
11548.847,7.854
11555.649,7.863
11563.760,7.875
11571.642,7.869
11579.510,7.868
11587.339,7.850
11595.082,7.842
11603.098,7.820
11610.656,7.806
11618.569,7.795
11625.413,7.789
11632.635,7.799
11641.135,7.821
11649.497,7.859
11656.935,7.891
11665.093,7.922
11673.324,7.919
11681.159,7.917
11689.219,7.870
11696.826,7.839
11705.050,7.797
11713.080,7.763
11721.440,7.755
11728.930,7.776
11736.762,7.798
11744.703,7.848
11752.706,7.914
11759.674,7.960
11768.315,8.032
11777.015,8.068
11785.053,8.108
11793.303,8.144
11801.251,8.165
11810.165,8.191
11818.406,8.211
11826.516,8.220
11834.406,8.232
11843.398,8.244
11851.914,8.243
11860.384,8.236
11868.360,8.199
11876.464,8.133
11884.955,8.065
11893.039,7.926
11900.926,7.747
11908.396,7.596
11916.391,7.345
11923.041,7.146
11929.137,6.917
11936.032,6.740
11942.540,6.622
11948.950,6.484
11956.162,6.454
11963.556,6.432
11970.117,6.431
11977.140,6.430
11983.730,6.437
11990.461,6.434
11997.234,6.431
12003.079,6.421
12009.313,6.388
12015.374,6.375
12021.365,6.354
12027.937,6.339
12034.292,6.322
12040.793,6.306
12047.812,6.303
12054.246,6.314
12060.637,6.330
12067.057,6.376
12073.504,6.428
12080.299,6.504
12086.425,6.597
12093.206,6.718
12099.785,6.838
12106.863,6.927
12114.061,7.058
12121.034,7.156
12127.628,7.226
12135.737,7.269
12143.577,7.301
12151.069,7.328
12157.893,7.338
12165.751,7.351
12172.575,7.423
12179.730,7.513
12186.892,7.617
12193.618,7.785
12201.860,7.933
12210.284,8.116
12219.632,8.243
12228.238,8.344
12236.640,8.403
12245.023,8.371
12253.502,8.327
12263.268,8.243
12271.796,8.141
12280.210,8.069
12288.223,8.027
12295.474,8.071
12303.481,8.139
12311.279,8.301
12319.827,8.484
12328.431,8.670
12337.586,8.879
12346.819,9.017
12356.159,9.224
12365.527,9.327
12375.113,9.450
12384.161,9.551
12393.746,9.642
12403.634,9.728
12413.672,9.773
12423.903,9.802
12434.219,9.800
12444.228,9.786
12454.222,9.752
12463.428,9.709
12472.963,9.651
12481.729,9.608
12491.235,9.572
12501.079,9.531
12509.717,9.512
12518.541,9.499
12528.294,9.510
12537.771,9.525
12547.623,9.543
12557.351,9.572
12566.834,9.598
12576.901,9.617
12586.874,9.640
12595.858,9.656
12605.805,9.662
12615.201,9.655
12625.136,9.627
12635.311,9.550
12644.582,9.466
12654.364,9.341
12663.856,9.206
12672.215,9.013
12680.843,8.850
12690.176,8.661
12698.869,8.500
12706.968,8.318
12715.380,8.139
12724.174,8.031
12732.716,7.896
12739.594,7.819
12746.546,7.654
12754.668,7.572
12763.362,7.379
12771.404,7.151
12778.752,6.948
12785.560,6.609
12792.294,6.278
12798.108,5.874
12803.737,5.615
12808.741,5.380
12814.405,5.229
12818.781,5.303
12822.671,5.399
12828.422,5.619
12833.436,5.886
12840.098,6.176
12847.391,6.426
12856.498,6.601
12863.333,6.816
12871.288,6.965
12878.468,7.066
12884.812,7.173
12891.225,7.254
12899.531,7.312
12907.222,7.339
12914.624,7.344
12922.082,7.360
12929.380,7.363
12936.425,7.379
12944.527,7.410
12951.315,7.485
12958.703,7.582
12967.729,7.685
12975.773,7.790
12984.460,7.875
12992.824,7.949
13000.298,8.013
13009.230,8.016
13017.964,8.018
13026.379,8.024
13033.133,8.044
13041.410,8.062
13049.702,8.085
13057.790,8.111
13065.705,8.136
13074.060,8.153
13081.958,8.155
13089.942,8.158
13098.233,8.147
13107.172,8.133
13115.463,8.117
13123.570,8.094
13131.287,8.070
13138.846,8.028
13147.112,7.983
13155.707,7.925
13163.184,7.868
13171.647,7.797
13180.484,7.722
13189.300,7.650
13196.616,7.592
13204.489,7.526
13211.902,7.454
13218.282,7.400
13226.311,7.342
13233.724,7.307
13242.529,7.270
13247.881,7.253
13254.235,7.240
13260.972,7.235
13266.945,7.232
13273.887,7.215
13280.894,7.161
13289.110,7.099
13296.229,7.021
13303.326,6.929
13310.985,6.843
13317.194,6.761
13323.581,6.710
13329.543,6.667
13336.393,6.650
13343.712,6.648
13351.523,6.658
13358.416,6.682
13364.162,6.712
13371.071,6.751
13377.164,6.812
13384.235,6.873
13391.472,6.951
13397.931,7.032
13404.809,7.131
13411.855,7.238
13419.688,7.322
13427.385,7.413
13435.881,7.500
13443.518,7.599
13451.302,7.678
13459.200,7.739
13467.319,7.810
13475.240,7.869
13483.104,7.917
13492.535,7.949
13500.121,7.971
13507.907,7.985
13515.479,7.982
13523.762,7.970
13531.740,7.960
13539.505,7.948
13547.628,7.937
13555.894,7.923
13563.121,7.909
13571.049,7.900
13578.846,7.888
13586.724,7.880
13594.435,7.857
13602.003,7.843
13609.937,7.829
13617.572,7.802
13624.782,7.780
13631.185,7.758
13639.322,7.742
13648.312,7.729
13657.417,7.728
13664.641,7.741
13672.115,7.754
13680.277,7.801
13688.610,7.842
13696.383,7.893
13704.281,7.940
13711.704,7.981
13719.662,8.011
13726.661,8.013
13735.128,8.014
13743.099,7.986
13751.795,7.949
13760.043,7.913
13767.490,7.867
13774.923,7.806
13783.021,7.744
13790.197,7.695
13797.899,7.651
13805.292,7.607
13813.233,7.592
13821.437,7.595
13829.092,7.610
13837.822,7.633
13846.013,7.663
13852.922,7.691
13861.170,7.715
13869.313,7.739
13876.866,7.748
13884.700,7.753
13892.786,7.742
13900.917,7.737
13909.637,7.721
13917.152,7.719
13925.327,7.736
13932.284,7.786
13939.875,7.842
13947.489,7.906
13955.458,7.991
13963.899,8.068
13971.395,8.105
13978.960,8.115
13987.830,8.114
13997.071,8.072
14006.115,8.020
14013.999,7.957
14022.135,7.913
14029.713,7.861
14037.122,7.836
14045.390,7.814
14053.173,7.799
14060.736,7.780
14068.255,7.774
14076.508,7.761
14083.862,7.789
14090.746,7.810
14098.273,7.872
14105.899,7.941
14114.333,8.035
14122.291,8.123
14130.277,8.225
14138.255,8.325
14145.967,8.378
14154.653,8.467
14163.430,8.502
14172.475,8.527
14180.672,8.543
14189.654,8.524
14200.196,8.504
14209.506,8.426
14217.265,8.336
14224.910,8.248
14231.077,8.106
14237.947,8.006
14245.105,7.850
14254.007,7.763
14262.465,7.653
14270.215,7.521
14277.523,7.438
14284.576,7.339
14292.144,7.281
14299.553,7.216
14306.916,7.181
14314.641,7.172
14322.127,7.160
14328.822,7.157
14336.099,7.157
14343.839,7.149
14350.654,7.137
14357.931,7.111
14364.952,7.084
14371.388,7.055
14378.918,7.035
14386.658,7.016
14393.204,7.010
14399.385,7.005
14406.524,7.015
14412.983,7.018
14420.725,7.023
14427.794,7.028
14434.643,7.028
14441.975,7.029
14448.682,7.030
14455.466,7.022
14462.036,7.040
14469.077,7.073
14476.537,7.108
14483.197,7.158
14490.704,7.209
14498.314,7.252
14504.127,7.293
14512.261,7.321
14518.156,7.344
14526.740,7.369
14534.458,7.397
14543.650,7.413
14551.187,7.428
14558.868,7.440
14566.318,7.448
14574.875,7.439
14582.859,7.427
14590.586,7.412
14597.777,7.382
14605.377,7.352
14613.041,7.244
14619.865,7.104
14626.061,6.904
14633.951,6.670
14640.441,6.356
14647.320,5.953
14653.436,5.601
14659.327,5.237
14663.408,4.882
14668.000,4.566
14672.149,4.343
14677.382,4.162
14682.489,4.042
14686.441,3.916
14689.311,1.997
14690.997,2.190
14692.034,2.323
14693.182,2.529
14695.284,2.702
14698.253,2.911
14701.106,3.113
14704.218,3.233
14707.909,3.377
14710.433,3.473
14713.551,3.592
14718.101,3.693
14721.491,3.847
14726.445,4.057
14730.715,4.312
14734.519,4.533
14739.935,4.857
14745.339,5.166
14751.040,5.464
14757.328,5.741
14763.658,5.996
14769.787,6.236
14775.444,6.407
14782.767,6.547
14789.500,6.662
14796.243,6.736
14803.385,6.781
14810.354,6.813
14816.942,6.797
14824.768,6.772
14831.144,6.766
14837.990,6.756
14844.662,6.737
14850.915,6.737
14857.337,6.757
14865.358,6.782
14872.501,6.836
14878.633,6.911
14884.095,6.998
14890.838,7.092
14900.022,7.201
14908.131,7.299
14916.203,7.383
14923.995,7.456
14931.468,7.512
14939.361,7.549
14946.718,7.570
14954.679,7.599
14961.998,7.617
14968.979,7.635
14976.210,7.658
14983.086,7.671
14990.360,7.690
14997.407,7.707
15004.971,7.719
15013.433,7.738
15021.274,7.753
15029.336,7.763
15036.823,7.756
15044.865,7.746
15052.365,7.735
15061.180,7.710
15069.642,7.669
15077.215,7.632
15085.766,7.602
15093.796,7.592
15100.491,7.595
15107.765,7.619
15115.274,7.658
15123.203,7.727
15131.112,7.790
15138.739,7.838
15146.660,7.884
15153.797,7.919
15161.357,7.965
15170.321,7.978
15178.914,7.991
15187.243,8.018
15195.704,8.041
15203.304,8.059
15211.299,8.070
15219.123,8.077
15226.993,8.093
15234.958,8.099
15242.456,8.080
15251.016,8.066
15259.241,8.042
15267.477,7.984
15275.542,7.939
15283.469,7.824
15291.243,7.734
15298.648,7.615
15306.442,7.518
15313.552,7.444
15320.124,7.377
15325.962,7.390
15334.281,7.441
15342.741,7.513
15350.637,7.608
15357.891,7.722
15366.161,7.829
15374.462,7.927
15384.074,7.982
15392.443,8.024
15400.772,8.052
15408.528,8.050
15416.309,8.029
15424.604,7.998
15433.813,7.951
15441.443,7.917
15448.903,7.893
15457.851,7.887
15465.124,7.890
15472.463,7.904
15478.847,7.926
15486.485,7.954
15494.733,7.968
15502.823,7.986
15511.359,7.998
15519.077,7.988
15526.963,7.987
15534.181,7.985
15542.812,7.993
15551.384,8.006
15558.078,8.032
15566.223,8.062
15575.382,8.097
15582.743,8.140
15591.667,8.175
15599.851,8.204
15608.431,8.228
15616.556,8.256
15623.887,8.279
15632.262,8.290
15640.441,8.306
15648.511,8.316
15655.943,8.313
15665.601,8.303
15673.193,8.240
15682.626,8.164
15690.863,8.081
15698.546,7.963
15706.639,7.843
15714.312,7.646
15720.444,7.523
15727.846,7.391
15735.432,7.272
15742.178,7.208
15750.571,7.170
15757.940,7.188
15765.370,7.243
15772.878,7.306
15781.218,7.394
15789.101,7.474
15796.684,7.548
15804.051,7.614
15812.066,7.659
15819.442,7.687
15827.048,7.693
15834.981,7.694
15842.230,7.689
15850.753,7.675
15857.962,7.645
15866.359,7.624
15874.342,7.600
15882.486,7.571
15890.077,7.551
15897.888,7.548
15905.338,7.548
15912.653,7.580
15919.916,7.661
15927.214,7.734
15935.655,7.821
15942.415,7.893
15949.858,7.961
15958.144,7.996
15966.709,7.995
15975.237,7.982
15983.576,7.953
15991.875,7.922
16000.517,7.909
16008.659,7.922
16016.395,7.939
16023.291,7.981
16031.003,8.030
16038.918,8.083
16046.800,8.124
16055.888,8.155
16064.650,8.188
16073.280,8.224
16082.267,8.258
16090.610,8.235
16099.585,8.214
16108.244,8.174
16116.558,8.119
16123.439,8.051
16130.944,7.987
16139.667,7.940
16147.223,7.929
16155.864,7.946
16164.781,8.004
16173.260,8.075
16181.144,8.179
16189.248,8.267
16197.068,8.347
16205.757,8.409
16214.105,8.425
16222.800,8.438
16231.613,8.387
16240.172,8.330
16248.055,8.215
16256.204,8.107
16264.020,8.002
16271.593,7.891
16280.168,7.803
16287.866,7.722
16295.040,7.686
16303.043,7.625
16310.783,7.606
16318.279,7.595
16326.164,7.572
16333.757,7.541
16341.144,7.529
16348.521,7.453
16356.465,7.384
16363.299,7.143
16370.872,6.926
16377.878,6.681
16384.632,6.368
16391.043,6.093
16396.600,5.703
16402.535,2.394
16404.964,2.442
16407.536,2.487
16410.138,2.537
16413.243,2.617
16416.119,2.677
16418.812,2.800
16421.386,2.893
16423.825,3.078
16426.309,3.287
16429.734,3.458
16433.189,3.709
16436.731,3.953
16439.962,4.291
16444.339,4.501
16450.541,4.778
16455.369,5.122
16461.566,5.394
16467.277,5.669
16473.197,5.876
16479.016,6.175
16485.295,6.397
16491.897,6.551
16498.611,6.722
16505.653,6.875
16512.896,7.007
16520.214,7.074
16527.576,7.142
16534.727,7.193
16541.874,7.213
16549.096,7.203
16556.393,7.192
16563.723,7.175
16570.890,7.167
16577.984,7.190
16584.852,7.225
16591.972,7.274
16599.070,7.359
16606.536,7.486
16614.051,7.606
16621.724,7.707
16629.731,7.829
16637.657,7.978
16645.599,8.083
16653.734,8.162
16662.159,8.238
16670.643,8.321
16679.323,8.367
16687.878,8.395
16696.369,8.418
16704.874,8.440
16713.472,8.453
16721.915,8.458
16730.346,8.461
16738.673,8.464
16747.413,8.471
16755.840,8.473
16764.386,8.475
16772.740,8.475
16781.081,8.476
16789.653,8.459
16798.104,8.442
16806.654,8.409
16815.150,8.388
16823.469,8.365
16831.622,8.348
16839.617,8.344
16847.809,8.351
16856.575,8.376
16865.230,8.403
16873.826,8.428
16882.286,8.450
16890.884,8.482
16899.625,8.502
16908.255,8.511
16917.058,8.518
16925.689,8.524
16934.386,8.526
16943.107,8.512
16951.555,8.491
16959.923,8.466
16968.265,8.437
16976.607,8.411
16985.007,8.379
16993.355,8.359
17001.492,8.343
17009.608,8.333
17018.163,8.330
17026.735,8.336
17035.098,8.352
17043.566,8.368
17051.941,8.386
17060.461,8.398
17069.051,8.401
17077.648,8.400
17085.995,8.384
17094.521,8.347
17102.884,8.314
17111.192,8.271
17119.447,8.224
17127.626,8.176
17135.578,8.146
17143.788,8.131
17151.899,8.115
17160.150,8.113
17168.528,8.119
17176.803,8.124
17185.177,8.135
17193.300,8.138
17201.298,8.131
17209.343,8.128
17217.376,8.111
17225.519,8.088
17233.618,8.052
17241.644,8.007
17249.380,7.971
17257.157,7.920
17264.955,7.884
17272.688,7.852
17280.393,7.830
17288.116,7.824
17295.799,7.827
17303.776,7.837
17311.558,7.848
17319.399,7.854
17327.387,7.879
17335.434,7.884
17343.464,7.887
17351.336,7.882
17359.009,7.867
17367.280,7.839
17375.038,7.807
17382.836,7.772
17390.831,7.738
17398.546,7.716
17406.019,7.709
17413.524,7.712
17421.146,7.723
17429.096,7.760
17436.950,7.794
17444.868,7.842
17452.790,7.876
17460.620,7.919
17468.566,7.947
17476.581,7.966
17484.685,7.981
17492.625,7.982
17500.421,7.979
17508.280,7.966
17516.294,7.944
17524.190,7.920
17532.014,7.878
17539.716,7.848
17547.425,7.812
17555.126,7.784
17563.032,7.759
17570.640,7.728
17578.473,7.716
17586.482,7.701
17594.301,7.694
17602.157,7.697
17609.649,7.668
17617.670,7.664
17625.478,7.655
17633.207,7.655
17641.169,7.660
17648.233,7.663
17655.979,7.676
17663.812,7.676
17671.624,7.638
17679.458,7.592
17687.266,7.537
17694.632,7.463
17701.935,7.383
17709.013,7.305
17716.487,7.240
17723.710,7.181
17731.261,7.077
17738.785,6.992
17745.892,6.907
17753.186,6.804
17759.594,6.718
17766.267,6.619
17773.220,6.571
17780.187,6.529
17787.124,6.494
17794.065,6.487
17800.636,6.485
17807.173,6.483
17813.723,6.497
17820.183,6.515
17826.976,6.530
17833.624,6.546
17840.318,6.586
17847.091,6.619
17853.946,6.645
17860.475,6.694
17867.596,6.729
17874.951,6.792
17882.376,6.842
17889.290,6.894
17896.692,6.952
17903.809,6.988
17911.004,7.040
17918.318,7.061
17925.752,7.088
17933.189,7.134
17940.383,7.152
17947.662,7.196
17954.945,7.233
17962.460,7.267
17969.854,7.303
17977.460,7.325
17984.967,7.336
17992.244,7.303
17999.410,7.262
18006.644,7.213
18013.889,7.128
18020.887,7.048
18027.477,6.984
18034.417,6.935
18041.664,6.918
18048.428,6.919
18055.259,6.943
18062.332,6.994
18069.381,7.047
18076.544,7.134
18083.931,7.194
18091.276,7.245
18098.841,7.292
18106.583,7.301
18114.494,7.309
18122.297,7.283
18129.801,7.247
18137.311,7.215
18144.256,7.190
18151.822,7.187
18158.981,7.194
18165.993,7.251
18173.552,7.310
18180.769,7.381
18188.154,7.456
18196.092,7.497
18203.994,7.512
18211.793,7.505
18219.379,7.505
18226.828,7.501
18234.498,7.517
18241.513,7.538
18249.318,7.596
18257.031,7.674
18264.820,7.757
18272.922,7.825
18281.116,7.894
18289.088,7.981
18297.306,8.023
18305.360,8.068
18313.036,8.112
18321.418,8.164
18329.993,8.210
18338.399,8.244
18346.414,8.256
18354.970,8.257
18363.560,8.248
18372.038,8.211
18380.220,8.182
18388.050,8.160
18396.514,8.158
18404.653,8.160
18413.010,8.176
18421.164,8.192
18429.457,8.221
18438.064,8.236
18446.581,8.260
18454.915,8.275
18463.360,8.280
18471.713,8.290
18480.223,8.298
18488.746,8.294
18497.189,8.295
18505.559,8.291
18514.007,8.283
18522.505,8.282
18530.670,8.287
18539.281,8.296
18548.057,8.306
18556.294,8.316
18564.831,8.325
18573.396,8.329
18581.742,8.328
18590.315,8.332
18598.664,8.322
18606.966,8.322
18615.576,8.312
18624.141,8.305
18632.717,8.294
18640.878,8.281
18649.014,8.255
18657.051,8.225
18664.993,8.202
18672.990,8.168
18681.490,8.145
18689.504,8.115
18697.537,8.091
18705.867,8.064
18714.001,8.045
18722.183,8.029
18730.337,8.015
18738.516,8.004
18746.643,8.011
18754.699,8.010
18763.109,8.007
18771.057,8.013
18779.149,8.014
18787.227,8.011
18795.058,8.008
18802.946,7.995
18811.152,7.960
18819.033,7.936
18826.896,7.908
18834.822,7.871
18842.656,7.833
18850.355,7.806
18858.307,7.760
18866.182,7.731
18874.220,7.698
18882.100,7.681
18889.785,7.649
18897.270,7.631
18904.917,7.611
18913.116,7.594
18920.802,7.579
18928.441,7.569
18936.014,7.547
18943.854,7.528
18951.334,7.515
18959.349,7.504
18967.394,7.468
18974.913,7.449
18982.488,7.429
18989.936,7.419
18997.921,7.407
19005.282,7.383
19012.560,7.374
19020.111,7.354
19028.080,7.333
19035.442,7.306
19043.066,7.266
19050.409,7.237
19057.991,7.204
19065.555,7.162
19072.556,7.108
19080.034,7.050
19087.369,6.959
19094.426,6.875
19101.280,6.791
19107.874,6.707
19114.464,6.646
19120.961,6.591
19127.604,6.584
19134.694,6.556
19141.458,6.558
19148.302,6.553
19155.333,6.594
19161.870,6.627
19168.495,6.687
19174.975,6.761
19182.362,6.858
19190.310,6.974
19197.941,7.076
19205.453,7.169
19212.642,7.254
19220.010,7.302
19227.679,7.336
19235.547,7.351
19243.199,7.390
19250.632,7.423
19258.226,7.466
19265.930,7.508
19273.880,7.534
19281.793,7.538
19289.666,7.534
19297.496,7.525
19305.367,7.493
19312.773,7.446
19320.342,7.409
19327.700,7.389
19335.566,7.377
19343.293,7.383
19350.446,7.400
19358.100,7.437
19365.720,7.467
19373.205,7.511
19381.048,7.551
19388.880,7.599
19396.449,7.627
19404.051,7.672
19411.640,7.710
19419.288,7.741
19426.951,7.795
19435.178,7.829
19443.142,7.887
19451.056,7.950
19459.027,8.010
19466.947,8.068
19475.496,8.113
19483.952,8.164
19492.487,8.198
19500.856,8.211
19509.191,8.220
19517.237,8.219
19525.461,8.216
19533.453,8.219
19541.671,8.222
19549.804,8.234
19558.028,8.254
19566.502,8.278
19574.957,8.301
19583.196,8.331
19591.517,8.353
19599.844,8.385
19608.070,8.409
19616.488,8.429
19624.980,8.446
19633.539,8.456
19641.866,8.462
19650.014,8.459
19658.441,8.449
19667.111,8.438
19675.524,8.411
19683.878,8.393
19692.371,8.375
19701.039,8.361
19709.598,8.352
19717.989,8.333
19726.404,8.330
19734.814,8.327
19743.136,8.318
19751.382,8.309
19759.665,8.280
19768.028,8.258
19776.657,8.211
19785.030,8.172
19793.114,8.105
19801.213,8.049
19809.032,8.007
19816.997,7.973
19824.750,7.974
19832.477,7.991
19840.838,8.047
19849.375,8.119
19857.565,8.219
19865.873,8.320
19874.346,8.428
19883.001,8.521
19891.781,8.603
19900.782,8.667
19909.881,8.717
19918.723,8.747
19927.748,8.754
19936.632,8.769
19945.339,8.764
19954.119,8.765
19962.712,8.769
19971.393,8.773
19980.309,8.782
19989.409,8.787
19998.244,8.784
20007.091,8.775
20015.962,8.765
20024.627,8.750
20033.495,8.752
20042.240,8.756
20050.611,8.764
20059.377,8.783
20068.260,8.798
20077.372,8.809
20086.163,8.806
20094.913,8.798
20103.600,8.782
20112.470,8.762
20121.004,8.730
20129.643,8.708
20138.438,8.675
20147.232,8.628
20156.036,8.582
20164.613,8.529
20173.517,8.457
20181.999,8.382
20190.477,8.311
20198.764,8.254
20206.903,8.202
20214.905,8.172
20223.113,8.159
20231.437,8.180
20239.683,8.207
20247.746,8.233
20256.048,8.258
20264.319,8.277
20272.762,8.277
20281.318,8.256
20289.288,8.226
20297.344,8.190
20305.778,8.142
20313.932,8.067
20322.003,8.004
20329.723,7.937
20337.390,7.849
20345.527,7.775
20353.361,7.700
20361.118,7.638
20368.944,7.562
20376.201,7.490
20383.605,7.429
20391.064,7.370
20398.581,7.311
20405.888,7.269
20413.202,7.215
20420.718,7.191
20427.984,7.170
20435.258,7.150
20442.356,7.132
20449.426,7.108
20456.631,7.101
20463.635,7.100
20470.763,7.085
20477.826,7.082
20484.671,7.088
20492.065,7.093
20499.404,7.119
20506.286,7.151
20513.660,7.186
20520.908,7.228
20528.437,7.274
20536.124,7.312
20543.524,7.339
20551.095,7.356
20558.558,7.379
20566.047,7.383
20573.379,7.380
20581.057,7.373
20588.658,7.373
20596.070,7.368
20603.746,7.347
20611.020,7.329
20618.352,7.315
20625.596,7.313
20633.115,7.313
20640.259,7.335
20647.731,7.373
20655.341,7.429
20662.786,7.490
20670.290,7.540
20677.808,7.595
20685.510,7.640
20693.243,7.666
20701.091,7.669
20709.007,7.668
20716.627,7.649
20724.271,7.625
20732.044,7.590
20739.702,7.557
20747.101,7.528
20754.534,7.491
20762.015,7.478
20769.369,7.455
20776.989,7.427
20784.495,7.388
20792.133,7.361
20799.487,7.314
20806.845,7.263
20814.067,7.224
20821.408,7.180
20828.710,7.151
20835.790,7.118
20842.842,7.102
20849.885,7.093
20856.878,7.076
20863.989,7.051
20871.194,7.017
20878.298,6.991
20885.468,6.938
20892.440,6.892
20899.304,6.826
20906.272,6.753
20913.130,6.691
20919.943,6.589
20926.700,6.517
20933.583,6.432
20939.916,6.382
20946.267,6.326
20952.801,6.278
20959.704,6.256
20966.506,6.200
20973.052,6.159
20979.374,6.093
20985.139,6.028
20991.224,5.958
20996.961,5.889
21002.871,5.857
21009.287,5.822
21015.283,5.819
21021.533,5.813
21027.284,5.812
21033.573,5.812
21040.077,5.815
21045.747,5.814
21051.928,5.817
21058.112,5.825
21064.259,5.826
21070.604,5.820
21076.664,5.807
21082.711,5.822
21088.890,5.834
21095.005,5.854
21100.260,5.919
21106.279,6.008
21112.799,6.106
21119.689,6.185
21126.489,6.240
21133.082,6.274
21139.387,6.285
21146.063,6.238
21152.122,6.195
21158.201,6.138
21164.638,6.097
21170.806,6.079
21177.200,6.076
21183.099,6.075
21189.243,6.076
21195.187,6.090
21201.605,6.117
21208.253,6.144
21214.637,6.171
21221.002,6.192
21227.359,6.195
21234.068,6.201
21240.509,6.184
21247.026,6.166
21253.312,6.145
21259.202,6.143
21265.456,6.146
21272.000,6.172
21278.612,6.205
21284.987,6.241
21291.733,6.265
21298.169,6.280
21304.868,6.276
21311.467,6.230
21317.805,6.181
21324.307,6.114
21329.960,6.047
21336.011,5.975
21342.098,5.924
21348.262,5.903
21354.560,5.898
21360.624,5.919
21366.622,5.973
21372.654,6.031
21378.871,6.104
21385.171,6.184
21391.670,6.259
21398.340,6.361
21404.724,6.439
21411.360,6.523
21418.374,6.598
21425.204,6.671
21432.429,6.723
21439.613,6.757
21446.514,6.791
21453.248,6.807
21460.080,6.804
21467.014,6.797
21473.857,6.802
21480.637,6.795
21487.698,6.802
21494.546,6.810
21501.328,6.815
21508.525,6.816
21515.383,6.818
21522.157,6.794
21528.925,6.766
21535.716,6.722
21542.602,6.674
21549.603,6.627
21556.275,6.563
21562.699,6.514
21569.416,6.444
21575.907,6.400
21582.490,6.325
21589.004,6.190
21595.636,6.068
21602.034,5.943
21608.153,5.784
21614.190,5.609
21619.250,5.464
21624.178,5.356
21629.237,5.263
21634.304,5.180
21639.712,5.149
21645.303,5.136
21650.570,5.156
21656.221,5.175
21661.673,5.202
21667.077,5.239
21672.901,5.291
21678.716,5.352
21684.042,5.444
21689.378,5.546
21695.385,5.643
21701.316,5.806
21707.461,5.914
21713.673,6.046
21720.245,6.149
21726.708,6.249
21733.223,6.345
21739.479,6.404
21745.894,6.472
21752.576,6.521
21759.292,6.572
21766.206,6.628
21772.892,6.665
21779.725,6.685
21786.516,6.706
21793.329,6.697
21800.473,6.680
21807.364,6.664
21814.170,6.652
21821.040,6.652
21828.096,6.658
21835.014,6.670
21842.064,6.709
21849.112,6.753
21856.358,6.792
21863.455,6.824
21870.535,6.864
21878.084,6.898
21885.495,6.917
21892.302,6.933
21899.238,6.936
21906.467,6.944
21913.567,6.948
21920.738,6.928
21927.961,6.912
21935.333,6.898
21942.190,6.877
21949.094,6.844
21956.057,6.819
21963.226,6.805
21970.303,6.795
21977.271,6.787
21984.074,6.800
21991.294,6.796
21998.200,6.780
22005.126,6.761
22012.460,6.736
22019.661,6.705
22026.395,6.666
22032.925,6.632
22040.016,6.617
22047.073,6.628
22053.841,6.655
22060.508,6.708
22067.617,6.770
22074.877,6.856
22082.065,6.937
22089.022,7.005
22096.249,7.072
22103.658,7.111
22111.016,7.159
22118.218,7.174
22125.652,7.180
22133.189,7.164
22140.650,7.132
22148.126,7.067
22155.149,7.001
22162.219,6.928
22169.198,6.839
22175.860,6.746
22182.823,6.651
22189.340,6.562
22196.073,6.476
22202.486,6.373
22208.748,6.293
22214.857,6.223
22220.943,6.157
22226.922,6.081
22232.889,6.018
22238.663,5.972
22244.793,5.910
22250.626,5.842
22256.208,5.741
22261.621,5.681
22267.386,5.605
22272.843,5.554
22278.324,5.513
22283.635,5.495
22289.119,5.515
22295.414,5.536
22301.243,5.562
22307.424,5.586
22312.973,5.609
22318.906,5.640
22325.005,5.643
22330.871,5.651
22336.626,5.651
22342.264,5.649
22348.135,5.667
22353.802,5.701
22359.260,5.734
22365.237,5.828
22371.200,5.914
22377.724,6.089
22384.059,6.218
22390.762,6.386
22397.325,6.579
22403.929,6.716
22410.956,6.884
22418.051,6.959
22425.285,7.040
22432.593,7.057
22439.933,7.043
22447.325,6.968
22454.392,6.888
22461.217,6.734
22467.992,6.428
22474.664,6.177
22481.125,5.692
22487.090,5.307
22492.147,4.672
22496.094,4.152
22499.218,3.722
22501.584,3.226
22504.032,2.940
22506.522,2.565
22508.509,2.433
22510.317,0.900
22514.914,3.565
22519.376,3.670
22523.651,3.748
22528.422,3.803
22532.973,3.790
22536.684,3.732
22540.630,3.677
22544.226,3.558
22548.228,3.434
22551.823,3.263
22554.665,3.158
22556.436,3.036
22561.322,3.440
22564.104,3.628
22567.955,3.802
22573.682,4.036
22578.556,4.238
22583.413,4.442
22587.963,4.675
22591.190,4.938
22594.991,5.319
22601.523,5.661
22608.594,6.063
22614.486,6.372
22621.181,6.688
22628.806,7.027
22636.268,7.176
22643.791,7.268
22650.983,7.312
22658.531,7.368
22666.115,7.403
22673.508,7.428
22680.832,7.462
22688.440,7.483
22696.059,7.505
22703.819,7.519
22711.668,7.530
22719.368,7.544
22726.929,7.553
22734.322,7.556
22742.114,7.572
22749.804,7.590
22757.556,7.628
22765.187,7.665
22772.841,7.706
22780.133,7.754
22788.072,7.789
22796.123,7.815
22803.626,7.829
22811.201,7.842
22819.166,7.845
22826.902,7.855
22834.595,7.842
22842.365,7.842
22850.256,7.837
22858.251,7.836
22866.008,7.835
22873.565,7.846
22881.281,7.869
22889.159,7.911
22897.227,7.979
22905.248,8.053
22913.753,8.150
22922.385,8.262
22930.817,8.376
22939.447,8.467
22948.173,8.538
22956.671,8.605
22965.427,8.629
22974.042,8.616
22982.629,8.590
22991.185,8.559
22999.639,8.514
23008.068,8.474
23016.103,8.447
23024.560,8.439
23032.748,8.458
23041.234,8.484
23049.768,8.533
23058.328,8.581
23066.942,8.627
23075.668,8.675
23084.482,8.696
23093.265,8.722
23102.066,8.728
23110.823,8.722
23119.422,8.700
23128.047,8.666
23137.115,8.628
23145.595,8.569
23154.006,8.489
23162.532,8.408
23170.935,8.340
23179.063,8.256
23187.242,8.162
23195.276,8.099
23203.275,8.061
23211.275,8.033
23219.331,8.011
23227.321,8.023
23235.465,8.044
23243.679,8.068
23251.737,8.106
23259.861,8.155
23268.060,8.212
23276.478,8.254
23284.887,8.308
23293.258,8.363
23301.805,8.410
23309.840,8.445
23318.260,8.470
23326.792,8.507
23335.505,8.527
23344.160,8.554
23352.817,8.587
23361.377,8.634
23370.061,8.670
23378.691,8.722
23387.592,8.784
23396.411,8.851
23405.219,8.921
23414.045,8.984
23423.027,9.080
23432.102,9.171
23441.669,9.275
23451.237,9.374
23460.689,9.489
23470.259,9.610
23480.000,9.714
23489.574,9.814
23499.171,9.910
23509.133,10.006
23519.419,10.077
23529.819,10.155
23540.239,10.207
23550.560,10.242
23560.964,10.250
23571.349,10.248
23581.625,10.220
23591.937,10.169
23601.971,10.099
23611.996,10.022
23621.888,9.939
23631.421,9.841
23641.087,9.744
23650.678,9.649
23660.526,9.546
23669.981,9.453
23679.442,9.366
23688.648,9.289
23698.014,9.210
23707.091,9.146
23716.246,9.105
23725.101,9.066
23734.114,9.037
23743.089,9.011
23751.997,9.000
23761.000,8.982
23770.099,8.967
23779.104,8.920
23788.856,8.876
23797.626,8.811
23806.519,8.719
23815.263,8.603
23824.276,8.444
23832.529,8.333
23840.764,8.175
23848.133,8.057
23856.067,7.950
23864.359,7.876
23871.239,7.840
23878.599,7.805
23885.883,7.814
23894.258,7.819
23902.338,7.835
23910.768,7.833
23918.271,7.829
23926.423,7.741
23934.801,7.582
23942.882,7.238
23950.701,6.948
23958.257,6.475
23965.369,5.891
23971.546,5.250
23976.543,4.680
23979.916,4.243
23984.362,3.769
23987.283,3.472
23990.155,3.278
23993.626,3.212
23996.872,3.148
23999.863,3.131
24004.691,4.959
24011.402,5.351
24018.153,5.778
24022.872,6.252
24028.545,6.700
24036.564,7.244
24044.829,7.714
24054.120,8.148
24063.399,8.511
24073.053,8.782
24081.265,9.041
24090.296,9.143
24098.864,9.274
24107.454,9.403
24117.062,9.511
24126.695,9.605
24136.193,9.701
24146.521,9.821
24155.747,9.903
24165.830,9.977
24176.095,10.039
24187.020,10.104
24197.004,10.136
24206.781,10.148
24216.247,10.150
24227.293,10.143
24236.536,10.119
24247.483,10.057
24258.143,9.981
24268.386,9.914
24278.725,9.815
24288.475,9.688
24298.407,9.562
24307.054,9.465
24315.513,9.375
24324.488,9.263
24333.111,9.172
24342.520,9.079
24351.404,9.004
24360.118,8.909
24368.887,8.811
24378.052,8.724
24386.594,8.646
24395.551,8.590
24404.413,8.542
24413.660,8.502
24421.975,8.490
24431.472,8.486
24439.572,8.468
24448.277,8.443
24457.247,8.415
24466.063,8.384
24473.713,8.330
24481.594,8.254
24489.643,8.196
24497.986,8.139
24506.245,8.029
24515.088,7.933
24521.558,7.822
24530.339,7.730
24538.060,7.622
24546.180,7.517
24554.491,7.457
24561.999,7.403
24569.218,7.351
24576.552,7.284
24584.610,7.221
24591.778,7.163
24599.945,7.098
24606.911,7.031
24613.704,6.997
24619.630,6.986
24627.367,7.033
24633.901,7.123
24641.088,7.233
24648.248,7.346
24657.177,7.480
24664.285,7.633
24671.113,7.746
24679.376,7.820
24687.043,7.918
24695.583,8.010
24703.345,8.059
24710.566,8.118
24718.535,8.186
24726.801,8.284
24735.466,8.341
24743.349,8.428
24751.742,8.495
24760.960,8.564
24769.418,8.615
24777.952,8.651
24786.601,8.689
24795.167,8.701
24804.077,8.737
24811.832,8.753
24820.515,8.790
24829.004,8.823
24837.337,8.858
24846.369,8.907
24856.046,8.934
24866.158,8.967
24875.399,8.968
24884.439,8.970
24893.301,8.926
24902.683,8.888
24911.587,8.822
24919.609,8.743
24928.645,8.675
24937.409,8.620
24945.822,8.588
24954.108,8.557
24962.647,8.550
24971.455,8.565
24980.181,8.577
24988.991,8.582
24997.629,8.582
25005.898,8.585
25014.476,8.593
25022.784,8.601
25030.969,8.595
25039.074,8.599
25048.451,8.567
25057.812,8.549
25067.123,8.462
25076.544,8.367
25085.485,8.272
25094.478,8.156
25102.496,8.067
25110.697,7.978
25118.821,7.949
25126.521,7.936
25134.206,7.941
25142.459,7.982
25151.282,8.026
25159.128,8.073
25165.708,8.115
25173.256,8.158
25181.924,8.169
25191.301,8.180
25200.194,8.134
25208.188,7.988
25217.175,7.844
25224.476,7.591
25232.633,7.245
25240.829,6.900
25247.427,6.512
25253.200,6.200
25258.884,5.794
25265.881,5.517
25271.507,5.311
25276.333,5.040
25281.758,4.819
25286.398,4.592
25290.901,4.383
25296.184,4.166
25300.604,4.009
25304.998,3.931
25310.617,3.949
25315.946,4.024
25321.056,4.323
25327.211,4.638
25332.477,5.020
25338.718,5.339
25345.452,5.710
25352.642,6.136
25360.870,6.356
25367.294,6.608
25373.137,6.833
25379.541,7.106
25386.720,7.283
25393.890,7.422
25402.090,7.589
25410.999,7.739
25419.788,7.848
25428.350,7.896
25436.589,7.936
25444.615,7.947
25452.280,7.936
25460.199,7.902
25467.809,7.864
25475.793,7.819
25482.398,7.781
25490.106,7.734
25498.866,7.693
25507.818,7.656
25516.707,7.623
25524.507,7.586
25532.569,7.567
25540.901,7.545
25548.950,7.519
25555.877,7.500
25564.376,7.484
25572.065,7.469
25579.928,7.450
25587.268,7.453
25594.830,7.469
25601.824,7.497
25609.548,7.539
25616.367,7.595
25624.642,7.659
25632.952,7.730
25640.977,7.780
25648.850,7.842
25656.710,7.886
25665.620,7.923
25672.967,7.955
25681.057,7.959
25689.539,7.960
25697.215,7.962
25705.682,7.955
25713.911,7.939
25722.353,7.938
25730.830,7.941
25738.786,7.951
25746.747,7.968
25755.299,7.987
25763.127,8.000
25771.330,8.003
25778.447,7.990
25785.844,7.944
25794.159,7.897
25803.176,7.832
25811.844,7.757
25819.092,7.646
25825.908,7.557
25834.483,7.453
25841.621,7.341
25848.535,7.234
25855.521,7.151
25862.656,7.100
25870.461,7.079
25877.195,7.088
25884.944,7.135
25893.202,7.197
25900.922,7.260
25908.388,7.340
25916.753,7.376
25924.037,7.394
25931.696,7.387
25938.009,7.366
25945.515,7.331
25952.731,7.251
25960.152,7.186
25966.966,7.129
25974.151,7.049
25980.256,6.994
25987.661,7.029
25995.161,7.062
26002.306,7.173
26010.090,7.353
26016.952,7.555
26024.953,7.835
26033.014,8.038
26041.695,8.325
26050.591,8.500
26059.328,8.678
26068.288,8.786
26078.711,8.835
26087.849,8.877
26097.312,8.863
26105.733,8.807
26115.557,8.748
26124.592,8.667
26134.028,8.575
26142.936,8.485
26150.637,8.411
26157.821,8.348
26166.114,8.281
26174.216,8.206
26183.117,8.112
26191.176,8.021
26200.211,7.920
26208.115,7.792
26216.903,7.611
26225.403,7.482
26232.764,7.300
26239.582,7.149
26246.914,6.924
26252.921,6.761
26259.188,6.577
26266.201,6.186
26272.361,5.917
26278.683,5.415
26283.902,4.915
26288.624,4.371
26292.828,3.806
26298.016,3.396
26300.680,2.962
26302.492,2.763
26305.316,2.846
26308.558,3.104
26311.269,3.427
26315.760,3.710
26319.928,3.986
26325.582,4.357
26330.596,4.661
26334.706,4.973
26340.477,5.351
26345.926,5.651
26351.962,6.013
26358.363,6.248
26363.883,6.480
26370.612,6.706
26377.903,6.838
26384.810,6.983
26392.201,7.064
26399.339,7.131
26406.215,7.166
26413.528,7.204
26420.522,7.215
26427.488,7.220
26435.272,7.223
26443.971,7.221
26452.252,7.222
26458.987,7.223
26465.927,7.223
26473.710,7.224
26480.387,7.221
26487.689,7.231
26495.656,7.240
26503.769,7.248
26510.930,7.260
26517.193,7.275
26524.529,7.288
26532.281,7.291
26539.721,7.304
26546.089,7.309
26553.965,7.314
26561.119,7.320
26568.066,7.320
26575.105,7.305
26581.848,7.292
26588.788,7.260
26596.215,7.220
26604.053,7.163
26610.609,7.100
26618.584,7.039
26626.528,6.970
26633.580,6.886
26640.836,6.803
26646.937,6.745
26653.604,6.669
26660.481,6.584
26667.403,6.500
26674.113,6.422
26680.599,6.337
26686.380,6.252
26692.627,6.170
26699.157,6.075
26705.609,5.970
26711.971,5.866
26718.689,5.794
26724.631,5.707
26729.722,5.652
26734.674,5.597
26739.401,5.576
26744.950,5.560
26751.330,5.549
26757.276,5.538
26762.580,5.525
26768.797,5.525
26774.399,5.524
26780.123,5.519
26785.611,5.500
26791.033,5.500
26796.533,5.495
26801.842,5.486
26807.855,5.462
26814.177,5.440
26820.325,5.421
26826.189,5.394
26832.107,5.370
26838.153,5.350
26843.292,5.338
26848.457,5.335
26853.370,5.336
26858.797,5.336
26864.970,5.343
26869.461,5.367
26874.934,5.388
26879.294,5.410
26883.991,5.445
26889.633,5.471
26896.248,5.500
26902.157,5.540
26907.003,5.565
26913.027,5.598
26918.996,5.622
26924.489,5.644
26929.670,5.656
26935.934,5.666
26941.819,5.672
26947.724,5.670
26953.269,5.670
26958.670,5.683
26964.759,5.702
26969.789,5.746
26976.429,5.795
26982.160,5.852
26987.553,5.916
26993.463,5.976
26999.123,6.022
27005.404,6.047
27011.693,6.071
27017.776,6.081
27023.939,6.073
27031.049,6.041
27037.607,6.007
27043.085,5.920
27048.856,5.795
27053.909,5.684
27060.069,5.533
27065.589,5.394
27071.093,5.252
27075.806,5.152
27081.337,5.104
27086.565,5.034
27091.749,5.001
27096.054,4.974
27101.612,4.942
27106.227,4.885
27111.385,4.797
27116.733,4.724
27121.369,4.643
27125.238,4.567
27129.004,4.469
27133.389,4.367
27137.797,4.292
27142.408,4.213
27147.879,4.138
27151.348,4.074
27154.760,4.041
27158.594,4.044
27162.808,4.059
27166.566,4.106
27170.331,4.169
27174.651,4.239
27179.094,4.305
27183.498,4.366
27187.965,4.420
27192.536,4.442
27197.041,4.455
27201.714,4.461
27206.472,4.473
27211.003,4.482
27215.135,4.496
27219.052,4.556
27222.783,4.618
27227.860,4.691
27233.110,4.792
27237.978,4.883
27243.460,5.017
27248.459,5.111
27253.713,5.205
27259.305,5.344
27264.188,5.429
27269.579,5.560
27275.488,5.667
27281.724,5.774
27287.582,5.883
27293.902,5.948
27299.733,6.017
27305.482,6.066
27311.382,6.126
27317.564,6.186
27323.767,6.251
27330.283,6.326
27337.248,6.436
27343.587,6.540
27350.108,6.633
27356.617,6.721
27363.355,6.820
27370.123,6.942
27377.448,7.037
27385.031,7.160
27392.495,7.297
27400.500,7.468
27407.820,7.654
27414.868,7.811
27422.122,8.034
27430.559,8.298
27438.421,8.510
27447.318,8.756
27457.329,8.991
27467.159,9.250
27477.190,9.467
27486.890,9.611
27495.763,9.797
27505.301,9.920
27515.830,10.016
27524.890,10.055
27535.398,10.061
27545.990,9.946
27555.704,9.829
27566.069,9.568
27576.332,9.281
27585.409,9.018
27593.647,8.656
27602.194,8.360
27610.624,7.979
27619.415,7.745
27627.703,7.515
27634.269,7.292
27641.151,7.204
27647.232,7.150
27654.157,7.180
27660.891,7.237
27668.214,7.360
27675.433,7.531
27684.617,7.672
27693.206,7.824
27701.901,7.938
27710.045,8.074
27717.812,8.128
27726.231,8.171
27734.977,8.223
27743.097,8.251
27751.444,8.280
27759.600,8.304
27767.312,8.337
27775.199,8.364
27783.417,8.393
27791.643,8.427
27800.000,8.460
27808.915,8.493
27816.994,8.507
27826.581,8.519
27836.338,8.513
27845.493,8.483
27854.998,8.449
27863.841,8.402
27872.538,8.366
27880.527,8.318
27888.237,8.267
27897.332,8.242
27905.870,8.188
27914.168,8.143
27921.986,8.078
27929.803,8.002
27937.684,7.922
27945.522,7.843
27953.291,7.769
27961.532,7.694
27968.708,7.638
27976.428,7.591
27983.759,7.570
27991.067,7.545
27998.607,7.537
28007.052,7.519
28014.058,7.512
28021.379,7.506
28028.910,7.498
28036.548,7.493
28044.297,7.471
28051.954,7.461
28059.832,7.431
28067.661,7.408
28075.205,7.369
28082.074,7.322
28089.816,7.275
28096.786,7.234
28103.812,7.202
28110.956,7.156
28117.460,7.134
28124.527,7.125
28131.846,7.111
28139.392,7.097
28146.842,7.083
28153.610,7.071
28161.192,7.060
28168.425,7.051
28174.591,7.047
28181.351,7.053
28188.714,7.044
28196.644,7.062
28203.284,7.067
28210.550,7.074
28217.541,7.068
28223.932,7.054
28230.977,7.034
28238.537,7.001
28245.474,6.961
28252.791,6.886
28259.354,6.833
28265.621,6.755
28272.698,6.687
28279.917,6.591
28286.367,6.541
28293.459,6.504
28299.673,6.496
28306.425,6.550
28312.799,6.605
28319.120,6.684
28326.191,6.756
28333.679,6.835
28340.870,6.873
28348.418,6.856
28355.333,6.810
28362.016,6.726
28368.674,6.631
28375.618,6.546
28382.507,6.413
28388.979,6.304
28395.128,6.139
28401.645,6.019
28407.531,5.860
28413.265,5.689
28418.590,5.583
28423.300,5.482
28429.003,5.441
28434.452,5.423
28440.571,5.460
28445.715,5.512
28451.466,5.578
28457.367,5.641
28463.257,5.791
28469.227,5.879
28474.416,6.030
28480.562,6.231
28486.812,6.409
28493.882,6.644
28501.469,6.797
28508.125,7.009
28514.912,7.169
28522.973,7.262
28530.268,7.390
28539.050,7.451
28547.521,7.516
28553.630,7.541
28560.730,7.541
28569.029,7.495
28577.015,7.442
28585.010,7.356
28592.615,7.259
28599.362,7.133
28606.384,7.019
28613.969,6.922
28621.057,6.819
28627.978,6.743
28635.426,6.679
28641.764,6.646
28648.982,6.658
28655.890,6.678
28663.144,6.745
28669.609,6.831
28675.858,6.934
28682.969,7.040
28690.870,7.105
28698.258,7.161
28705.226,7.170
28712.432,7.158
28718.570,7.131
28725.601,7.092
28732.748,7.065
28740.117,7.071
28748.560,7.088
28756.080,7.122
28763.120,7.160
28770.449,7.217
28776.675,7.252
28783.490,7.286
28790.411,7.304
28798.162,7.319
28806.309,7.307
28813.959,7.284
28821.684,7.235
28829.179,7.193
28836.753,7.150
28843.695,7.083
28850.312,7.037
28857.354,6.977
28864.510,6.932
28871.217,6.878
28878.883,6.823
28885.055,6.758
28891.471,6.695
28898.266,6.631
28904.728,6.555
28911.806,6.460
28917.539,6.324
28923.385,6.233
28930.559,6.057
28937.329,5.841
28943.984,5.630
28948.697,5.339
28954.838,5.125
28959.470,4.884
28964.578,4.696
28969.724,4.567
28973.781,4.510
28978.439,4.515
28983.019,4.575
28989.039,4.693
28994.353,4.798
28999.678,4.892
29005.826,4.958
29012.279,5.027
29018.949,4.994
29024.605,4.856
29029.209,4.648
29033.717,4.440
29038.511,4.031
29043.005,3.664
29047.132,3.205
29053.290,2.766
29056.302,2.057
29059.112,1.877
29062.288,1.643
29065.587,1.639
29069.195,1.629
29070.219,1.792
29079.950,2.874
29086.217,3.241
29091.137,3.535
29096.935,3.656
29100.812,3.645
29103.496,3.553
29108.335,3.406
29111.849,3.190
29116.099,2.996
29119.136,2.793
29122.750,2.597
29124.568,2.428
29127.877,2.329
29131.329,2.356
29136.192,2.375
29140.611,2.375
29144.138,2.368
29149.835,2.346
29153.639,2.319
29157.809,2.130
" /><polyline class="data" points="
" />
<!-- CUT -->
<!-- RANGE 0.0,0.8923826821649169 29157.808894407488,10.828365551233581 -->



<animateTransform attributeName="transform" type="scale" fill="freeze" values="0.03429612985054585 -22.36539909041247" />
<animateTransform attributeName="transform" type="translate" fill="freeze" additive="sum" values="-14578.904447203744 -5.86037411669925" />
<line class="grid" x1="2500.000" y1="0.271" x2="2500.000" y2="11.449" />
<line class="grid" x1="5000.000" y1="0.271" x2="5000.000" y2="11.449" />
<line class="grid" x1="7500.000" y1="0.271" x2="7500.000" y2="11.449" />
<line class="grid" x1="10000.000" y1="0.271" x2="10000.000" y2="11.449" />
<line class="grid" x1="12500.000" y1="0.271" x2="12500.000" y2="11.449" />
<line class="grid" x1="15000.000" y1="0.271" x2="15000.000" y2="11.449" />
<line class="grid" x1="17500.000" y1="0.271" x2="17500.000" y2="11.449" />
<line class="grid" x1="20000.000" y1="0.271" x2="20000.000" y2="11.449" />
<line class="grid" x1="22500.000" y1="0.271" x2="22500.000" y2="11.449" />
<line class="grid" x1="25000.000" y1="0.271" x2="25000.000" y2="11.449" />
<line class="grid" x1="27500.000" y1="0.271" x2="27500.000" y2="11.449" />
<line class="grid" x1="0.000" y1="2.778" x2="29157.809" y2="2.778" />
<line class="grid" x1="0.000" y1="5.556" x2="29157.809" y2="5.556" />
<line class="grid" x1="0.000" y1="8.333" x2="29157.809" y2="8.333" />
<line class="grid" x1="0.000" y1="11.111" x2="29157.809" y2="11.111" />
<defs>
<pattern id="smallGrid" patternUnits="userSpaceOnUse" width="500.0" height="0.5555555555555556">
<polyline class="grid" points="0,0 500.0,0 500.0,0.5555555555555556" />
</pattern>
</defs>
<rect class="frame" fill="url(#smallGrid)" x="0.0" y="0.2713837528481253" width="29157.808894407488" height="11.177980727702248" />
<g xml:space="preserve" transform="translate(14578.904447203744 5.86037411669925) scale(29.157808894407488 -0.04471192291080899)">
<text class="markerArg" font-size="13.0" x="-414.260" y="125.000">2,5</text>
<text class="markerArg" font-size="13.0" x="-328.519" y="125.000">5</text>
<text class="markerArg" font-size="13.0" x="-242.779" y="125.000">7,5</text>
<text class="markerArg" font-size="13.0" x="-157.039" y="125.000">10</text>
<text class="markerArg" font-size="13.0" x="-71.298" y="125.000">12,5</text>
<text class="markerArg" font-size="13.0" x="14.442" y="125.000">15</text>
<text class="markerArg" font-size="13.0" x="100.182" y="125.000">17,5</text>
<text class="markerArg" font-size="13.0" x="185.923" y="125.000">20</text>
<text class="markerArg" font-size="13.0" x="271.663" y="125.000">22,5</text>
<text class="markerArg" font-size="13.0" x="357.403" y="125.000">25</text>
<text class="markerArg" font-size="13.0" x="443.144" y="125.000">27,5</text>
<text class="markerVal" font-size="13.0" x="-500.000" y="68.943">10 </text>
<text class="markerVal" font-size="13.0" x="-500.000" y="6.817">20 </text>
<text class="markerVal" font-size="13.0" x="-500.000" y="-55.309">30 </text>
<text class="markerVal" font-size="13.0" x="-500.000" y="-117.435">40 </text>
<text class="labelArg" font-size="15.0" x="0.000" y="150.000">Расстояние [км]</text>
<text class="labelVal" font-size="15.0" x="-500.000" y="-150.000">Скорость [км/ч.]</text>
<text class="title" font-size="20.0" x="0.000" y="-235.000">Urban Biker – Road – 5 Ноя 2015 г. 20:25</text>
<a target="_blank" xlink:href="https://play.google.com/store/apps/details?id=com.sublimis.urbanbiker">
<text class="about" font-size="11.0" x="0.000" y="235.000">Created with Urban Biker — 5 Ноя 2015 г. 21:44</text>
</a>
</g>

</g>
</svg>
