<svg
	xmlns="http://www.w3.org/2000/svg" xmlns:xlink="http://www.w3.org/1999/xlink"
	width="1200" height="500" preserveAspectRatio="none"
	viewBox="-600 -250 1200 500"
	>

<defs><style type="text/css"><![CDATA[
	.data {stroke: red; stroke-width: 1; stroke-linecap: round; stroke-linejoin: round; vector-effect: non-scaling-stroke; fill:none;}
	.frame {stroke: gray; stroke-width: 2; stroke-opacity: 1; vector-effect: non-scaling-stroke;}
	.grid {stroke: black; stroke-width: 1; stroke-opacity: 0.17; vector-effect: non-scaling-stroke; fill:none;}
	.markerArg {text-anchor: middle; dominant-baseline: text-before-edge; font-family: Verdana; fill: black; fill-opacity: 0.60; stroke-width: 0; stroke-opacity: 0.60; vector-effect: non-scaling-stroke;}
	.markerVal {text-anchor: end; dominant-baseline: middle; font-family: Verdana; fill: black; fill-opacity: 0.60; stroke-width: 0; stroke-opacity: 0.60; vector-effect: non-scaling-stroke;}
	.labelArg {text-anchor: middle; dominant-baseline: text-before-edge; font-family: Verdana; fill: black; fill-opacity: 0.60; stroke-width: 0; stroke-opacity: 0.60; vector-effect: non-scaling-stroke;}
	.labelVal {text-anchor: middle; font-family: Verdana; fill: black; fill-opacity: 0.60; stroke-width: 0; stroke-opacity: 0.60; vector-effect: non-scaling-stroke;}
	.title {text-anchor: middle; dominant-baseline: hanging; font-family: Verdana; fill: black; fill-opacity: 0.90; stroke-width: 0; stroke-opacity: 0.90; vector-effect: non-scaling-stroke;}
	.about {text-anchor: middle; font-weight: bold; font-style: italic; font-family: Verdana; fill: black; fill-opacity: 0.60; stroke-width: 0; stroke-opacity: 0.60; vector-effect: non-scaling-stroke;}
	]]></style></defs>


<metadata>
<rdf:RDF xmlns:rdf="http://www.w3.org/1999/02/22-rdf-syntax-ns#" xmlns:dc="http://purl.org/dc/elements/1.1/">
<rdf:Description>
<dc:creator>Urban Biker</dc:creator>
<dc:description>Расстояние [км] — Мощность [Ватт]</dc:description>
<dc:title>Urban Biker – Road – 5 Ноя 2015 г. 20:25</dc:title>
<dc:date>2015-11-05T18:26:00.462Z</dc:date>
<dc:subject>Road</dc:subject>
<dc:type>distance-power</dc:type>
</rdf:Description>
</rdf:RDF>
</metadata>

<g>

<polyline class="data" points="
0.000,-0.363
48.728,-143.422
53.119,-122.832
57.801,-132.061
66.785,-147.152
70.181,-150.346
73.443,-150.935
81.670,-210.304
81.739,-154.051
113.896,-33.885
116.394,-2.768
117.559,4.583
121.097,46.017
122.280,55.235
123.452,69.351
128.155,63.910
129.745,77.118
137.555,78.137
140.959,78.252
146.851,79.107
152.027,79.217
154.667,85.246
157.521,90.425
160.385,98.257
163.300,105.314
184.651,102.118
188.153,109.611
199.645,177.725
205.161,209.152
211.511,232.656
219.191,246.599
223.161,260.420
231.149,272.050
243.046,262.301
246.576,264.164
253.688,256.910
264.732,234.248
268.509,230.235
280.152,204.335
287.566,183.249
294.464,173.914
301.600,168.992
304.932,168.469
315.736,171.241
322.773,185.871
330.026,202.713
333.194,210.586
339.013,247.449
344.232,297.788
352.969,375.067
355.707,397.365
364.039,473.000
367.466,473.912
378.196,509.371
385.448,503.251
393.011,481.744
400.701,457.460
404.311,431.470
415.500,394.137
422.608,374.294
425.880,356.462
436.077,348.680
442.772,356.723
445.879,348.915
455.779,357.844
458.780,353.789
464.953,354.311
475.507,345.110
482.051,322.493
489.144,303.332
493.164,273.086
501.283,235.710
509.074,195.758
519.416,161.704
522.173,142.900
528.080,137.107
536.385,160.355
541.543,189.005
547.273,226.940
550.529,246.057
557.873,273.986
570.180,309.759
578.745,293.956
583.104,292.299
591.498,268.927
603.078,211.115
610.791,163.353
618.034,123.733
621.656,106.004
629.173,58.411
636.701,1.598
643.940,-47.093
654.300,-126.234
661.580,-157.402
664.610,-167.768
672.682,-198.610
678.000,-209.739
680.993,-189.123
689.965,-168.684
693.005,-150.943
702.572,-121.190
705.460,-107.187
714.147,-90.022
717.314,-81.622
726.678,-66.839
729.493,-61.321
735.049,-61.717
742.488,-63.722
744.590,-59.465
749.217,-72.287
754.383,-84.698
763.086,-108.655
765.806,-118.427
773.554,-143.002
776.090,-133.022
783.500,-91.081
787.689,-37.478
789.503,-17.036
793.336,59.520
798.554,142.774
805.449,225.176
816.177,355.549
823.581,429.020
829.222,436.547
844.555,469.007
848.915,474.606
857.579,461.073
861.918,421.586
861.935,364.341
861.997,265.080
879.865,220.437
906.915,105.951
915.604,43.583
919.979,-2.996
928.144,-74.620
935.345,-127.067
942.245,-177.311
949.110,-199.427
958.898,-232.748
964.716,-202.242
967.581,-202.601
973.491,-177.187
978.253,-118.910
981.862,-74.417
988.076,-4.436
990.278,14.746
997.498,68.431
1002.301,94.062
1005.036,93.828
1014.094,115.945
1017.110,111.992
1026.244,112.347
1029.459,109.316
1036.008,101.634
1046.029,98.403
1049.192,93.646
1055.856,88.069
1062.589,81.101
1072.231,69.095
1078.840,49.605
1085.524,28.773
1092.811,-10.198
1099.627,-46.108
1103.366,-58.964
1114.723,-123.901
1118.455,-137.432
1125.376,-170.116
1134.849,-202.160
1138.561,-190.703
1144.475,-179.298
1150.962,-129.499
1153.716,-106.314
1159.070,-51.749
1164.298,-3.601
1170.023,53.566
1180.372,115.326
1184.026,126.348
1194.762,147.120
1201.349,143.765
1209.075,133.978
1218.099,113.073
1226.826,96.049
1235.184,76.576
1242.426,56.764
1250.182,32.087
1258.492,18.419
1461.103,58.585
1466.157,64.329
1470.809,101.007
1475.361,147.192
1482.660,173.624
1487.200,190.146
1489.559,190.022
1496.463,250.020
1499.983,247.822
1501.645,254.056
1506.238,269.869
1508.038,322.219
1508.601,334.115
1509.166,343.092
1509.447,343.393
1510.016,350.829
1510.576,357.283
1511.142,361.925
1511.709,366.679
1512.273,370.822
1513.126,380.349
1513.685,383.407
1513.965,382.834
1514.244,378.786
1514.530,371.729
1514.809,364.730
1515.093,357.425
1515.376,349.390
1515.659,341.328
1515.941,333.439
1516.222,326.864
1516.504,321.234
1516.789,316.260
1517.072,311.303
1517.354,306.333
1517.636,304.621
1517.919,300.806
1518.202,297.272
1518.483,294.647
1518.767,291.486
1519.048,289.383
1519.327,287.394
1519.610,286.425
1519.895,284.781
1520.167,282.943
1520.458,285.406
1520.739,283.607
1521.024,282.082
1521.303,280.690
1521.587,279.544
1580.204,371.610
1591.765,213.491
1598.163,234.466
1602.698,215.139
1604.727,224.760
1610.685,230.335
1615.525,259.554
1617.878,270.709
1623.074,287.581
1632.257,287.292
1653.368,207.865
1661.910,144.427
1667.823,112.658
1673.618,83.308
1679.677,53.677
1685.573,33.736
1691.049,17.524
1693.403,19.731
1725.567,121.700
1729.066,141.105
1734.313,170.162
1737.768,182.004
1739.738,186.229
1744.040,192.516
1749.403,202.658
1754.059,207.839
1757.477,208.847
1760.948,206.432
1764.199,205.162
1767.263,214.900
1772.004,219.497
1774.691,221.772
1777.587,226.161
1778.979,226.324
1783.551,227.373
1787.097,230.628
1790.505,229.061
1793.514,230.738
1796.523,233.213
1798.654,236.130
1802.088,239.442
1803.810,238.080
1808.995,244.207
1810.712,242.238
1814.046,244.855
1817.157,246.423
1820.281,248.815
1824.661,254.035
1827.604,256.361
1829.130,255.383
1832.283,258.115
1833.814,259.821
1835.153,261.428
1841.836,280.601
1843.157,280.752
1847.210,263.868
1849.886,262.834
1852.543,263.043
1853.878,263.958
1857.900,260.663
1860.320,259.120
1861.422,261.514
1862.558,263.759
1863.903,266.969
1865.282,269.403
1865.287,272.152
1865.312,274.352
1867.839,276.009
1873.031,320.934
1882.748,287.233
1885.584,285.385
1887.174,285.273
1891.978,281.729
1893.754,279.351
1897.271,275.317
1900.545,274.985
1905.557,266.600
1907.562,265.501
1911.455,267.860
1917.293,273.523
1918.663,274.963
1921.150,272.046
1923.017,275.874
1924.548,279.656
1926.436,282.806
1928.975,284.229
1933.490,286.894
1934.857,286.763
1939.211,288.678
1940.829,290.075
1944.095,288.890
1947.613,288.464
1953.135,290.550
1956.797,293.931
1958.292,295.969
1962.260,299.417
1964.970,300.673
1967.976,298.119
1969.414,298.371
1974.685,296.190
1977.729,299.502
1982.550,296.531
1984.230,296.586
1989.026,294.575
1990.507,293.985
1993.001,297.733
1996.319,302.552
1998.374,308.586
1999.595,309.391
2003.714,312.989
2005.678,314.178
2007.760,311.647
2010.090,309.103
2011.295,304.198
2014.685,298.793
2015.959,297.698
2018.457,297.924
2020.729,296.503
2023.422,299.561
2024.732,302.459
2027.285,301.336
2029.541,303.073
2033.084,307.298
2035.632,308.426
2036.714,304.169
2040.185,301.924
2041.345,297.818
2045.715,295.845
2047.326,292.318
2051.176,291.292
2053.608,293.712
2055.254,288.999
2058.598,283.785
2063.471,277.885
2064.684,273.317
2067.101,266.425
2069.190,268.568
2071.271,271.029
2074.225,267.849
2075.966,264.442
2078.649,266.458
2079.982,270.401
2082.515,270.221
2086.285,258.598
2087.401,255.994
2090.064,247.406
2093.041,240.361
2186.013,132.755
2188.209,133.088
2192.188,147.614
2194.831,168.574
2197.192,169.249
2199.621,175.586
2201.489,188.199
2203.220,186.508
2204.761,188.794
2205.965,191.160
2206.123,193.169
2206.198,191.901
2206.351,187.256
2206.579,185.946
2206.730,181.532
2206.883,174.880
2207.036,165.323
2207.185,163.837
2207.340,159.975
2207.492,155.771
2207.568,153.307
2207.644,150.623
2207.720,147.826
2207.796,145.029
2207.872,142.125
2207.948,141.336
2208.025,136.679
2208.101,136.325
2208.177,131.785
2208.253,125.499
2208.329,122.217
2208.404,119.599
2208.481,112.309
2208.557,107.174
2208.632,103.547
2208.709,96.495
2208.786,90.633
2208.862,86.070
2208.938,78.922
2209.014,74.840
2209.089,67.653
2209.165,63.170
2209.240,57.575
2209.317,51.093
2209.393,44.462
2209.469,37.087
2209.545,29.205
2209.621,19.446
2209.697,11.253
2209.773,2.740
2247.071,135.228
2251.871,85.910
2254.481,75.079
2264.661,52.531
2270.588,19.970
2276.789,-6.727
2282.361,-50.008
2290.824,-78.979
2299.112,-114.754
2301.852,-121.787
2307.490,-133.624
2316.347,-155.243
2322.416,-166.843
2328.910,-178.142
2332.099,-182.329
2338.676,-197.936
2345.213,-213.058
2355.333,-240.792
2358.622,-242.066
2368.558,-267.816
2371.943,-270.727
2378.366,-280.308
2387.811,-294.828
2393.713,-297.890
2399.952,-303.816
2403.142,-286.907
2409.400,-281.410
2417.961,-287.687
2423.364,-270.142
2426.016,-256.974
2434.534,-219.061
2437.512,-199.687
2443.614,-167.728
2449.979,-128.350
2460.670,-103.402
2464.623,-81.408
2472.783,-67.144
2481.263,-66.685
2489.260,-84.253
2500.179,-127.495
2504.201,-139.991
2516.049,-199.171
2523.953,-234.263
2532.036,-260.760
2540.332,-294.434
2544.271,-298.897
2556.845,-328.927
2564.255,-339.807
2571.984,-355.719
2579.448,-358.792
2581.947,-360.916
2590.197,-366.632
2596.004,-358.281
2601.890,-354.151
2607.537,-336.085
2610.287,-330.530
2618.811,-290.303
2624.189,-269.618
2629.424,-249.836
2634.679,-226.193
2640.373,-212.261
2643.237,-207.377
2651.581,-191.214
2654.219,-188.401
2662.035,-176.761
2662.111,-172.874
2670.353,-173.180
2684.319,-172.415
2686.755,-175.965
2693.946,-177.101
2698.791,-178.087
2703.747,-174.490
2706.085,-175.362
2710.740,-170.804
2717.579,-157.039
2722.327,-155.469
2726.972,-140.836
2731.636,-107.288
2736.421,-95.457
2746.025,-81.830
2748.318,-75.617
2754.968,-63.049
2758.907,-57.444
2760.836,-55.055
2762.743,-52.057
2766.654,-50.520
2773.045,-46.353
2775.446,-45.485
2775.624,-34.624
2787.385,-12.220
2791.785,6.242
2797.167,19.878
2799.743,41.373
2804.390,59.532
2808.397,88.583
2813.782,109.738
2815.905,139.349
2822.957,172.643
2829.280,201.598
2834.583,230.870
2837.236,241.916
2842.182,257.701
2846.584,272.661
2848.787,298.700
3022.879,101.712
3025.452,117.746
3087.617,54.081
3087.649,57.546
3087.682,60.220
3087.714,62.200
3087.746,63.495
3087.779,66.030
3087.811,68.661
3087.843,72.027
3087.877,74.655
3087.909,77.265
3087.941,79.199
3087.974,79.954
3088.006,80.576
3088.039,78.042
3088.072,80.312
3088.104,79.155
3088.137,70.302
3088.169,66.296
3088.201,66.157
3088.234,62.427
3088.267,55.662
3088.332,53.767
3088.364,51.691
3088.397,47.690
3088.429,45.848
3088.462,45.805
3088.495,44.633
3088.527,43.341
3088.560,40.174
3088.592,39.142
3088.625,37.466
3088.657,35.625
3088.690,34.331
3088.722,31.616
3088.755,28.435
3088.787,26.897
3088.820,24.175
3088.852,20.403
3088.885,18.266
3088.917,14.967
3088.950,11.016
3088.982,6.914
3089.015,2.522
3089.048,-5.286
3089.080,-12.380
3089.113,-15.229
3089.145,-19.462
3089.178,-23.021
3089.210,-26.753
3089.242,-29.339
3143.489,-139.003
3148.873,-180.839
3148.924,-210.328
3161.058,-253.676
3164.603,-266.114
3171.278,-302.668
3172.605,-334.916
3173.516,-335.529
3175.931,-341.176
3177.282,-335.035
3177.293,-296.088
3180.625,-274.837
3182.316,-247.036
3184.257,-233.309
3186.261,-210.217
3187.198,-198.017
3190.341,-160.046
3191.286,-147.177
3194.524,-122.428
3196.146,-113.448
3201.493,-89.655
3201.504,-87.324
3205.924,-70.682
3213.025,-49.478
3219.944,-12.972
3224.997,11.013
3229.752,49.888
3232.524,81.817
3241.134,156.482
3244.575,165.517
3258.774,206.250
3263.766,218.821
3274.209,226.409
3287.911,211.661
3300.615,190.320
3313.513,148.124
3317.260,139.191
3329.839,122.605
3339.349,115.619
3348.166,123.111
3356.678,128.815
3360.791,136.033
3374.159,138.054
3382.814,147.533
3391.968,133.906
3396.295,127.034
3404.735,110.849
3412.758,97.186
3425.172,78.897
3428.994,75.465
3436.227,71.388
3443.378,79.461
3450.637,83.662
3457.959,91.651
3465.794,90.944
3478.804,83.468
3487.460,68.300
3491.887,60.595
3499.861,48.765
3506.892,36.718
3513.996,49.144
3524.325,91.428
3527.384,126.075
3533.512,184.685
3539.515,260.474
3550.398,368.874
3557.833,390.519
3572.589,451.606
3580.828,455.967
3585.067,454.073
3597.169,425.799
3605.825,397.626
3613.488,357.729
3620.609,329.318
3624.495,319.262
3632.382,305.107
3644.667,299.730
3652.372,300.997
3656.267,305.474
3668.853,308.445
3673.023,309.945
3681.424,311.263
3689.565,305.724
3697.647,296.502
3701.870,285.844
3718.529,280.553
3726.384,271.479
3730.517,266.661
3743.241,258.112
3747.226,259.351
3751.250,253.212
3762.839,218.973
3778.357,196.615
3786.635,167.944
3794.948,138.642
3806.542,83.921
3813.987,49.549
3817.448,39.628
3824.457,15.474
3833.341,14.426
3835.889,11.124
3843.571,32.756
3848.221,63.429
3852.571,96.198
3854.676,124.822
3858.627,169.118
3863.680,244.559
3866.409,291.339
3869.978,338.988
3874.450,384.337
3877.300,404.215
3883.125,437.522
3889.529,462.636
3895.937,473.408
3902.096,485.031
3905.219,483.427
3911.960,474.783
3922.900,466.661
3930.590,456.838
3937.583,445.488
3944.883,432.049
3955.923,416.321
3963.694,397.901
3967.556,389.636
3979.576,367.007
3983.498,356.046
3991.375,341.806
3995.154,324.916
4002.470,322.204
4013.989,319.083
4025.251,323.104
4032.967,332.184
4040.365,343.426
4043.743,345.555
4050.925,352.958
4054.632,356.076
4069.736,356.140
4073.602,349.022
4081.273,339.712
4089.138,328.465
4101.218,302.079
4105.173,292.868
4116.927,269.746
4124.166,261.523
4131.285,255.074
4134.831,255.407
4141.827,251.145
4152.516,243.816
4159.835,232.827
4163.433,231.760
4170.611,206.897
4181.827,162.845
4185.268,138.584
4192.173,91.691
4202.024,28.538
4208.451,-9.052
4211.650,-20.009
4217.722,-36.464
4222.781,-38.516
4227.104,-25.718
4233.109,12.387
4236.698,44.948
4239.913,75.258
4243.676,99.355
4247.876,121.846
4249.969,125.915
4254.184,138.110
4260.196,151.505
4261.969,157.105
4267.863,166.240
4270.051,179.240
4274.252,207.833
4278.288,235.662
4284.680,278.635
4398.048,227.321
4438.001,130.529
4453.416,85.430
4457.241,59.812
4464.551,14.920
4471.665,-35.499
4482.442,-103.796
4485.903,-120.750
4492.319,-146.669
4497.442,-162.206
4504.026,-158.186
4505.980,-149.428
4512.380,-117.393
4517.883,-98.141
4520.353,-86.983
4524.980,-72.472
4529.063,-58.936
4533.286,-51.041
4537.969,-44.669
4540.266,-41.874
4540.502,-30.491
4541.217,-29.413
4541.696,-30.294
4541.934,-29.991
4542.652,-29.426
4543.130,-30.612
4543.607,-31.631
4544.087,-33.942
4544.566,-36.474
4544.805,-36.652
4545.285,-38.534
4545.526,-38.928
4545.762,-38.798
4546.000,-38.862
4546.240,-38.341
4546.477,-37.991
4546.717,-35.655
4546.957,-33.045
4547.194,-30.232
4547.435,-27.258
4547.676,-24.046
4547.913,-21.187
4548.152,-18.284
4548.408,20.553
4549.478,26.675
4550.529,33.100
4572.092,27.842
4573.827,25.607
4575.579,24.107
4577.233,22.243
4578.873,20.121
4587.986,13.625
4589.430,15.121
4594.121,26.495
4595.577,28.830
4600.112,40.670
4604.730,48.850
4606.195,52.359
4610.636,70.058
4613.497,79.150
4614.914,84.653
4619.312,101.612
4620.542,106.822
4624.665,123.311
4628.074,133.212
4630.828,142.412
4634.333,148.917
4638.243,157.121
4641.957,160.291
4645.998,165.146
4647.819,167.107
4651.844,170.626
4696.884,96.678
4747.358,31.001
4749.091,33.812
4757.789,42.672
4770.757,86.687
4773.425,90.968
4777.519,98.810
4778.908,105.629
4782.450,121.737
4782.462,121.767
4787.730,123.151
4791.279,116.429
4803.774,94.978
4805.227,127.290
4805.710,132.589
4806.200,134.632
4806.684,136.268
4807.169,137.808
4807.648,144.550
4808.141,144.398
4808.628,149.203
4813.484,161.774
4813.966,161.646
4814.455,159.872
4816.576,147.346
4818.680,141.364
4819.337,132.900
4819.939,126.741
4820.549,120.495
4821.154,114.558
4821.767,108.527
4822.360,104.116
4837.180,121.704
4838.528,120.760
4839.892,122.779
4842.488,123.675
4844.583,121.654
4846.679,119.951
4846.688,117.574
4846.709,105.800
4848.767,109.241
4850.792,111.462
4852.834,114.026
4854.867,114.543
4856.017,116.853
4857.169,118.373
4858.509,120.444
4878.132,136.230
4882.726,140.872
4884.411,143.295
4887.814,136.736
4893.362,141.198
4897.049,143.510
4900.720,148.734
4904.829,142.029
4906.848,140.646
4910.589,137.932
4916.486,120.303
4918.609,118.694
4922.656,112.585
4927.578,103.904
4929.447,104.638
4935.621,105.170
4939.621,107.870
4943.209,111.694
4945.150,114.603
4975.274,130.727
4980.727,128.972
4990.580,114.644
4999.757,99.527
5001.999,97.059
5005.839,96.055
5010.303,97.881
5011.884,105.480
5016.210,123.301
5019.074,141.162
5022.481,158.640
5024.117,167.292
5027.470,180.547
5030.992,195.875
5036.635,209.706
5040.405,212.741
5041.920,212.544
5047.000,210.594
5049.132,206.156
5053.245,201.042
5056.389,196.368
5059.256,190.569
5062.862,189.015
5063.873,183.631
5067.696,182.260
5071.344,180.135
5075.162,174.561
5078.601,169.263
5080.034,163.094
5083.028,158.912
5086.106,152.465
5089.251,146.627
5092.813,145.065
5094.748,140.915
5096.656,139.981
5098.578,138.064
5099.536,135.846
5102.411,132.066
5103.357,131.807
5106.613,142.466
5107.508,143.042
5110.208,154.568
5111.199,156.774
5112.201,159.887
5113.208,160.801
5114.209,162.740
5115.432,163.933
5116.652,165.891
5118.018,168.564
5137.340,192.741
5139.496,189.705
5141.658,185.460
5148.369,166.119
5155.142,142.382
5160.239,115.974
5165.212,96.321
5167.637,87.366
5174.752,60.771
5177.219,54.819
5181.973,42.452
5185.978,35.964
5189.918,29.799
5196.119,26.627
5197.774,27.278
5201.490,32.221
5205.759,32.988
5212.899,38.179
5214.988,41.187
5221.535,38.661
5227.788,41.042
5233.188,40.964
5240.513,38.581
5246.015,38.712
5248.686,42.589
5254.217,44.470
5262.787,54.204
5265.807,66.357
5273.547,90.114
5280.818,110.803
5290.057,160.633
5292.835,177.485
5302.340,220.585
5310.583,253.212
5313.996,261.594
5324.194,304.683
5327.439,313.355
5339.013,334.884
5343.105,347.608
5355.520,346.887
5364.971,355.344
5374.565,341.105
5379.582,341.111
5388.994,319.311
5397.881,275.848
5407.368,230.207
5421.681,156.001
5426.751,136.920
5436.082,90.921
5444.328,56.858
5453.123,39.639
5467.367,33.060
5476.280,39.852
5480.580,46.218
5489.034,62.667
5500.577,91.943
5507.121,128.421
5513.520,170.014
5516.724,180.358
5523.594,210.163
5534.869,246.693
5542.798,269.002
5551.792,282.979
5560.547,286.104
5568.026,277.933
5572.203,272.812
5583.711,264.413
5587.707,262.033
5600.046,265.429
5603.618,263.969
5611.822,272.503
5621.126,279.580
5635.620,270.929
5644.795,265.477
5652.437,249.948
5656.362,239.691
5664.797,221.742
5676.455,197.959
5684.587,187.012
5692.827,180.444
5701.750,175.619
5709.807,174.510
5714.339,163.246
5723.052,148.062
5730.506,130.306
5737.295,113.082
5744.236,92.468
5750.890,81.636
5757.847,80.689
5765.344,85.835
5772.957,102.918
5784.319,136.063
5791.785,169.529
5799.026,197.015
5807.234,223.685
5811.230,232.000
5819.727,238.465
5832.999,240.346
5837.284,234.654
5850.116,215.246
5858.024,198.970
5862.146,193.400
5874.726,178.934
5883.064,172.468
5891.275,176.482
5895.335,180.264
5907.588,196.778
5911.616,200.601
5923.807,218.975
5932.123,227.728
5936.499,232.366
5945.133,252.581
5953.154,269.399
5965.343,294.867
5973.819,307.355
5983.429,325.713
5987.334,326.418
5999.806,332.729
6004.068,327.124
6017.871,269.133
6023.152,254.499
6037.077,157.002
6041.483,137.706
6053.901,33.763
6058.068,3.805
6070.144,-50.862
6077.392,-88.112
6081.088,-67.850
6090.411,-5.592
6096.244,44.797
6099.946,89.049
6107.187,183.646
6115.690,335.522
6120.762,424.697
6120.808,453.344
6121.081,565.914
6145.147,610.254
6155.230,628.242
6165.275,614.396
6175.071,608.385
6179.768,583.494
6188.739,541.741
6201.356,486.702
6205.996,462.707
6221.963,387.272
6234.116,349.623
6242.210,322.546
6246.829,311.374
6256.031,297.085
6268.943,285.853
6272.491,286.950
6280.268,288.476
6293.357,307.240
6297.752,309.940
6311.167,314.345
6315.004,312.799
6322.710,305.941
6333.826,282.163
6338.164,268.002
6346.523,242.963
6358.685,200.648
6362.871,181.257
6371.124,156.954
6378.901,134.235
6389.207,108.901
6393.183,102.643
6405.803,91.478
6409.493,91.784
6421.277,80.917
6424.579,80.938
6432.953,90.454
6436.229,88.721
6445.615,104.406
6448.306,109.131
6456.065,128.140
6460.706,151.398
6470.543,167.522
6476.337,175.622
6483.762,193.395
6501.732,241.871
6509.651,275.087
6517.583,312.317
6521.050,335.701
6530.944,376.298
6540.000,401.972
6544.866,417.981
6554.849,430.204
6564.782,423.457
6574.386,399.380
6583.483,358.470
6597.688,277.599
6606.559,215.886
6615.302,153.348
6902.126,-30.399
6903.023,-18.381
6903.174,-16.882
6903.626,-11.404
6904.076,2.823
6904.225,4.779
6906.175,22.400
6906.325,22.739
6906.471,22.777
6906.624,22.853
6906.774,22.660
6906.924,22.317
6907.074,21.879
6907.222,22.349
6907.372,21.788
6907.523,21.460
6907.671,23.081
6907.822,23.107
6907.972,21.546
6908.122,21.045
6908.273,20.106
6908.422,18.976
6908.568,17.782
6908.722,10.545
6908.873,7.794
6909.022,6.773
6909.172,3.326
6909.324,-0.724
6909.473,-4.962
6909.622,-6.922
6909.773,-12.005
6909.921,-14.526
6910.072,-17.880
6910.221,-22.547
6910.371,-23.229
6927.630,-22.629
6927.807,-21.038
6927.985,-39.456
6928.692,-16.508
6929.047,-35.091
6929.223,-42.356
6929.581,-50.554
6930.111,-61.760
6930.464,-70.659
6930.640,-74.010
6930.818,-76.521
6930.995,-72.403
6931.172,-68.890
6931.345,-88.379
6931.526,-89.988
6932.846,-73.715
6934.157,-70.757
6935.912,-67.779
6937.703,-64.420
6939.519,-65.980
6941.332,-64.773
6943.767,-63.540
6978.199,-59.251
6984.683,-80.757
6990.344,-70.099
6992.867,-59.072
7000.839,-62.528
7006.200,-63.578
7011.626,-85.844
7017.121,-102.567
7023.096,-106.274
7036.003,-124.434
7045.595,-125.171
7048.963,-125.980
7058.383,-136.980
7065.652,-139.944
7072.698,-155.125
7076.453,-167.219
7080.338,-191.054
7094.214,-215.452
7094.305,-243.956
7101.621,-257.246
7112.287,-279.378
7118.757,-297.921
7125.536,-310.560
7135.980,-323.434
7142.791,-334.854
7149.182,-340.720
7155.631,-355.096
7158.994,-357.418
7162.410,-371.101
7162.599,-381.861
7185.438,-375.261
7192.805,-389.725
7200.694,-395.047
7204.007,-402.076
7213.320,-402.303
7219.779,-395.301
7228.806,-381.194
7232.688,-370.065
7241.260,-352.240
7245.975,-333.376
7257.913,-324.437
7258.032,-317.346
7285.686,-262.886
7289.148,-255.293
7295.747,-246.340
7302.190,-241.728
7308.855,-240.497
7315.700,-236.038
7326.225,-254.361
7333.196,-265.615
7336.729,-268.011
7343.844,-278.365
7354.395,-282.842
7357.959,-274.028
7364.786,-242.527
7371.939,-218.496
7384.690,-179.157
7392.315,-157.850
7399.848,-142.289
7407.883,-149.365
7411.746,-147.086
7424.152,-179.265
7432.223,-205.819
7440.757,-246.032
7449.690,-292.823
7457.985,-332.062
7465.557,-364.657
7473.548,-395.870
7481.238,-418.282
7484.980,-428.082
7492.607,-437.190
7503.840,-435.201
7510.046,-439.830
7513.229,-437.988
7519.727,-427.359
7529.827,-406.511
7532.926,-405.812
7539.185,-394.048
7550.240,-375.530
7554.081,-375.545
7561.783,-357.168
7569.435,-342.986
7576.852,-334.550
7587.982,-317.554
7591.374,-309.931
7597.877,-305.052
7604.626,-302.467
7611.850,-305.034
7622.992,-322.727
7627.191,-331.603
7635.559,-348.017
7647.152,-371.700
7650.860,-382.266
7661.670,-400.325
7668.448,-396.009
7675.529,-391.017
7682.960,-384.283
7690.062,-369.529
7693.983,-369.673
7702.029,-368.687
7713.813,-366.560
7720.792,-379.522
7724.694,-382.658
7736.057,-385.615
7739.362,-383.746
7748.737,-379.713
7752.445,-356.226
7759.809,-327.202
7769.337,-278.904
7773.170,-259.036
7784.896,-202.915
7791.818,-180.959
7796.330,-163.910
7808.790,-145.166
7812.635,-139.792
7826.107,-147.775
7834.353,-155.412
7838.242,-155.017
7850.926,-176.905
7858.944,-189.109
7866.253,-204.139
7874.343,-215.574
7882.482,-233.266
7890.909,-246.133
7897.956,-260.017
7905.396,-269.008
7913.284,-270.422
7920.699,-270.989
7924.319,-276.590
7935.832,-254.185
7949.999,-214.947
8154.726,-39.075
8154.811,-36.450
8154.896,-37.397
8155.068,-39.337
8155.153,-39.410
8155.238,-36.836
8155.324,-30.929
8155.880,-28.789
8155.923,-31.808
8155.965,-36.637
8156.008,-39.056
8156.093,-46.631
8156.521,-59.990
8156.564,-68.414
8156.606,-70.470
8156.650,-74.416
8156.692,-82.933
8156.735,-84.753
8156.778,-88.153
8156.821,-89.844
8156.863,-89.998
8156.907,-93.396
8156.949,-95.226
8156.992,-97.068
8157.035,-102.752
8157.077,-106.472
8157.120,-110.179
8157.163,-110.623
8157.206,-115.736
8157.248,-116.301
8170.669,-182.904
8170.944,-184.923
8171.082,-185.704
8171.497,-192.110
8171.633,-192.229
8172.049,-193.909
8172.325,-197.390
8172.463,-199.570
8172.599,-203.110
8174.059,-211.331
8175.539,-208.143
8176.664,-211.676
8177.804,-218.486
8178.798,-221.542
8179.798,-223.105
8180.965,-233.232
8182.118,-236.707
8183.278,-236.040
8185.170,-257.139
8185.381,-242.603
8185.451,-240.653
8185.591,-230.601
8185.804,-221.791
8186.808,-178.340
8187.844,-163.630
8189.827,-145.799
8191.780,-129.683
8193.753,-115.676
8195.692,-98.394
8197.896,-88.684
8200.073,-70.104
8203.130,-63.874
8206.208,-51.161
8241.445,-50.312
8247.538,-26.302
8250.724,-19.451
8260.573,5.934
8267.635,16.953
8271.203,27.941
8278.485,34.096
8285.767,36.541
8293.069,48.745
8300.153,56.248
8307.228,81.714
8314.663,101.059
8326.139,152.217
8330.054,170.367
8342.132,210.261
8346.289,226.549
8354.788,239.146
8363.493,262.714
8377.256,269.789
8381.666,278.640
8394.688,293.619
8403.237,305.210
8407.679,317.383
8421.413,332.072
8430.573,345.043
8439.909,355.290
8449.498,344.736
8454.391,342.907
8464.327,325.740
8478.628,292.447
8483.250,281.542
8492.565,259.072
8506.393,216.705
8510.937,208.806
8524.527,185.270
8533.600,181.886
8542.300,173.628
8546.363,173.225
8558.862,187.347
8563.022,189.898
8575.516,215.861
8583.372,238.143
8587.085,250.812
8598.097,300.595
8601.696,314.558
8612.572,365.151
8616.393,373.948
8623.940,398.779
8635.386,420.308
8643.407,424.581
8650.873,418.504
8654.480,411.670
8665.188,391.248
8668.847,383.436
8676.191,361.345
8687.090,330.203
8694.225,313.308
8697.536,302.357
8707.484,276.963
8713.931,257.865
8720.171,251.705
8726.393,267.544
8729.268,266.341
8734.861,289.210
8740.080,320.789
8747.739,381.719
8749.424,401.291
8754.170,438.981
8759.430,472.692
8767.920,490.684
8771.628,498.393
8778.466,492.573
8784.527,474.857
8790.741,454.331
8799.523,418.909
8806.238,395.919
8809.511,384.671
8816.017,373.311
8825.065,367.863
8827.746,363.557
8833.380,364.438
8841.399,354.884
8847.775,343.718
8853.229,328.104
8858.298,312.971
8861.336,303.616
8867.047,283.822
8875.469,261.244
8881.178,246.513
8886.139,238.190
8891.189,226.625
8893.169,234.434
8899.314,247.211
8901.237,257.393
8905.170,289.201
8907.189,297.897
8914.980,324.766
8919.513,330.992
8924.246,329.879
8927.049,321.283
8932.352,307.366
8939.673,279.038
8945.318,254.659
8950.229,233.122
8952.643,222.735
8957.395,207.465
8962.155,197.477
8966.765,191.430
8971.694,184.743
8980.326,178.953
8983.176,175.150
8988.872,172.049
8997.319,163.004
9002.816,153.392
9008.748,142.413
9011.577,135.109
9020.164,116.515
9024.869,99.182
9027.289,88.344
9034.476,64.088
9036.949,55.215
9043.885,31.487
9049.117,11.913
9051.895,5.531
9060.863,-18.067
9063.703,-24.835
9069.426,-42.571
9077.674,-71.984
9083.229,-92.085
9089.005,-103.512
9094.654,-123.051
9097.644,-121.587
9103.584,-119.466
9111.686,-111.943
9114.357,-104.142
9119.298,-89.662
9126.367,-73.919
9133.095,-59.133
9136.277,-59.134
9143.553,-58.284
9151.224,-59.520
9158.014,-66.672
9167.918,-71.005
9175.253,-75.139
9182.025,-60.918
9188.508,-52.072
9195.911,-28.428
9199.520,-13.410
9210.758,20.533
9214.429,35.946
9222.556,69.231
9235.330,96.691
9242.889,114.878
9247.487,126.133
9260.711,123.890
9269.562,124.807
9279.003,102.909
9288.698,97.611
9298.728,63.258
9303.482,55.326
9318.594,16.677
9328.635,1.884
9333.284,3.786
9342.510,5.818
9351.406,23.434
9359.980,61.464
9372.940,120.746
9382.729,175.039
9387.158,203.031
9400.590,282.290
9410.727,336.365
9415.966,348.237
9426.274,382.119
9436.754,404.016
9447.034,407.163
9457.020,397.126
9467.787,368.117
9478.809,317.893
9489.677,263.316
9500.636,203.408
9511.772,144.538
9528.135,59.677
9533.670,49.262
9549.376,44.967
9556.439,53.956
9564.694,95.981
9572.782,140.173
9577.208,161.621
9590.705,248.237
9600.176,292.156
9609.640,334.771
9619.901,354.964
9624.828,358.601
9634.874,366.944
9644.927,366.286
9654.544,361.723
9664.545,356.177
9679.568,350.179
9684.095,350.678
9698.060,361.519
9702.424,361.884
9711.327,370.763
9720.585,373.799
9734.438,378.665
9743.476,378.648
9747.199,376.857
9759.665,376.377
9764.535,375.760
9774.499,378.090
9788.606,391.893
9793.265,395.454
9808.242,415.676
9812.966,422.444
9827.173,447.894
9835.558,467.135
9840.209,475.092
9854.293,492.315
9859.161,498.904
9868.901,504.961
9878.811,506.708
9889.191,504.095
9903.883,492.907
9913.788,483.470
9923.454,474.621
9933.018,468.098
9943.536,463.518
9953.904,459.604
9963.815,458.763
9973.121,460.306
9982.891,465.562
9992.460,469.437
10002.308,472.435
10011.454,475.636
10016.368,476.338
10026.130,480.601
10035.517,484.251
10049.125,487.190
10058.852,486.993
10063.582,485.018
10072.936,481.482
10082.239,476.830
10096.111,471.601
10100.581,468.625
10114.739,468.111
10124.064,472.408
10133.393,476.979
10142.289,481.033
10146.875,484.419
10161.811,489.602
10171.288,492.195
10181.451,493.026
10191.148,490.206
10196.123,484.930
10210.297,478.132
10214.739,475.652
10228.786,469.533
10233.290,467.939
10247.248,463.626
10252.022,463.350
10265.989,462.221
10274.308,458.923
10284.091,450.484
10293.849,444.474
10302.907,439.618
10312.816,427.650
10321.952,416.913
10326.527,408.802
10340.520,390.344
10345.005,385.533
10357.681,372.730
10366.120,368.999
10370.688,368.812
10380.097,368.319
10389.319,370.056
10398.461,371.489
10412.404,368.239
10421.161,358.917
10425.585,355.906
10434.553,345.190
10443.860,325.598
10452.958,303.736
10461.200,280.136
10469.697,258.024
10478.779,239.883
10492.230,221.609
10496.134,215.927
10504.194,218.109
10512.734,225.253
10524.836,251.617
10532.584,271.136
10541.139,290.028
10544.965,297.630
10556.754,320.457
10564.705,328.440
10568.967,328.867
10577.188,329.775
10585.412,327.924
10597.661,319.905
10602.019,315.531
10610.689,306.978
10619.321,298.254
10632.688,282.193
10636.800,277.978
10645.487,268.610
10654.314,261.759
10662.994,257.953
10671.905,254.182
10681.110,254.437
10694.930,253.594
10699.182,253.550
10712.975,250.530
10717.417,249.581
10729.445,244.941
10737.673,241.378
10741.986,240.707
10755.406,234.436
10763.974,229.026
10768.081,228.303
10780.571,221.360
10785.248,220.065
10794.203,219.062
10807.274,218.838
10816.812,217.462
10825.606,221.994
10833.428,227.604
10841.619,231.582
10846.276,234.976
10859.465,244.357
10869.104,244.963
10873.474,253.684
10886.659,265.598
10890.794,272.188
10903.600,285.800
10912.045,302.239
10916.281,312.579
10930.633,324.872
10939.416,332.696
10950.112,340.600
10954.310,339.094
10963.264,339.175
10972.352,337.574
10980.984,336.348
10995.083,337.875
11000.228,344.913
11010.334,357.092
11024.675,375.120
11034.126,393.898
11038.841,402.788
11048.531,411.974
11063.923,418.392
11074.587,413.442
11079.728,413.869
11094.839,394.627
11104.202,381.008
11113.990,373.533
11123.331,363.084
11132.037,360.476
11136.533,362.479
11145.829,360.683
11155.168,361.227
11164.341,360.968
11178.426,369.460
11183.197,370.180
11192.544,364.630
11205.470,365.707
11209.877,362.830
11219.099,354.778
11233.932,341.755
11238.997,333.335
11248.947,325.796
11257.595,317.800
11265.631,310.690
11274.036,304.570
11282.255,303.751
11290.678,302.084
11303.273,309.218
11311.546,309.942
11315.805,307.541
11324.050,308.548
11336.496,314.700
11340.455,315.929
11348.518,317.294
11356.363,321.261
11367.954,327.730
11375.353,333.012
11383.127,335.839
11387.173,334.602
11399.291,338.381
11403.290,336.082
11415.359,331.477
11419.335,328.171
11431.406,318.212
11439.044,315.704
11442.654,314.436
11454.466,308.434
11458.158,309.527
11470.186,310.159
11477.029,311.767
11484.838,312.008
11489.062,315.712
11497.108,317.401
11505.445,317.302
11513.941,318.180
11522.182,318.486
11530.355,318.877
11537.643,316.997
11548.894,309.661
11555.627,306.093
11559.664,306.506
11571.555,296.019
11579.545,291.730
11583.404,291.637
11595.070,289.743
11599.008,289.598
11606.846,289.758
11618.529,297.474
11621.954,303.585
11632.772,310.866
11641.196,318.058
11649.501,326.367
11656.990,326.276
11665.132,326.798
11669.181,325.038
11681.154,318.326
11685.188,317.506
11693.057,315.993
11705.179,321.273
11712.994,326.065
11717.197,335.745
11725.150,351.169
11736.750,376.973
11744.766,393.936
11752.694,408.523
11759.867,417.407
11764.063,421.700
11777.088,428.902
11785.010,430.611
11793.332,430.575
11801.222,428.134
11810.214,427.690
11818.405,425.868
11822.435,423.586
11830.476,419.670
11843.412,409.885
11851.936,393.083
11860.340,381.965
11864.271,360.312
11876.464,315.596
11880.718,304.204
11893.024,253.345
11896.938,235.384
11904.657,207.657
11912.372,186.721
11923.083,159.488
11926.085,163.762
11936.027,168.122
11939.272,172.295
11945.723,184.514
11956.108,208.948
11959.816,211.297
11966.830,220.796
11977.091,226.963
11980.408,222.843
11990.424,214.309
11993.782,208.639
12000.160,200.935
12006.115,189.699
12012.287,177.424
12021.446,163.909
12027.977,155.712
12034.291,152.666
12037.465,148.237
12047.773,146.068
12050.960,142.788
12060.658,147.155
12067.025,151.343
12070.255,155.470
12080.239,162.885
12083.280,164.951
12093.147,172.080
12096.442,170.639
12103.356,167.154
12110.520,160.118
12117.564,152.327
12127.585,129.014
12135.781,121.534
12139.662,115.576
12147.276,107.342
12154.469,103.605
12165.796,111.717
12172.628,126.645
12176.161,135.744
12186.925,153.691
12190.239,169.382
12197.764,180.119
12210.276,166.668
12219.692,156.978
12228.372,142.231
12236.635,112.260
12240.814,99.860
12249.257,68.634
12263.251,51.163
12271.793,51.571
12280.181,55.814
12288.288,86.478
12291.895,113.718
12303.529,180.804
12311.241,227.775
12315.429,255.711
12324.085,291.999
12337.601,337.609
12342.205,347.969
12356.116,366.163
12360.772,370.330
12375.057,360.669
12384.134,366.907
12393.768,352.513
12403.689,350.215
12408.735,342.267
12418.891,331.346
12429.056,317.795
12444.142,297.409
12449.168,292.955
12463.396,282.075
12468.172,279.133
12481.644,282.463
12491.229,291.919
12496.169,297.762
12509.687,320.368
12518.470,338.780
12528.267,354.821
12533.035,362.295
12547.618,387.981
12557.498,401.489
12566.846,410.658
12571.872,409.349
12586.831,406.167
12595.743,406.484
12605.756,396.784
12610.399,383.145
12620.248,363.644
12635.194,323.702
12644.621,294.623
12654.301,264.538
12659.038,250.241
12668.015,221.072
12676.518,197.390
12685.475,185.462
12694.549,176.797
12706.962,175.247
12715.287,169.697
12719.774,175.133
12732.705,170.333
12736.177,162.164
12746.554,141.905
12750.614,132.834
12758.993,107.153
12767.363,69.583
12778.775,35.953
12785.612,5.759
12788.961,6.147
12798.049,9.843
12803.755,42.750
12808.710,72.755
12811.524,103.193
12818.753,191.683
12820.694,217.173
12825.578,262.798
12833.419,333.748
12840.051,355.946
12843.590,360.358
12851.831,368.919
12859.904,366.483
12871.231,347.142
12874.807,341.544
12881.599,326.641
12887.993,312.218
12895.387,296.916
12907.269,280.974
12911.007,276.936
12918.428,273.127
12925.769,273.916
12932.880,278.292
12940.481,287.328
12947.951,298.046
12955.029,309.718
12967.769,321.897
12975.772,330.219
12980.095,325.600
12992.744,317.978
12996.484,314.839
13004.722,304.522
13013.554,294.282
13022.168,285.866
13029.647,279.993
13037.234,277.604
13049.732,277.926
13057.729,279.241
13065.704,275.949
13074.022,271.251
13082.025,263.851
13085.943,260.676
13098.188,246.073
13102.660,242.702
13115.612,227.660
13123.594,217.450
13131.333,207.662
13135.050,202.972
13142.968,191.486
13155.805,175.078
13163.460,164.605
13167.463,160.803
13176.027,151.413
13184.880,145.040
13196.644,136.961
13200.548,137.619
13211.948,136.801
13215.096,137.055
13222.304,137.511
13233.783,141.397
13242.511,144.466
13247.877,142.408
13251.046,144.126
13257.626,141.443
13266.955,134.782
13270.383,128.805
13280.872,113.171
13289.096,100.670
13296.286,93.032
13303.325,86.570
13311.012,84.473
13317.198,86.391
13323.583,90.774
13329.550,101.484
13336.565,112.756
13343.766,127.751
13347.596,132.671
13354.955,145.036
13364.110,162.954
13371.075,176.569
13377.064,188.341
13384.267,202.037
13391.409,213.448
13394.642,218.892
13404.668,234.563
13411.776,246.286
13415.722,249.275
13423.540,254.123
13435.930,260.021
13443.375,260.364
13447.222,263.068
13455.258,263.175
13467.527,260.160
13471.402,259.430
13479.254,253.864
13487.950,248.629
13496.382,242.458
13507.954,232.993
13515.523,226.198
13519.633,224.622
13527.794,219.875
13539.437,215.957
13547.598,215.389
13555.849,216.449
13563.130,215.359
13567.001,216.090
13574.936,216.636
13586.721,216.157
13594.399,215.220
13598.167,214.444
13605.905,214.248
13617.568,212.599
13624.787,216.914
13627.904,216.776
13639.365,223.184
13648.226,229.324
13657.486,237.452
13661.051,241.935
13668.338,249.784
13680.306,260.908
13684.443,263.558
13696.356,267.276
13704.281,271.193
13711.799,261.254
13715.661,257.871
13723.159,247.432
13730.866,234.760
13739.074,219.527
13747.418,203.762
13755.872,190.828
13767.538,175.317
13771.243,170.451
13782.918,166.792
13790.191,162.178
13794.007,163.625
13801.581,166.915
13813.253,176.170
13821.408,184.026
13825.184,186.928
13837.815,197.093
13845.951,200.451
13852.949,198.878
13857.042,198.337
13869.357,191.898
13873.081,187.698
13880.886,182.345
13892.798,181.971
13896.841,180.826
13905.342,185.226
13913.434,190.117
13925.489,203.697
13932.264,216.725
13939.826,228.087
13947.674,230.530
13951.513,236.255
13963.841,233.340
13971.357,222.839
13979.043,209.131
13987.945,193.215
13992.413,186.801
14006.044,165.192
14014.000,157.801
14018.039,159.113
14029.514,156.468
14033.320,161.942
14045.349,175.365
14049.286,179.691
14060.762,192.687
14068.224,205.154
14072.371,214.585
14080.228,231.832
14087.273,250.609
14094.491,271.282
14102.067,292.932
14110.009,308.934
14118.242,327.728
14130.222,345.440
14138.087,352.419
14142.008,350.063
14154.601,349.526
14158.975,343.476
14167.960,329.121
14176.570,315.399
14189.619,284.888
14200.199,272.901
14209.595,252.183
14217.271,233.282
14221.107,229.310
14231.039,207.559
14234.510,202.408
14244.992,197.434
14249.449,197.084
14262.452,207.779
14266.298,208.654
14277.538,228.618
14284.522,238.560
14288.295,242.115
14295.790,256.075
14303.155,265.988
14310.792,276.694
14318.450,282.417
14328.816,289.021
14336.122,290.440
14343.915,286.522
14347.250,283.147
14354.281,279.340
14361.463,275.981
14368.192,272.530
14375.219,272.592
14386.626,274.330
14393.218,277.138
14396.297,278.701
14406.576,281.585
14412.993,281.484
14539.059,273.079
14551.224,263.047
14555.028,260.752
14566.288,246.611
14570.503,243.559
14578.987,226.667
14590.640,199.484
14597.796,170.548
14601.607,152.916
14609.214,115.939
14619.799,44.740
14626.053,1.749
14633.898,-39.411
14637.198,-56.021
14647.377,-99.392
14650.378,-107.155
14659.320,-122.863
14661.348,-113.712
14667.959,-94.674
14670.033,-79.266
14674.754,-64.907
14679.918,-45.954
14684.412,-30.034
14686.598,-1.381
14686.678,-0.981
14686.838,-1.802
14686.997,-2.218
14687.237,-6.570
14687.316,-7.188
14687.477,-10.057
14687.716,-16.793
14687.796,-17.459
14687.956,-20.626
14688.116,-22.520
14688.196,-22.935
14688.274,-22.935
14688.354,-22.938
14688.435,-23.113
14688.514,-23.317
14688.594,-23.328
14688.674,-23.054
14688.755,-20.405
14688.833,-17.924
14688.914,-16.121
14688.993,-13.547
14689.073,-11.682
14689.152,-9.704
14689.232,-7.913
14689.311,-5.703
14690.147,37.725
14713.520,117.425
14715.763,124.793
14721.495,162.905
14723.931,177.213
14730.623,215.924
14732.575,227.913
14739.932,265.527
14742.614,278.333
14748.221,294.348
14757.382,310.724
14760.499,313.259
14766.767,312.348
14772.583,304.878
14779.126,294.692
14786.175,277.673
14796.239,250.635
14799.831,242.853
14810.327,223.027
14813.621,215.769
14824.726,200.987
14831.078,198.566
14834.476,199.080
14841.271,203.300
14850.862,216.616
14857.274,231.525
14861.257,235.978
14868.946,251.712
14875.543,267.959
14884.123,290.024
14890.921,301.478
14895.462,304.011
14903.994,308.971
14916.214,310.368
14920.071,309.466
14927.751,305.022
14939.300,296.997
14942.977,294.327
14950.656,288.537
14958.355,284.925
14969.040,282.077
14972.578,282.509
14979.695,283.411
14990.299,282.960
14993.820,283.079
15005.016,280.755
15009.199,278.951
15021.234,274.696
15029.409,270.064
15036.743,264.650
15044.723,259.061
15048.546,256.668
15061.160,250.577
15065.406,251.861
15077.201,252.688
15085.749,262.606
15093.795,272.068
15097.133,276.554
15107.730,294.467
15115.370,305.822
15119.253,311.345
15131.106,326.999
15134.873,327.155
15146.680,329.699
15150.229,327.623
15161.300,323.802
15170.487,319.863
15174.711,316.748
15187.366,313.654
15195.699,311.308
15203.265,306.596
15211.298,303.393
15219.137,299.925
15227.005,290.082
15234.981,281.655
15238.712,275.917
15250.972,254.920
15259.267,237.978
15267.557,217.325
15275.689,201.735
15279.547,193.609
15291.296,171.800
15294.947,174.180
15306.434,173.406
15309.994,183.691
15316.835,198.453
15326.004,232.362
15334.191,257.745
15342.688,279.929
15350.636,294.847
15357.886,304.238
15361.965,308.827
15370.251,307.925
15379.266,300.380
15392.427,280.906
15396.583,271.008
15408.479,243.607
15416.380,234.042
15424.676,224.428
15433.729,217.631
15437.581,215.478
15448.950,216.804
15457.996,221.112
15465.134,227.500
15472.479,233.977
15478.837,235.646
15482.576,238.831
15494.750,238.267
15502.707,237.946
15507.041,237.884
15519.073,231.918
15522.993,234.328
15534.099,233.855
15542.699,237.866
15547.001,241.552
15558.090,250.495
15562.130,253.588
15575.412,262.189
15579.020,265.109
15587.183,268.793
15595.738,269.465
15608.499,268.604
15616.651,266.486
15620.210,266.115
15628.122,261.895
15640.491,251.602
15648.520,240.163
15655.919,220.589
15665.744,208.124
15669.417,198.738
15682.587,161.196
15686.672,152.007
15698.558,124.356
15702.631,116.551
15714.262,100.780
15717.321,103.565
15727.905,120.191
15731.619,124.013
15738.712,145.288
15746.253,172.945
15758.005,212.366
15765.261,240.645
15772.860,258.871
15781.214,279.038
15785.158,282.006
15796.643,288.884
15804.140,286.192
15808.068,283.824
15815.749,278.159
15823.211,268.684
15830.995,259.739
15838.596,252.109
15850.790,243.187
15857.967,240.290
15866.395,240.349
15870.359,238.924
15882.494,243.726
15886.262,253.480
15893.990,265.412
15905.424,285.252
15909.040,294.327
15919.790,320.260
15927.135,331.149
15931.366,331.259
15939.076,335.197
15946.138,331.404
15958.087,318.630
15962.340,311.517
15975.145,299.157
15983.640,289.102
15991.776,281.574
15996.198,280.833
16004.742,283.283
16016.345,291.563
16023.254,296.587
16027.107,293.041
16034.967,291.781
16046.874,281.698
16051.417,270.180
16064.675,253.069
16068.908,247.936
16082.186,233.691
16398.838,77.935
16398.862,74.895
16398.887,74.887
16398.911,74.801
16398.935,74.896
16398.959,74.538
16398.984,74.837
16399.008,74.463
16399.033,74.201
16399.057,74.322
16399.081,73.967
16399.106,73.693
16399.130,73.350
16399.155,72.981
16399.178,72.669
16399.203,72.400
16399.227,72.038
16399.252,71.767
16399.276,71.344
16399.300,71.064
16399.325,70.556
16399.349,70.269
16399.373,69.870
16399.397,69.461
16399.422,69.063
16399.447,68.593
16399.470,68.428
16399.495,68.021
16399.519,67.719
16399.543,67.399
16399.568,67.098
16399.592,66.882
16399.617,66.468
16399.641,66.183
16399.665,65.825
16399.690,65.436
16399.714,65.085
16399.738,64.713
16399.763,64.319
16399.787,63.992
16399.811,63.448
16399.835,63.024
16399.860,62.552
16399.884,61.994
16399.908,61.537
16399.933,61.006
16399.957,60.508
16399.981,60.032
16400.006,59.541
16400.030,58.923
16400.054,58.546
16433.197,187.979
16434.959,197.384
16439.924,233.821
16442.122,242.765
16450.521,265.151
16452.925,278.467
16461.539,297.484
16467.227,303.278
16470.207,308.183
16476.111,312.192
16485.284,314.211
16488.617,305.332
16495.346,298.764
16505.631,283.100
16512.784,262.694
16516.420,258.277
16523.932,243.053
16531.184,226.291
16541.901,205.896
16545.509,200.485
16552.766,193.352
16563.636,187.030
16570.883,192.679
16574.403,202.889
16581.373,217.809
16591.988,242.468
16599.059,264.316
16606.466,282.488
16614.063,299.556
16621.728,310.960
16629.835,318.086
16633.721,321.169
16645.558,318.120
16653.763,315.906
16657.950,315.048
16670.618,301.369
16679.372,295.218
16683.646,292.026
16696.390,280.786
16704.904,272.496
16713.420,268.977
16717.633,268.784
16726.145,266.827
16738.745,263.507
16747.402,263.291
16751.617,262.605
16764.342,260.293
16772.695,255.663
16781.072,253.681
16789.675,250.977
16798.129,247.955
16802.394,246.512
16815.101,247.909
16823.511,250.852
16827.512,253.050
16839.802,263.077
16847.827,271.250
16852.181,276.066
16865.251,288.642
16873.850,293.182
16882.304,297.046
16890.896,299.395
16895.240,298.667
16908.268,297.304
16912.680,294.015
16925.660,288.367
16934.389,283.671
16942.969,279.195
16947.225,276.495
16955.694,273.430
16968.221,270.305
16976.603,271.166
16980.794,270.243
16993.296,274.960
17001.515,281.955
17005.554,285.081
17013.883,292.153
17022.451,297.604
17035.123,305.186
17043.581,308.639
17047.759,309.615
17056.202,306.623
17064.757,302.920
17073.345,297.070
17085.984,283.962
17094.521,274.529
17102.922,267.619
17111.188,264.443
17115.238,261.467
17127.609,259.796
17131.584,261.969
17143.808,267.600
17151.896,273.559
17160.088,278.109
17168.573,283.011
17172.670,283.490
17185.140,285.296
17193.351,280.833
17201.225,274.989
17205.227,273.240
17217.389,263.496
17225.491,256.678
17229.547,254.583
17237.654,249.662
17249.366,243.958
17253.179,245.422
17260.934,246.509
17272.631,254.148
17276.458,257.332
17284.335,264.415
17295.810,278.696
17299.788,282.027
17311.561,290.049
17319.360,294.755
17327.373,296.834
17331.420,296.399
17343.514,293.052
17347.417,292.184
17358.983,286.453
17367.219,283.517
17371.107,285.198
17378.947,286.164
17390.855,292.438
17394.691,296.220
17402.288,305.813
17409.771,318.282
17421.126,336.877
17429.113,350.578
17433.092,355.490
17440.933,365.069
17448.816,371.776
17460.603,375.473
17468.552,377.956
17476.571,375.119
17484.730,372.090
17488.591,370.289
17500.491,362.181
17508.266,358.151
17516.188,354.366
17524.222,352.721
17528.098,350.747
17535.864,348.927
17547.494,351.929
17555.155,355.136
17563.056,361.858
17570.746,362.992
17574.590,364.882
17586.526,373.678
17594.443,379.753
17602.180,385.184
17609.747,387.859
17617.660,391.421
17625.505,394.073
17633.243,393.156
17637.115,394.412
17648.321,390.125
17652.017,389.488
17663.903,379.502
17671.623,369.608
17679.508,358.316
17687.309,346.379
17690.955,338.366
17701.931,319.193
17709.026,309.721
17716.563,299.497
17720.085,295.621
17731.285,283.916
17738.804,279.991
17745.951,273.820
17753.322,266.538
17759.672,264.783
17766.262,268.175
17769.714,267.366
17780.209,275.626
17787.032,281.193
17794.225,288.045
17800.575,290.853
17807.175,293.986
17813.791,296.550
17820.135,297.377
17826.994,296.435
17833.682,298.907
17840.278,300.932
17847.125,300.851
17850.516,301.121
17860.267,302.605
17863.918,301.843
17874.956,301.485
17882.310,302.893
17889.250,296.227
17896.508,296.297
17903.840,291.679
17911.085,286.291
17918.359,280.592
17925.932,275.510
17929.491,273.482
17940.574,265.179
17947.626,261.997
17951.259,260.769
17962.469,242.038
17966.128,239.317
17977.510,218.059
17981.239,211.406
17992.302,184.306
17999.262,165.041
18002.997,159.063
18013.812,137.953
18017.273,137.671
18024.181,133.666
18034.455,138.880
18041.613,152.251
18048.352,161.869
18055.315,174.281
18062.289,184.178
18065.838,190.693
18076.406,198.835
18083.927,194.282
18087.587,194.017
18098.740,184.222
18106.607,169.938
18110.565,166.869
18118.415,159.561
18129.758,145.345
18137.304,153.159
18144.240,156.765
18151.896,165.642
18155.397,172.941
18165.986,186.305
18169.720,194.160
18177.221,200.700
18188.131,207.325
18192.091,207.391
18203.839,201.703
18207.833,200.681
18215.565,199.365
18226.812,200.607
18230.613,207.796
18241.587,222.664
18249.302,238.107
18253.096,246.386
18264.892,264.365
18268.873,268.057
18277.047,274.724
18285.147,279.910
18297.285,280.930
18301.194,281.543
18309.102,278.700
18317.303,275.209
18330.021,268.023
18338.397,262.877
18346.366,257.817
18354.987,249.362
18359.241,247.339
18367.782,241.608
18380.371,239.194
18384.206,238.893
18392.245,243.168
18400.479,249.304
18413.027,264.329
18417.026,266.707
18425.345,272.755
18433.733,276.248
18446.569,280.276
18454.799,281.679
18463.330,278.739
18467.419,278.251
18475.949,276.039
18484.500,275.089
18497.228,274.742
18501.401,275.706
18514.140,275.441
18522.573,276.690
18526.561,278.187
18534.898,279.553
18548.298,283.416
18552.245,284.806
18564.801,284.571
18573.427,283.154
18581.707,281.819
18586.024,281.643
18594.482,279.132
18607.060,274.055
18611.292,273.450
18619.918,270.548
18632.535,267.114
18636.709,265.345
18645.084,261.984
18653.143,258.894
18661.039,256.162
18672.792,251.617
18681.562,252.769
18689.480,254.526
18693.499,256.108
18705.877,260.945
18709.811,263.082
18722.044,268.497
18730.395,273.118
18734.374,275.685
18742.611,281.079
18750.718,285.642
18759.010,289.284
18767.092,291.682
18779.072,291.132
18783.034,290.048
18790.966,288.823
18799.003,285.403
18806.945,280.702
18819.025,275.555
18822.899,271.925
18830.816,268.832
18838.514,266.852
18846.252,267.698
18854.229,265.605
18862.277,266.339
18870.135,267.359
18878.038,268.366
18885.799,270.245
18893.362,273.289
18900.932,273.734
18909.007,273.674
18916.991,274.919
18924.704,276.216
18932.216,273.688
18943.810,273.009
18947.629,271.608
18955.438,271.754
18963.376,270.254
18971.151,268.038
18978.736,267.476
18989.949,265.696
18993.860,265.256
19001.534,264.064
19008.932,261.484
19016.337,258.913
19028.086,253.625
19035.444,249.757
19039.106,244.519
19046.663,237.530
19057.969,223.475
19065.541,215.148
19069.027,212.103
19076.343,203.560
19083.692,195.507
19095.134,188.898
19097.980,187.163
19104.657,185.068
19111.299,188.351
19117.775,194.230
19124.254,205.263
19131.205,216.170
19138.155,228.779
19144.974,241.522
19151.883,255.434
19161.807,278.580
19168.415,291.451
19175.033,307.019
19182.444,318.600
19186.356,321.219
19194.261,327.464
19205.437,329.633
19212.572,328.236
19219.945,321.922
19227.677,317.286
19231.558,314.606
19243.102,303.505
19250.584,303.949
19258.170,301.003
19265.812,300.052
19273.810,292.566
19281.699,282.333
19289.717,273.777
19293.579,267.762
19301.404,259.953
19309.064,254.092
19316.538,251.144
19324.039,252.342
19331.663,255.521
19339.459,263.032
19350.391,277.643
19354.176,280.278
19361.925,287.134
19373.225,297.456
19377.129,298.848
19387.814,304.278
19391.956,304.286
19400.374,306.444
19411.621,310.885
19415.460,312.742
19423.200,318.025
19431.093,322.038
19443.141,327.545
19447.067,330.645
19455.039,333.558
19462.927,333.751
19475.432,330.502
19483.844,325.458
19488.110,322.108
19500.806,311.166
19509.256,304.782
19513.215,302.878
19521.352,297.719
19529.454,295.391
19541.640,294.343
19545.736,296.926
19557.978,301.364
19566.528,303.672
19574.937,306.875
19583.164,307.113
19591.484,307.879
19599.866,305.162
19603.890,305.551
19612.240,301.538
19620.719,297.607
19633.530,287.207
19637.695,284.999
19645.980,277.828
19654.263,272.224
19662.855,265.209
19675.499,257.119
19679.700,254.838
19688.222,252.556
19696.715,251.033
19709.607,251.283
19713.739,250.334
19726.460,247.326
19734.803,243.292
19738.922,241.537
19751.457,236.598
19755.566,229.367
19763.863,220.757
19776.573,211.229
19780.785,206.985
19789.075,204.442
19797.204,204.275
19809.067,212.432
19813.056,220.725
19820.908,238.045
19832.492,268.669
19836.566,279.362
19849.414,312.390
19853.475,320.565
19865.877,343.312
19874.239,351.161
19882.912,352.371
19891.712,346.394
19900.725,339.524
19909.780,326.904
19918.713,317.198
19923.233,312.472
19936.496,299.341
19945.384,292.549
19949.740,291.067
19958.418,287.744
19967.112,285.470
19975.832,284.051
19984.867,283.009
19993.885,283.081
20002.690,282.369
20015.928,282.328
20020.262,281.649
20033.421,284.270
20042.294,287.767
20050.587,288.845
20054.964,292.452
20063.788,293.783
20072.750,294.137
20086.211,290.412
20090.572,288.642
20099.272,282.163
20108.050,275.202
20116.742,268.742
20129.635,260.568
20138.528,251.853
20147.184,245.451
20151.600,241.930
20160.339,237.131
20173.512,232.464
20181.826,228.521
20190.527,235.529
20198.757,244.235
20206.918,253.532
20214.851,266.359
20223.057,281.518
20227.256,289.058
20235.594,301.509
20243.684,309.823
20256.053,316.563
20260.193,314.155
20272.743,302.353
20281.313,293.139
20289.263,282.750
20293.240,278.699
20301.615,266.083
20313.918,252.476
20322.019,245.355
20325.869,242.939
20333.579,235.888
20341.444,231.716
20349.425,230.083
20361.172,228.953
20369.005,230.330
20372.589,230.029
20383.582,231.418
20391.086,236.035
20398.600,239.815
20405.936,243.680
20409.550,243.538
20420.732,250.148
20424.345,250.542
20435.342,256.981
20442.421,261.247
20445.921,259.497
20456.641,263.416
20460.130,262.143
20470.747,266.564
20477.819,270.927
20484.752,274.958
20488.380,274.428
20499.367,282.089
20506.273,286.793
20513.623,288.062
20520.938,289.099
20528.515,287.152
20536.153,283.675
20543.559,276.336
20551.095,269.927
20558.530,262.126
20566.015,251.572
20573.463,242.859
20581.036,234.934
20588.650,228.049
20596.157,222.693
20603.833,220.188
20611.113,218.327
20618.362,218.599
20625.647,222.347
20633.150,225.736
20640.402,233.800
20647.796,241.704
20655.363,245.065
20662.868,250.096
20670.359,250.603
20677.835,247.429
20685.490,242.153
20693.299,231.657
20697.151,228.023
20709.049,210.803
20716.692,199.912
20724.304,191.440
20732.087,187.834
20739.734,183.117
20743.390,184.553
20750.800,182.136
20762.134,179.481
20769.404,177.766
20777.019,176.636
20784.470,176.231
20788.275,176.875
20799.572,173.188
20806.798,172.700
20810.410,176.455
20821.404,179.512
20828.719,183.731
20835.726,189.657
20842.852,193.409
20849.967,196.983
20853.426,199.154
20863.950,201.924
20871.082,199.396
20874.677,197.153
20885.440,189.351
20892.485,187.807
20899.303,183.938
20906.250,179.820
20913.187,183.212
20919.905,181.063
20926.758,184.605
20933.451,191.270
20936.696,190.902
20946.269,201.365
20952.758,204.901
20956.150,207.867
20963.038,210.181
20969.772,212.265
20979.345,218.582
20985.258,218.643
20988.197,218.663
20994.019,220.567
20999.924,227.806
21009.319,237.453
21012.262,240.879
21021.710,253.713
21024.519,254.485
21030.416,259.794
21040.141,265.127
21045.728,264.618
21051.861,265.981
21055.002,265.511
21064.127,266.907
21070.621,271.801
21073.645,271.455
21082.665,279.777
21088.813,288.400
21091.891,291.431
21100.215,299.974
21106.229,303.877
21109.474,307.285
21119.677,306.285
21123.087,299.519
21133.117,282.743
21139.238,267.501
21146.055,253.972
21148.962,251.071
21158.125,236.548
21161.349,234.738
21170.858,236.929
21173.948,238.901
21180.067,244.482
21186.139,249.994
21195.192,253.266
21198.346,254.826
21204.918,255.266
21211.497,254.803
21217.922,252.241
21224.222,248.461
21230.738,245.444
21240.692,240.748
21243.879,240.169
21250.204,239.710
21259.156,241.578
21262.318,244.245
21271.884,247.174
21275.240,250.935
21284.999,250.088
21288.295,247.266
21294.926,240.923
21304.822,226.965
21308.060,221.991
21314.578,211.569
21321.022,204.678
21330.073,199.705
21333.030,199.802
21342.052,210.986
21348.215,218.819
21351.359,225.711
21357.584,238.913
21363.569,253.035
21372.669,274.844
21378.862,285.542
21381.977,289.878
21391.688,300.960
21394.961,303.402
21401.546,307.668
21411.378,308.541
21418.370,307.164
21421.726,305.654
21432.517,297.295
21439.714,292.477
21443.113,288.889
21453.329,279.477
21456.617,276.149
21463.562,271.133
21473.744,266.649
21477.171,264.815
21484.242,263.485
21491.194,262.093
21501.206,258.603
21508.462,253.852
21515.413,247.376
21518.758,242.549
21528.941,228.964
21535.632,219.870
21539.130,213.005
21549.690,200.512
21556.308,187.680
21559.438,184.106
21565.971,172.960
21572.732,161.706
21582.560,142.126
21585.746,131.499
21592.272,116.964
21598.756,104.934
21605.060,93.505
21614.199,83.696
21619.250,83.602
21624.263,91.467
21626.741,95.258
21634.238,109.178
21639.638,120.639
21645.320,129.810
21647.934,135.615
21656.310,153.016
21661.708,159.128
21664.304,164.687
21669.909,172.048
21678.704,188.154
21683.984,199.233
21686.622,203.878
21692.425,212.693
21701.167,227.005
21704.365,230.375
21713.682,235.604
21720.272,235.289
21723.484,233.525
21729.991,229.326
21736.340,227.420
21742.674,222.354
21752.687,213.339
21759.268,208.514
21762.668,205.034
21772.733,195.982
21779.773,189.125
21783.067,186.163
21793.216,176.956
21800.404,169.993
21803.881,169.844
21814.330,169.108
21820.999,172.545
21824.523,174.890
21831.535,179.805
21838.587,184.609
21845.612,190.430
21852.719,192.335
21860.002,193.402
21867.035,192.551
21874.202,189.427
21881.626,184.947
21888.758,178.102
21895.627,170.458
21906.376,159.949
21909.911,157.003
21917.024,148.774
21924.216,142.180
21931.676,137.156
21938.792,132.118
21945.654,129.023
21952.523,128.931
21959.468,128.376
21966.716,126.316
21973.701,125.589
21980.702,126.533
21987.655,124.658
21994.757,121.502
22004.986,115.836
22012.466,112.516
22016.013,114.341
22022.999,115.767
22029.627,119.443
22036.318,126.356
22043.568,138.415
22050.466,151.530
22057.165,164.901
22064.050,178.745
22071.206,188.122
22078.387,196.942
22085.393,199.832
22092.519,200.229
22099.885,194.341
22107.336,186.013
22118.186,168.777
22121.829,161.902
22133.319,140.765
22136.885,135.237
22144.183,120.596
22151.576,106.958
22158.779,95.265
22165.899,84.823
22176.041,72.186
22179.479,69.309
22186.156,64.859
22192.692,64.455
22202.461,63.053
22205.604,66.601
22211.832,71.788
22221.016,78.159
22226.801,79.446
22232.853,82.331
22238.668,83.942
22244.814,81.854
22250.760,83.767
22256.132,80.650
22261.635,85.405
22267.345,85.965
22270.090,88.181
22278.271,101.963
22371.280,224.928
22410.903,256.141
22417.889,239.150
22425.252,211.289
22428.901,187.708
22439.921,118.649
22443.593,91.873
22454.337,10.611
22461.119,-36.227
22467.875,-103.586
22474.608,-146.417
22477.778,-164.873
22484.074,-200.697
22509.075,-54.713
22509.131,-55.964
22509.243,-55.238
22509.357,-54.253
22509.526,-53.801
22509.639,-55.058
22509.696,-53.306
22509.752,-52.832
22509.809,-51.001
22509.865,-49.534
22509.922,-46.210
22509.977,-42.281
22510.034,-38.046
22510.092,-32.823
22510.148,-28.536
22510.205,-23.928
22510.259,-19.788
22510.317,-15.162
22510.702,60.148
22511.080,69.558
22511.468,79.698
22532.945,22.378
22534.811,17.485
22536.654,12.636
22538.638,8.509
22540.609,3.861
22542.444,-1.312
22554.688,6.461
22555.563,10.519
22556.641,39.928
22557.251,58.521
22557.453,61.213
22557.862,71.349
22558.268,80.940
22558.674,87.103
22559.284,94.317
22559.692,97.482
22560.095,105.541
22560.503,113.244
22560.706,115.328
22560.910,117.963
22561.112,119.784
22561.316,121.932
22562.688,150.489
22564.102,158.147
22566.049,167.385
22568.008,178.767
22570.829,188.409
22573.689,207.351
22576.105,219.387
22578.494,231.649
22614.559,409.264
22621.238,397.602
22628.690,390.278
22632.470,380.834
22643.723,345.071
22647.423,331.888
22658.630,288.644
22662.333,281.843
22669.797,271.199
22677.190,264.635
22688.380,258.586
22696.050,255.429
22699.900,253.329
22707.781,251.016
22715.500,247.679
22726.746,247.569
22734.243,249.550
22738.132,251.500
22749.768,256.898
22753.597,258.643
22761.350,262.827
22769.004,265.644
22780.164,269.964
22788.117,266.548
22796.078,265.180
22799.789,262.265
22807.409,258.634
22819.152,250.080
22826.928,248.177
22830.715,247.552
22838.447,247.046
22846.290,248.738
22858.291,257.291
22866.006,263.943
22869.760,271.309
22877.336,285.218
22889.160,310.275
22893.176,319.980
22901.174,337.124
22909.565,351.904
22918.160,365.821
22926.579,372.185
22939.450,371.992
22943.800,365.146
22956.687,346.286
22961.087,337.726
22969.766,319.652
22978.297,303.749
22991.354,287.388
22999.611,278.570
23008.102,283.953
23011.987,285.893
23024.582,297.833
23028.673,303.003
23037.019,316.141
23049.759,330.386
23054.052,333.377
23066.996,336.327
23075.593,335.983
23084.518,326.658
23088.880,317.956
23097.678,305.488
23106.486,288.685
23119.345,263.724
23128.047,241.600
23137.219,224.111
23145.616,204.036
23153.971,186.858
23158.196,179.605
23170.912,163.199
23179.083,156.908
23187.231,158.110
23191.149,154.553
23199.262,157.490
23207.272,160.912
23219.328,175.045
23223.283,179.981
23231.355,188.571
23239.618,193.742
23251.750,204.844
23259.844,208.120
23268.082,210.926
23272.249,210.983
23284.909,208.075
23289.047,209.549
23301.794,202.346
23305.799,202.922
23318.318,197.691
23326.647,194.643
23335.497,193.430
23339.773,194.747
23348.538,199.162
23361.417,207.193
23370.075,215.557
23374.388,221.221
23383.077,232.697
23396.405,251.516
23405.158,264.012
23409.587,273.350
23418.575,289.342
23427.601,307.203
23441.665,328.955
23446.409,339.447
23460.672,360.410
23470.237,375.531
23475.088,380.541
23484.808,390.189
23494.394,397.048
23509.200,393.656
23519.433,395.317
23529.792,382.996
23540.232,378.843
23550.697,356.769
23555.810,349.640
23566.165,328.688
23576.519,306.654
23592.020,273.457
23596.954,263.757
23607.000,244.167
23621.885,218.635
23631.441,207.805
23641.058,199.854
23650.644,195.884
23655.531,193.999
23669.952,195.528
23679.466,204.584
23688.602,211.589
23697.960,221.005
23707.031,229.074
23844.455,152.181
23855.990,167.087
23860.099,173.947
23871.258,199.048
23874.862,206.634
23885.860,228.218
23890.035,223.708
23898.280,215.166
23906.601,184.667
23914.534,156.781
23926.444,70.080
23930.605,43.352
23938.797,-29.469
23950.775,-115.375
23954.528,-143.274
23965.341,-197.653
23968.418,-206.706
23974.030,-206.724
23979.914,-168.336
23984.360,-135.134
23987.273,-85.324
23990.106,-15.427
23991.855,-4.993
23996.866,41.888
23999.866,93.810
24000.014,98.196
24000.317,107.306
24000.769,120.280
24000.919,123.618
24001.221,129.140
24001.523,133.016
24001.825,135.742
24002.277,140.882
24002.427,142.383
24002.729,146.539
24003.032,149.619
24003.182,151.460
24003.334,153.848
24003.485,156.030
24003.634,163.933
24003.786,171.981
24003.939,181.193
24004.088,191.070
24004.238,199.777
24004.389,208.393
24004.538,217.887
24004.738,319.011
24008.038,348.017
24011.372,378.090
24014.762,409.669
24018.150,439.293
24085.824,590.015
24098.921,554.835
24103.150,550.618
24117.041,533.413
24121.817,535.697
24136.271,540.168
24146.537,545.532
24155.675,543.498
24160.657,539.231
24170.922,534.029
24186.877,520.913
24196.979,508.805
24201.845,496.416
24211.424,476.942
24221.643,458.491
24231.876,436.280
24247.458,400.026
24252.763,385.586
24268.409,357.493
24278.781,334.952
24283.588,326.053
24293.458,311.136
24302.725,298.931
24311.309,293.499
24324.439,286.222
24328.729,285.751
24337.810,282.643
24351.432,279.379
24355.760,278.263
24364.508,277.622
24377.920,281.432
24382.225,279.616
24395.541,288.148
24404.433,295.621
24413.831,299.149
24417.782,302.326
24431.479,308.836
24435.512,305.713
24448.247,298.659
24452.747,293.287
24461.702,284.064
24469.898,268.137
24481.557,247.000
24489.538,231.848
24497.940,218.745
24502.067,210.878
24510.652,198.419
24518.306,190.456
24530.530,179.592
24534.278,177.807
24546.229,172.698
24550.345,173.126
24558.271,173.475
24565.690,173.468
24573.021,173.263
24580.663,172.723
24591.870,176.681
24600.041,182.427
24606.837,186.706
24613.581,202.941
24616.607,212.182
24623.518,232.261
24630.617,258.537
24641.070,292.138
24648.172,307.106
24657.190,320.388
24664.294,328.610
24671.009,325.710
24675.177,325.379
24683.271,323.239
24691.322,323.273
24703.384,316.984
24710.568,319.668
24718.592,319.851
24726.764,320.245
24735.524,325.105
24743.314,326.505
24747.522,326.485
24760.962,321.374
24765.128,322.025
24773.617,318.431
24786.645,314.703
24790.874,313.063
24799.608,313.591
24807.968,317.482
24820.337,319.706
24824.659,325.066
24837.413,328.330
24841.789,333.025
24851.135,331.601
24861.100,330.092
24875.383,312.954
24884.446,304.655
24888.862,299.870
24902.718,280.918
24907.171,279.794
24919.436,266.306
24928.519,273.422
24932.983,272.839
24945.825,283.415
24949.974,288.423
24962.762,304.952
24971.554,317.635
24980.157,325.352
24988.993,330.677
24993.309,331.054
25001.759,332.706
25010.293,328.606
25018.650,327.485
25030.945,316.555
25039.185,303.194
25048.394,289.935
25057.743,273.344
25062.353,262.688
25076.439,238.091
25085.464,238.948
25094.451,223.369
25102.498,231.436
25110.616,246.744
25114.731,250.891
25126.471,280.178
25130.302,285.950
25142.539,313.104
25146.926,316.031
25155.246,323.572
25162.454,321.410
25173.364,296.268
25181.900,263.620
25191.409,227.996
25200.205,192.711
25208.211,130.370
25212.686,104.939
25224.483,25.424
25232.626,-25.676
25240.872,-55.044
25247.391,-78.822
25253.254,-83.135
25256.022,-82.449
25265.788,-78.225
25271.513,-60.737
25276.329,-54.267
25281.622,-36.213
25286.410,-23.811
25288.624,-21.696
25293.512,-8.638
25300.650,34.209
25302.814,48.810
25307.805,89.475
25313.333,126.674
25321.054,204.426
25327.271,243.387
25329.842,266.498
25335.680,303.554
25342.119,330.268
25349.057,358.051
25360.858,372.113
25367.280,376.895
25370.198,378.024
25379.488,373.726
25386.737,378.197
25393.892,364.564
25402.093,359.901
25410.861,347.740
25419.768,335.285
25424.033,326.388
25432.475,312.736
25444.512,280.959
25452.196,264.500
25456.143,258.472
25467.824,242.737
25471.792,238.625
25479.087,233.248
25486.238,229.204
25494.501,230.513
25507.719,234.977
25512.208,234.868
25520.574,237.397
25528.558,240.191
25536.809,243.373
25548.925,250.963
25555.887,255.801
25560.083,255.579
25568.216,260.769
25579.956,272.130
25583.620,276.552
25594.768,293.814
25598.283,299.101
25605.741,310.891
25616.378,326.852
25620.470,329.895
25628.698,337.819
25641.001,342.938
25644.933,339.054
25652.750,336.290
25665.648,328.728
25669.303,324.433
25681.072,310.315
25685.285,306.547
25693.383,301.645
25701.413,296.262
25709.775,294.024
25722.344,292.339
25730.843,292.286
25734.776,292.830
25746.770,293.308
25755.358,284.314
25763.196,278.124
25771.302,270.850
25774.872,263.661
25782.133,245.368
25794.218,218.959
25798.668,211.700
25811.833,184.765
25815.434,179.056
25825.958,161.579
25834.517,162.416
25838.010,161.698
25845.016,164.745
25855.484,178.055
25859.057,190.295
25866.542,207.981
25873.848,229.544
25881.081,247.697
25893.215,266.885
25897.061,273.340
25904.625,278.679
25912.535,277.471
25924.134,259.626
25927.901,253.489
25934.876,240.305
25945.570,217.965
25952.670,207.489
25956.391,211.819
25967.071,220.663
25974.114,238.018
25977.170,241.921
25987.608,285.861
25995.185,326.891
25998.756,346.222
26016.984,450.242
26020.898,470.392
26033.032,510.585
26041.625,518.500
26046.023,511.587
26059.374,484.319
26063.729,475.670
26073.368,445.005
26083.237,409.498
26092.507,376.196
26105.646,327.372
26110.656,315.863
26120.101,295.568
26129.235,277.161
26138.367,265.258
26146.713,255.268
26154.211,247.857
26166.155,238.031
26170.151,234.321
26183.094,211.179
26187.139,204.291
26200.255,177.683
26204.152,168.309
26216.891,133.606
26221.149,127.667
26229.148,109.164
26236.192,75.085
26246.847,29.613
26249.888,21.356
26256.073,-9.278
26266.185,-64.375
26272.372,-88.802
26275.484,-98.578
26281.291,-124.908
26288.618,-96.935
26292.814,-102.669
26298.038,-76.205
26299.339,-48.078
26302.491,20.359
26303.192,49.033
26304.598,96.830
26308.559,169.408
26311.265,208.041
26313.499,223.441
26317.867,259.702
26325.533,307.462
26330.579,333.082
26332.649,338.041
26340.529,373.018
26343.256,381.283
26352.001,396.452
26355.129,400.412
26361.084,399.472
26367.269,395.085
26377.979,376.586
26381.382,372.233
26392.239,352.725
26399.261,338.284
26406.188,329.115
26413.497,319.758
26420.555,314.998
26427.498,311.194
26431.390,310.899
26443.909,309.915
26452.201,311.464
26459.040,315.267
26466.050,317.945
26473.739,323.065
26480.374,326.817
26484.020,328.938
26491.643,334.147
26499.690,339.380
26511.029,347.357
26514.079,348.695
26524.507,354.320
26532.298,355.478
26539.600,356.212
26546.190,356.265
26554.012,354.592
26561.138,353.375
26564.599,352.442
26575.086,345.447
26581.720,338.627
26585.262,333.686
26592.517,324.460
26603.989,310.303
26607.289,304.742
26618.592,294.755
26622.519,290.625
26633.596,279.114
26640.840,273.941
26643.859,270.704
26653.671,264.195
26660.529,260.550
26667.369,256.355
26670.733,252.286
26677.285,244.576
26683.458,238.666
26689.482,235.925
26695.905,231.781
26705.642,228.904
26711.877,225.154
26715.226,227.045
26724.677,231.135
26727.154,233.505
26732.195,238.114
26739.420,244.350
26744.924,249.363
26751.356,251.654
26757.324,252.757
26762.645,251.909
26768.894,251.057
26774.399,249.353
26777.237,248.234
26782.819,245.651
26788.307,242.919
26796.502,239.044
26799.155,238.486
26807.812,234.897
26814.205,231.693
26820.364,229.452
26826.199,227.440
26832.245,227.996
26838.158,228.063
26843.348,231.222
26848.506,234.166
26850.920,236.945
26858.915,242.297
26865.097,246.037
26869.482,247.578
26874.811,251.436
26877.057,255.268
26883.941,259.295
26889.612,261.369
26896.273,264.032
26899.177,266.154
26907.153,268.375
26913.090,268.478
26919.040,269.539
26924.527,269.509
26927.038,270.856
26935.931,273.667
26941.965,273.647
26944.765,276.372
26950.461,281.592
26958.728,289.332
26964.621,297.047
26969.694,307.360
26976.354,315.958
26982.080,322.889
26984.816,324.399
26990.474,328.510
26998.998,329.978
27002.167,325.599
27011.813,318.997
27017.812,308.062
27020.828,297.460
27031.155,277.118
27034.354,269.813
27043.074,247.888
27045.927,240.396
27051.377,230.245
27060.139,218.641
27065.592,215.596
27070.986,219.773
27075.745,224.017
27078.487,226.957
27083.916,228.598
27089.059,232.283
27093.815,232.967
27101.662,227.321
27103.939,225.393
27111.397,212.218
27116.769,201.202
27119.058,193.601
27123.346,184.847
27128.983,175.708
27131.164,168.916
27135.643,163.169
27142.494,160.739
27147.910,162.804
27151.341,160.994
27153.018,158.263
27158.644,162.042
27160.733,159.787
27166.555,161.950
27168.425,160.495
27174.670,152.066
27179.081,145.894
27181.269,141.814
27185.704,131.068
27190.231,115.970
27194.782,101.647
27201.744,84.662
27204.062,78.170
27208.663,69.645
27215.111,61.769
27217.012,56.771
27220.835,57.268
27227.772,53.580
27230.423,50.716
27237.992,48.138
27240.622,44.224
27248.360,38.873
27251.010,38.147
27256.504,33.948
27264.266,24.415
27266.897,20.532
27272.632,19.336
27278.636,11.823
27287.533,4.602
27293.903,-6.501
27296.771,-2.171
27302.600,-5.918
27311.365,-10.703
27314.426,-3.162
27323.708,-3.264
27330.290,3.657
27333.702,11.830
27343.433,23.999
27346.735,33.796
27356.596,46.791
27359.957,57.603
27366.743,69.128
27373.785,88.687
27381.192,106.345
27392.606,148.679
27400.449,176.282
27404.087,195.885
27411.386,230.510
27418.672,265.882
27430.613,318.012
27434.551,337.561
27442.899,362.211
27452.409,394.835
27462.323,411.203
27477.193,421.148
27482.027,425.351
27491.360,417.327
27505.192,382.503
27515.844,324.829
27524.928,295.348
27535.363,234.205
27540.660,198.642
27555.740,100.968
27560.724,68.083
27576.168,-30.996
27580.788,-42.285
27593.677,-82.177
27597.925,-88.845
27610.489,-77.382
27614.936,-63.424
27627.694,-5.873
27634.270,45.084
27641.087,114.066
27644.128,129.489
27650.700,178.042
27660.903,260.791
27664.537,274.228
27675.416,335.431
27679.987,337.221
27688.937,354.552
27701.915,368.363
27705.930,363.089
27713.962,355.734
27722.091,345.386
27734.881,335.655
27738.936,329.096
27751.406,323.895
27755.485,324.449
27763.433,326.578
27771.196,328.942
27779.278,328.216
27791.699,328.284
27800.000,325.393
27808.887,320.322
27812.954,318.913
27821.881,309.661
27831.500,300.257
27845.526,280.067
27850.217,274.806
27859.367,264.247
27872.585,247.824
27876.529,245.550
27884.330,236.549
27897.495,223.431
27905.848,214.143
27914.174,207.133
27921.969,197.124
27929.810,186.847
27933.735,182.030
27941.605,174.344
27953.276,171.013
27961.541,168.432
27965.055,171.336
27976.334,176.713
27980.033,179.823
27991.042,188.683
27994.832,190.188
28002.870,194.118
28010.547,194.342
28021.403,194.763
28028.915,194.586
28036.636,192.600
28040.403,189.834
28052.017,183.786
28059.720,177.914
28063.708,177.142
28075.211,170.632
28082.174,166.424
28089.861,165.418
28096.801,166.481
28103.862,168.510
28110.880,170.215
28117.499,174.674
28120.990,176.971
28128.151,179.716
28139.394,185.187
28143.051,186.455
28153.603,187.881
28161.209,190.249
28164.798,191.837
28174.545,194.054
28177.967,195.775
28188.794,196.263
28192.696,196.693
28203.315,193.515
28206.912,193.264
28214.007,188.851
28220.661,179.943
28230.980,166.646
28238.599,156.170
28242.010,152.422
28252.769,134.928
28259.386,128.618
28262.475,126.950
28272.752,130.014
28276.282,130.678
28283.112,136.479
28289.981,147.261
28296.600,160.637
28306.400,188.254
28309.517,191.409
28315.922,197.807
28326.203,204.607
28329.898,194.972
28340.904,179.522
28344.675,168.668
28355.382,136.120
28361.958,112.447
28368.651,86.538
28372.087,78.379
28382.537,52.046
28385.749,46.389
28395.044,34.499
28398.340,29.279
28407.521,27.298
28413.235,37.200
28415.940,39.464
28423.307,57.673
28428.995,71.925
28434.497,97.264
28440.600,115.343
28443.142,124.844
28448.573,144.546
28457.350,176.156
28463.222,194.231
28466.251,208.721
28474.397,233.116
28480.655,256.985
28483.705,265.508
28490.318,277.999
28501.476,295.957
28504.792,294.428
28511.529,295.979
28518.996,287.435
28526.604,277.783
28539.130,251.437
28543.273,241.316
28553.589,214.839
28557.154,202.673
28569.024,166.584
28573.051,158.456
28585.056,130.286
28592.649,116.127
28599.348,107.433
28602.840,107.080
28613.903,114.055
28617.420,115.239
28624.466,126.456
28635.432,156.032
28638.540,164.581
28648.872,199.356
28655.905,224.024
28659.499,232.777
28669.638,262.206
28672.737,263.299
28682.983,276.372
28690.972,269.576
28698.194,263.750
28701.646,258.441
28712.350,244.113
28715.429,242.035
28725.680,238.694
28732.797,242.345
28740.174,250.142
28744.235,253.872
28756.063,270.358
28763.162,279.075
28766.781,280.519
28773.600,282.369
28783.593,277.236
28790.496,270.425
28798.227,260.751
28806.397,248.294
28814.061,236.612
28829.185,217.441
28836.795,209.768
28843.840,206.142
28850.352,202.705
28857.325,199.614
28864.584,195.071
28885.100,178.196
28891.513,174.656
28898.370,162.425
28904.839,147.582
28911.836,136.302
28914.641,125.427
28923.628,97.084
28930.723,78.033
28933.958,71.347
28944.062,52.477
28948.676,42.455
28954.857,53.846
28983.053,167.989
28988.969,180.803
28994.270,195.028
28996.938,188.775
29005.957,174.164
29012.314,158.554
29018.981,121.100
29031.407,38.310
" /><polyline class="data" points="
" />
<!-- CUT -->
<!-- RANGE 0.0,-439.8300727541127 29031.40699075077,628.2424147876266 -->



<animateTransform attributeName="transform" type="scale" fill="freeze" values="0.03444545420477189 -0.20805912034461796" />
<animateTransform attributeName="transform" type="translate" fill="freeze" additive="sum" values="-14515.703495375385 -94.20617101675703" />
<line class="grid" x1="2500.000" y1="-506.585" x2="2500.000" y2="694.997" />
<line class="grid" x1="5000.000" y1="-506.585" x2="5000.000" y2="694.997" />
<line class="grid" x1="7500.000" y1="-506.585" x2="7500.000" y2="694.997" />
<line class="grid" x1="10000.000" y1="-506.585" x2="10000.000" y2="694.997" />
<line class="grid" x1="12500.000" y1="-506.585" x2="12500.000" y2="694.997" />
<line class="grid" x1="15000.000" y1="-506.585" x2="15000.000" y2="694.997" />
<line class="grid" x1="17500.000" y1="-506.585" x2="17500.000" y2="694.997" />
<line class="grid" x1="20000.000" y1="-506.585" x2="20000.000" y2="694.997" />
<line class="grid" x1="22500.000" y1="-506.585" x2="22500.000" y2="694.997" />
<line class="grid" x1="25000.000" y1="-506.585" x2="25000.000" y2="694.997" />
<line class="grid" x1="27500.000" y1="-506.585" x2="27500.000" y2="694.997" />
<line class="grid" x1="0.000" y1="-500.000" x2="29031.407" y2="-500.000" />
<line class="grid" x1="0.000" y1="-250.000" x2="29031.407" y2="-250.000" />
<line class="grid" x1="0.000" y1="0.000" x2="29031.407" y2="0.000" />
<line class="grid" x1="0.000" y1="250.000" x2="29031.407" y2="250.000" />
<line class="grid" x1="0.000" y1="500.000" x2="29031.407" y2="500.000" />
<defs>
<pattern id="smallGrid" patternUnits="userSpaceOnUse" width="500.0" height="50.0">
<polyline class="grid" points="0,0 500.0,0 500.0,50.0" />
</pattern>
</defs>
<rect class="frame" fill="url(#smallGrid)" x="0.0" y="-506.58460322547137" width="29031.40699075077" height="1201.5815484844568" />
<g xml:space="preserve" transform="translate(14515.703495375385 94.20617101675703) scale(29.031406990750767 -4.806326193937827)">
<text class="markerArg" font-size="13.0" x="-413.886" y="125.000">2,5</text>
<text class="markerArg" font-size="13.0" x="-327.773" y="125.000">5</text>
<text class="markerArg" font-size="13.0" x="-241.659" y="125.000">7,5</text>
<text class="markerArg" font-size="13.0" x="-155.545" y="125.000">10</text>
<text class="markerArg" font-size="13.0" x="-69.432" y="125.000">12,5</text>
<text class="markerArg" font-size="13.0" x="16.682" y="125.000">15</text>
<text class="markerArg" font-size="13.0" x="102.795" y="125.000">17,5</text>
<text class="markerArg" font-size="13.0" x="188.909" y="125.000">20</text>
<text class="markerArg" font-size="13.0" x="275.023" y="125.000">22,5</text>
<text class="markerArg" font-size="13.0" x="361.136" y="125.000">25</text>
<text class="markerArg" font-size="13.0" x="447.250" y="125.000">27,5</text>
<text class="markerVal" font-size="13.0" x="-500.000" y="123.630">-500 </text>
<text class="markerVal" font-size="13.0" x="-500.000" y="71.615">-250 </text>
<text class="markerVal" font-size="13.0" x="-500.000" y="19.600">0 </text>
<text class="markerVal" font-size="13.0" x="-500.000" y="-32.414">250 </text>
<text class="markerVal" font-size="13.0" x="-500.000" y="-84.429">500 </text>
<text class="labelArg" font-size="15.0" x="0.000" y="150.000">Расстояние [км]</text>
<text class="labelVal" font-size="15.0" x="-500.000" y="-150.000">Мощность [Ватт]</text>
<text class="title" font-size="20.0" x="0.000" y="-235.000">Urban Biker – Road – 5 Ноя 2015 г. 20:25</text>
<a target="_blank" xlink:href="https://play.google.com/store/apps/details?id=com.sublimis.urbanbiker">
<text class="about" font-size="11.0" x="0.000" y="235.000">Created with Urban Biker — 5 Ноя 2015 г. 21:44</text>
</a>
</g>

</g>
</svg>
