<svg
	xmlns="http://www.w3.org/2000/svg" xmlns:xlink="http://www.w3.org/1999/xlink"
	width="1200" height="500" preserveAspectRatio="none"
	viewBox="-600 -250 1200 500"
	>

<defs><style type="text/css"><![CDATA[
	.data {stroke: red; stroke-width: 1; stroke-linecap: round; stroke-linejoin: round; vector-effect: non-scaling-stroke; fill:none;}
	.frame {stroke: gray; stroke-width: 2; stroke-opacity: 1; vector-effect: non-scaling-stroke;}
	.grid {stroke: black; stroke-width: 1; stroke-opacity: 0.17; vector-effect: non-scaling-stroke; fill:none;}
	.markerArg {text-anchor: middle; dominant-baseline: text-before-edge; font-family: Verdana; fill: black; fill-opacity: 0.60; stroke-width: 0; stroke-opacity: 0.60; vector-effect: non-scaling-stroke;}
	.markerVal {text-anchor: end; dominant-baseline: middle; font-family: Verdana; fill: black; fill-opacity: 0.60; stroke-width: 0; stroke-opacity: 0.60; vector-effect: non-scaling-stroke;}
	.labelArg {text-anchor: middle; dominant-baseline: text-before-edge; font-family: Verdana; fill: black; fill-opacity: 0.60; stroke-width: 0; stroke-opacity: 0.60; vector-effect: non-scaling-stroke;}
	.labelVal {text-anchor: middle; font-family: Verdana; fill: black; fill-opacity: 0.60; stroke-width: 0; stroke-opacity: 0.60; vector-effect: non-scaling-stroke;}
	.title {text-anchor: middle; dominant-baseline: hanging; font-family: Verdana; fill: black; fill-opacity: 0.90; stroke-width: 0; stroke-opacity: 0.90; vector-effect: non-scaling-stroke;}
	.about {text-anchor: middle; font-weight: bold; font-style: italic; font-family: Verdana; fill: black; fill-opacity: 0.60; stroke-width: 0; stroke-opacity: 0.60; vector-effect: non-scaling-stroke;}
	]]></style></defs>


<metadata>
<rdf:RDF xmlns:rdf="http://www.w3.org/1999/02/22-rdf-syntax-ns#" xmlns:dc="http://purl.org/dc/elements/1.1/">
<rdf:Description>
<dc:creator>Urban Biker</dc:creator>
<dc:description>Расстояние [км] — Высота [м.]</dc:description>
<dc:title>Urban Biker – Road – 5 Ноя 2015 г. 20:25</dc:title>
<dc:date>2015-11-05T18:25:48.286Z</dc:date>
<dc:subject>Road</dc:subject>
<dc:type>distance-altitude</dc:type>
</rdf:Description>
</rdf:RDF>
</metadata>

<g>

<polyline class="data" points="
0.000,180.745
2.819,173.465
39.050,170.351
43.515,169.478
45.348,169.128
49.973,168.365
54.297,167.702
59.156,167.019
66.762,165.956
73.443,165.306
81.739,165.119
114.041,165.172
128.160,164.860
131.358,163.336
137.547,162.818
144.302,162.449
149.286,162.306
154.665,162.271
160.407,162.368
166.191,162.621
172.406,162.737
178.722,162.872
184.640,163.085
191.706,163.104
199.652,163.039
205.231,163.217
211.584,163.001
219.163,162.972
227.139,162.892
235.099,162.726
243.045,162.486
249.994,162.388
257.303,162.205
264.795,161.963
272.459,161.768
280.180,161.560
287.521,161.357
294.501,161.149
301.541,160.867
308.453,160.665
315.504,160.428
322.732,160.205
329.997,160.006
336.409,159.915
341.536,159.808
346.813,159.637
352.962,159.510
358.480,159.489
364.020,159.338
370.985,159.315
378.286,159.116
385.485,159.056
392.984,159.034
400.676,159.041
408.043,159.277
415.435,159.165
422.551,159.304
429.232,159.622
436.097,159.783
442.747,159.799
449.175,160.013
455.778,160.268
461.871,160.643
468.097,160.773
475.475,161.181
481.948,161.371
489.116,161.765
497.193,162.069
505.401,162.490
512.649,162.885
519.293,163.293
525.177,163.688
530.982,164.033
536.352,164.394
541.503,164.706
547.361,165.072
553.903,165.515
561.930,166.011
570.301,166.502
578.758,167.062
587.554,167.605
595.545,168.069
603.172,168.483
610.635,168.639
618.058,168.955
625.432,169.373
632.942,169.430
640.494,169.578
647.465,169.855
654.281,169.890
661.593,169.669
667.667,169.764
672.669,169.307
678.105,169.109
684.022,168.786
689.975,168.499
696.135,168.241
702.505,167.979
708.370,167.834
714.164,167.620
720.312,167.353
726.742,166.854
732.344,166.609
737.697,166.399
742.526,166.192
746.755,166.018
751.737,165.811
757.127,165.569
762.948,165.303
768.494,165.093
773.901,164.853
778.740,164.557
783.477,164.383
787.734,164.182
791.364,163.903
795.254,163.707
801.747,163.509
809.000,163.195
816.216,162.969
823.440,162.714
834.862,162.383
844.475,162.059
853.441,161.808
861.902,161.634
861.935,161.552
897.961,160.778
906.901,160.701
915.679,160.665
924.505,160.646
931.875,160.649
938.943,160.646
945.562,160.655
952.532,160.653
958.975,160.657
964.672,160.659
970.627,160.693
976.551,160.706
980.027,160.728
983.707,160.740
988.115,160.759
992.476,160.776
997.487,160.767
1002.319,160.810
1007.937,160.832
1014.105,160.857
1020.191,160.887
1026.238,160.863
1032.706,160.906
1039.372,160.939
1045.957,160.972
1052.419,160.982
1059.398,161.000
1065.833,161.008
1072.267,161.013
1078.821,161.004
1085.542,160.986
1092.771,161.028
1099.730,160.948
1107.199,160.925
1114.845,160.891
1122.173,160.915
1128.527,160.848
1134.800,160.780
1142.205,160.692
1146.687,160.605
1150.886,160.506
1156.551,160.314
1161.589,160.185
1166.826,160.132
1173.093,159.973
1180.310,159.794
1187.841,159.520
1194.785,159.402
1201.400,159.142
1209.094,158.912
1218.076,158.689
1226.740,158.384
1235.128,158.139
1242.431,157.882
1250.105,157.589
1258.539,157.282
1265.276,157.040
1273.516,156.716
1280.691,156.424
1287.721,156.189
1294.911,155.894
1301.850,155.643
1308.765,155.363
1315.423,155.096
1321.231,154.894
1327.987,154.643
1335.250,154.389
1341.210,154.209
1348.030,154.015
1355.891,153.781
1363.895,153.673
1372.375,153.459
1380.758,153.259
1389.218,153.076
1396.839,152.927
1404.396,152.806
1412.335,152.712
1419.487,152.651
1426.175,152.616
1432.868,152.597
1439.455,152.594
1445.802,152.590
1452.363,152.578
1458.481,152.560
1463.813,152.541
1468.522,152.522
1473.147,152.515
1477.594,152.512
1482.648,152.518
1487.240,152.516
1491.964,152.501
1496.514,152.483
1499.974,152.484
1503.339,152.506
1506.280,152.578
1508.032,152.619
1524.405,158.469
1529.316,161.768
1534.048,162.992
1538.581,164.326
1543.764,164.709
1550.189,164.969
1556.047,165.152
1561.870,165.430
1568.431,165.767
1574.459,166.009
1580.253,166.274
1591.864,166.838
1598.231,167.151
1602.702,167.349
1606.744,167.507
1610.681,167.650
1615.459,167.824
1620.423,167.977
1625.843,168.115
1632.255,168.229
1637.946,168.329
1644.378,168.488
1650.227,168.694
1656.489,168.751
1661.907,168.679
1667.762,168.592
1673.634,168.482
1679.699,168.327
1685.591,168.156
1691.045,167.979
1695.808,167.849
1699.737,167.754
1704.532,167.683
1709.523,167.602
1713.830,167.512
1717.628,167.580
1720.887,167.534
1723.947,167.497
1727.296,167.500
1730.893,167.470
1734.344,167.491
1737.738,167.513
1741.756,167.591
1746.367,167.628
1752.226,167.644
1755.763,167.921
1759.164,167.938
1762.704,167.970
1765.658,168.004
1768.815,168.052
1771.971,168.111
1774.694,168.170
1777.583,168.248
1780.400,168.350
1783.626,168.475
1787.100,168.620
1790.535,168.774
1793.377,168.896
1796.474,169.067
1798.674,169.216
1812.426,170.016
1815.646,170.288
1818.768,170.518
1821.819,170.709
1824.709,170.940
1827.647,171.186
1830.741,171.428
1833.767,171.635
1855.178,173.220
1857.875,173.405
1860.339,173.574
1862.591,173.703
1865.282,173.876
1865.292,173.877
1870.428,174.177
1873.031,174.331
1882.785,174.851
1885.598,174.962
1888.814,175.139
1891.998,175.369
1895.601,175.553
1898.981,175.675
1902.126,175.867
1905.556,176.068
1909.606,176.240
1913.327,176.424
1917.261,176.578
1920.090,176.735
1922.237,176.828
1923.790,176.934
1925.298,177.000
1927.582,177.141
1930.314,177.284
1933.466,177.485
1936.245,177.649
1939.229,177.869
1942.473,178.025
1945.712,178.295
1949.537,178.447
1953.137,178.673
1956.820,178.921
1959.784,179.089
1962.299,179.285
1964.999,179.469
1967.971,179.671
1970.869,179.873
1973.374,180.037
1976.026,180.211
1979.372,180.446
1982.530,180.702
1985.858,180.955
1989.045,181.213
1991.949,181.408
1994.051,181.612
1996.302,181.757
1998.371,181.937
2000.845,182.133
2003.739,182.340
2005.688,182.510
2007.765,182.667
2010.070,182.863
2012.511,183.052
2014.713,183.246
2017.256,183.464
2019.679,183.642
2021.800,183.838
2023.457,183.993
2026.070,184.213
2028.456,184.447
2030.605,184.617
2033.106,184.849
2035.622,185.093
2037.818,185.281
2040.157,185.534
2042.524,185.733
2045.730,186.066
2048.912,186.368
2051.187,186.615
2053.626,186.869
2056.961,187.201
2060.295,187.557
2063.470,187.878
2065.938,188.124
2068.306,188.365
2070.112,188.527
2072.492,188.760
2075.944,189.150
2078.624,189.447
2081.371,189.600
2083.723,189.863
2086.281,190.086
2088.597,190.235
2091.438,190.498
2094.591,190.705
2097.616,190.992
2100.510,191.209
2102.898,191.355
2104.979,191.526
2106.700,191.681
2108.481,191.886
2109.666,191.946
2111.517,192.156
2114.266,192.350
2117.169,192.619
2120.038,192.788
2123.343,192.993
2126.337,193.297
2129.116,193.437
2132.567,193.695
2135.644,193.959
2138.864,194.175
2152.334,195.254
2160.237,196.020
2163.018,196.272
2163.117,196.279
2172.131,197.148
2182.963,198.140
2185.980,198.418
2188.192,198.723
2190.003,198.865
2192.186,199.034
2194.828,199.306
2197.187,199.663
2199.599,199.988
2201.484,200.189
2203.168,200.381
2204.755,200.573
2205.971,200.725
2210.536,202.374
2213.151,204.777
2217.502,205.360
2220.528,206.259
2224.590,206.601
2233.333,207.309
2237.218,208.786
2241.329,208.948
2244.857,209.042
2249.298,209.140
2254.473,209.217
2259.331,209.312
2264.637,209.405
2270.572,209.499
2276.789,209.589
2288.188,209.674
2293.496,209.708
2299.111,209.729
2304.644,209.734
2310.334,209.725
2316.257,209.707
2322.405,209.685
2328.888,209.653
2335.285,209.711
2342.016,209.593
2348.473,209.666
2355.343,209.541
2361.956,209.324
2368.555,209.244
2375.347,209.191
2381.442,208.900
2387.804,208.706
2393.661,208.582
2399.995,208.272
2406.459,208.015
2412.421,207.819
2417.971,207.472
2423.322,207.286
2428.702,206.916
2434.532,206.691
2440.368,206.393
2446.692,206.035
2453.244,205.657
2460.632,205.223
2468.506,204.745
2476.934,204.137
2485.350,203.614
2492.972,203.056
2500.097,202.545
2508.268,201.864
2516.186,201.274
2523.998,200.649
2532.068,200.040
2540.361,199.347
2548.333,198.684
2556.653,198.032
2564.259,197.428
2572.002,196.810
2579.443,196.314
2584.544,195.921
2590.351,195.457
2595.990,195.068
2601.925,194.613
2607.474,194.249
2613.124,193.856
2618.813,193.487
2624.212,193.098
2629.401,192.808
2634.714,192.470
2640.354,192.068
2646.066,191.725
2651.557,191.423
2656.882,191.174
2662.035,190.814
2662.111,190.954
2678.905,190.061
2684.398,189.915
2689.231,189.697
2693.949,189.584
2698.820,189.354
2703.716,189.197
2708.375,189.061
2713.063,188.933
2717.601,188.865
2722.327,188.725
2731.636,188.491
2741.156,188.279
2746.004,188.129
2750.636,188.022
2754.966,187.929
2758.920,187.803
2762.743,187.728
2770.721,187.510
2775.446,187.340
2787.460,186.982
2791.813,186.831
2797.210,186.674
2802.389,186.552
2806.415,186.427
2810.394,186.292
2813.774,186.126
2818.084,185.995
2822.973,185.851
2829.315,185.678
2834.529,185.554
2839.930,185.374
2844.404,185.240
2848.787,185.111
2865.171,184.682
2872.159,184.511
2879.513,184.268
2886.600,184.146
2893.368,183.925
2900.275,183.763
2906.742,183.683
2913.089,183.555
2919.036,183.487
2925.202,183.406
2931.202,183.489
2937.311,183.362
2943.955,183.436
2957.322,183.414
2963.376,183.431
2969.545,183.469
2975.866,183.523
2982.080,183.599
2988.243,183.700
2994.665,183.845
3000.989,184.035
3007.416,184.262
3014.305,184.514
3020.503,184.730
3025.386,184.911
3035.857,185.332
3044.668,185.868
3053.454,186.911
3057.909,187.705
3062.899,188.881
3068.173,189.709
3072.792,190.226
3077.258,190.300
3081.093,190.298
3083.019,190.248
3085.538,190.105
3086.869,190.026
3090.316,190.892
3093.391,191.045
3097.337,191.169
3101.725,191.266
3106.801,191.333
3112.658,191.461
3117.478,191.596
3123.160,191.770
3128.651,191.914
3133.687,192.060
3139.092,192.175
3143.486,192.233
3148.873,192.284
3161.163,192.308
3168.141,192.262
3171.281,191.788
3172.626,191.572
3174.420,191.569
3175.934,191.358
3177.282,190.962
3180.612,190.703
3182.330,190.446
3184.257,190.317
3186.260,190.299
3188.161,190.207
3190.330,190.106
3192.295,189.878
3194.525,189.787
3197.782,189.650
3201.504,189.499
3210.671,189.163
3215.445,188.906
3219.937,188.761
3224.955,188.528
3229.790,188.212
3235.374,188.011
3241.077,187.720
3247.947,187.373
3258.729,187.007
3268.850,186.612
3279.583,185.943
3296.143,185.318
3305.044,185.017
3313.582,184.600
3321.107,184.231
3329.894,183.841
3339.329,183.540
3348.229,183.185
3356.695,182.773
3365.025,182.531
3374.069,182.253
3382.740,182.047
3391.935,181.761
3400.555,181.437
3408.801,181.302
3416.787,181.152
3425.158,180.986
3432.871,180.861
3439.698,180.754
3447.083,180.625
3454.296,180.523
3461.964,180.439
3470.082,180.337
3478.776,180.211
3487.515,180.141
3496.113,180.027
3503.430,179.965
3510.443,179.860
3517.574,179.886
3524.258,179.799
3530.372,179.774
3536.520,179.753
3542.479,179.722
3550.528,179.637
3565.355,179.508
3572.604,179.596
3580.773,179.571
3589.356,179.548
3597.179,179.531
3605.793,179.499
3613.526,179.486
3620.625,179.472
3628.385,179.461
3636.333,179.457
3644.569,179.449
3652.378,179.447
3660.343,179.462
3668.827,179.481
3677.256,179.501
3685.637,179.541
3693.609,179.543
3701.870,179.568
3718.501,179.531
3726.392,179.507
3734.709,179.478
3743.242,179.473
3751.250,179.457
3774.252,179.433
3782.184,179.463
3790.618,179.502
3799.031,179.555
3806.573,179.694
3813.987,179.773
3821.035,179.860
3827.864,179.895
3833.356,179.992
3838.492,180.130
3843.651,180.187
3848.280,180.234
3852.580,180.351
3856.830,180.434
3860.440,180.533
3863.684,180.596
3866.439,180.653
3869.981,180.722
3874.464,180.785
3880.194,180.897
3886.148,180.979
3892.986,181.107
3899.073,181.201
3905.219,181.294
3918.914,181.554
3926.919,181.685
3934.175,181.821
3941.141,181.950
3948.520,182.085
3955.833,182.195
3963.592,182.338
3971.484,182.485
3979.629,182.671
3987.475,182.839
3995.154,182.954
4009.960,183.272
4018.044,183.421
4025.331,183.559
4032.991,183.676
4040.294,183.782
4047.163,183.946
4054.632,184.130
4069.857,184.413
4077.376,184.515
4084.995,184.660
4093.213,184.870
4101.199,185.043
4109.181,185.208
4116.986,185.423
4124.229,185.640
4131.297,185.832
4138.377,186.041
4145.362,186.219
4152.615,186.420
4159.882,186.608
4167.119,186.789
4174.357,186.962
4181.729,187.166
4188.681,187.331
4195.321,187.415
4201.936,187.518
4208.466,187.602
4214.835,187.617
4220.528,187.697
4224.946,187.752
4229.199,187.723
4233.099,187.716
4236.733,187.648
4239.952,187.638
4243.725,187.676
4247.904,187.672
4252.107,187.634
4256.321,187.637
4260.220,187.667
4263.810,187.684
4267.867,187.695
4272.252,187.728
4276.259,187.749
4280.347,187.801
4284.668,187.801
4289.803,187.845
4295.965,187.858
4301.753,187.878
4301.780,187.901
4313.844,187.903
4320.257,187.924
4326.796,187.935
4341.207,187.951
4356.767,188.007
4364.718,188.040
4381.343,188.122
4389.725,188.172
4398.048,188.252
4414.164,188.442
4421.980,188.556
4429.715,188.665
4438.001,188.842
4453.520,189.112
4461.013,189.223
4468.044,189.288
4475.387,189.341
4482.614,189.321
4489.458,189.270
4495.180,189.186
4499.749,189.114
4504.015,189.032
4507.927,189.008
4512.311,188.939
4517.932,188.855
4522.778,188.816
4527.118,188.793
4530.964,188.795
4535.642,188.799
4540.266,188.800
4548.384,188.412
4558.975,188.172
4561.165,188.059
4563.578,187.993
4566.381,187.921
4569.039,187.849
4572.073,187.767
4575.619,187.695
4578.886,187.651
4582.029,187.630
4585.025,187.579
4587.997,187.558
4590.945,187.520
4594.103,187.493
4597.077,187.469
4600.129,187.446
4604.761,187.411
4607.605,187.391
4610.630,187.378
4613.515,187.355
4616.345,187.343
4619.299,187.333
4621.786,187.320
4624.664,187.315
4628.084,187.306
4630.834,187.290
4634.327,187.295
4638.290,187.272
4641.956,187.240
4646.015,187.235
4649.705,187.223
4654.104,187.208
4658.778,187.216
4663.568,187.216
4669.233,187.243
4674.560,187.262
4679.762,187.283
4684.183,187.318
4689.235,187.365
4694.384,187.422
4699.406,187.493
4704.058,187.551
4708.104,187.613
4711.817,187.660
4716.369,187.726
4721.515,187.795
4726.770,187.873
4731.292,187.928
4735.445,187.970
4740.409,188.022
4743.871,188.057
4747.299,188.096
4750.800,188.131
4753.825,188.163
4756.334,188.195
4759.216,188.214
4761.512,188.244
4766.720,188.296
4769.410,188.323
4772.054,188.349
4774.817,188.378
4777.558,188.411
4780.313,188.439
4782.462,188.463
4787.751,188.524
4791.279,188.551
4793.976,188.567
4797.263,188.597
4800.379,188.656
4802.340,188.679
4803.775,188.940
4814.470,189.436
4818.731,189.680
4822.360,189.995
4834.252,191.897
4837.158,192.408
4839.886,192.656
4842.488,193.000
4846.688,193.562
4854.861,194.404
4857.153,194.626
4859.918,194.712
4862.613,194.777
4865.013,194.832
4867.656,195.116
4870.339,195.162
4873.312,195.438
4876.657,195.576
4879.615,195.701
4882.734,195.715
4886.141,195.907
4889.422,195.910
4893.345,195.910
4897.006,195.913
4900.731,195.911
4904.805,195.915
4908.891,195.913
4912.281,195.915
4916.483,195.916
4920.763,195.912
4924.539,195.914
4927.622,195.912
4931.413,195.912
4935.644,195.934
4939.627,195.929
4943.236,195.933
4947.083,195.926
4950.720,195.927
4954.785,195.928
4958.081,195.930
4961.977,195.941
4966.197,195.938
4970.555,195.957
4975.248,195.957
4980.716,195.990
4986.001,195.994
4990.629,196.041
4995.223,196.070
4999.788,196.083
5004.249,196.121
5007.382,196.158
5010.351,196.262
5013.543,196.284
5016.207,196.305
5019.070,196.329
5022.522,196.363
5025.795,196.400
5029.062,196.439
5032.880,196.492
5036.675,196.597
5040.376,196.659
5043.444,196.721
5046.985,196.811
5051.358,196.935
5055.160,197.048
5057.647,197.125
5060.892,197.218
5062.888,197.315
5064.898,197.374
5067.676,197.473
5071.360,197.612
5075.148,197.776
5078.571,197.891
5081.470,198.022
5084.575,198.150
5087.629,198.279
5090.895,198.431
5104.350,199.054
5106.615,199.320
5110.202,199.505
5114.206,199.817
5116.608,199.982
5119.398,200.217
5124.748,200.447
5129.443,200.670
5133.723,200.822
5137.358,201.113
5141.699,201.312
5146.397,201.527
5150.323,201.612
5155.120,201.898
5160.270,202.005
5165.229,202.191
5170.092,202.418
5174.797,202.570
5179.680,202.652
5184.178,202.718
5187.738,202.760
5192.020,202.802
5196.090,202.831
5199.538,202.796
5203.508,202.801
5208.054,202.908
5212.939,202.912
5217.145,202.946
5221.546,202.928
5227.761,203.010
5233.206,203.024
5240.478,203.000
5246.041,203.001
5251.471,202.979
5257.019,203.012
5262.801,202.918
5268.911,202.892
5278.212,202.850
5283.461,202.836
5290.073,202.767
5295.673,202.742
5302.449,202.661
5310.598,202.569
5317.458,202.499
5324.191,202.396
5330.668,202.293
5338.997,202.147
5347.270,202.017
5355.473,201.877
5364.969,201.736
5374.528,201.570
5384.575,201.404
5393.245,201.255
5402.542,201.103
5412.197,200.929
5421.692,200.779
5431.823,200.611
5440.390,200.497
5448.395,200.383
5457.922,200.226
5467.338,200.093
5476.332,199.994
5484.950,199.927
5492.874,199.810
5500.538,199.746
5507.093,199.691
5513.552,199.651
5519.870,199.596
5527.223,199.544
5534.880,199.491
5542.760,199.432
5551.732,199.372
5560.518,199.321
5568.139,199.279
5576.561,199.256
5583.708,199.212
5591.665,199.178
5600.031,199.178
5607.131,199.131
5616.346,199.112
5625.862,199.100
5635.681,199.094
5644.814,199.095
5652.432,199.104
5660.453,199.114
5669.199,199.129
5676.517,199.181
5684.590,199.181
5693.013,199.238
5701.768,199.274
5709.847,199.297
5719.045,199.341
5727.069,199.382
5733.953,199.417
5740.709,199.449
5747.829,199.464
5754.142,199.496
5761.535,199.489
5769.257,199.495
5776.470,199.494
5784.324,199.489
5791.773,199.526
5798.949,199.509
5807.258,199.485
5815.385,199.382
5824.133,199.404
5833.020,199.294
5841.704,199.238
5850.096,199.181
5858.081,199.123
5866.350,199.057
5874.791,198.992
5883.124,198.918
5891.190,198.832
5899.372,198.756
5907.627,198.650
5915.686,198.550
5923.780,198.439
5932.144,198.282
5940.905,198.174
5949.239,198.030
5956.970,197.913
5965.284,197.827
5973.827,197.670
5983.305,197.540
5991.355,197.433
5999.855,197.363
6008.374,197.270
6017.798,197.175
6028.568,197.064
6037.140,196.950
6045.771,196.880
6053.757,196.819
6062.257,196.758
6070.081,196.701
6077.339,196.647
6084.721,196.591
6090.373,196.554
6096.107,196.515
6103.683,196.457
6110.702,196.385
6115.739,196.368
6120.808,196.302
6145.349,196.136
6155.427,196.073
6165.143,196.026
6175.142,195.984
6184.575,195.927
6192.838,195.892
6201.341,195.883
6210.739,195.826
6221.984,195.783
6234.116,195.740
6242.233,195.817
6251.409,195.759
6260.726,195.848
6268.927,195.833
6276.123,195.772
6284.490,195.970
6293.353,196.064
6302.312,196.173
6311.179,196.251
6318.942,196.407
6326.451,196.511
6333.845,196.834
6342.477,197.163
6350.600,197.397
6358.556,197.573
6367.095,197.855
6375.212,198.145
6382.690,198.386
6389.135,198.574
6397.354,198.816
6405.881,199.060
6413.146,199.278
6421.315,199.450
6427.991,199.596
6432.968,199.689
6439.579,199.892
6445.583,199.994
6451.058,200.070
6456.065,200.131
6465.254,200.260
6470.542,200.262
6476.347,200.351
6483.762,200.462
6501.872,200.720
6509.572,200.839
6517.574,200.805
6524.579,200.895
6530.976,200.902
6540.009,200.972
6549.727,200.935
6559.906,200.876
6569.763,200.868
6578.969,200.830
6588.069,200.725
6597.619,200.685
6606.560,200.578
6615.222,200.464
6623.957,200.360
6633.085,200.233
6642.801,200.088
6651.798,199.913
6660.571,199.792
6669.117,199.657
6676.427,199.508
6685.212,199.407
6692.377,199.307
6699.553,199.193
6707.379,199.101
6715.447,199.006
6723.638,198.889
6731.489,198.793
6738.803,198.756
6746.865,198.641
6755.357,198.535
6764.039,198.421
6771.691,198.326
6779.194,198.251
6787.684,198.201
6795.909,198.186
6803.455,198.205
6810.752,198.263
6817.187,198.348
6822.913,198.449
6828.926,198.565
6835.802,198.720
6843.213,198.882
6850.933,199.037
6858.568,199.140
6864.749,199.207
6871.264,199.226
6875.985,199.215
6881.060,199.172
6886.357,199.094
6889.894,199.031
6894.197,198.838
6897.990,198.443
6900.928,198.106
6914.118,196.871
6919.075,197.319
6920.379,197.361
6921.901,197.407
6924.976,197.614
6926.920,197.695
6931.529,198.680
6934.173,198.721
6937.636,198.745
6941.339,198.774
6946.236,198.788
6951.490,198.793
6962.365,198.845
6967.337,198.838
6971.591,198.845
6976.220,198.968
6980.050,198.997
6984.683,198.929
6990.306,198.925
6995.428,198.893
7000.791,198.848
7006.024,198.796
7011.648,198.347
7017.146,198.184
7023.096,198.134
7036.219,197.655
7045.724,197.372
7052.360,197.244
7058.401,196.890
7065.633,196.714
7072.791,196.473
7080.338,196.130
7094.282,195.461
7109.152,194.600
7115.467,194.297
7122.033,193.954
7129.016,193.566
7136.078,193.224
7142.805,192.832
7149.202,192.497
7155.624,192.171
7162.410,191.837
7185.244,190.674
7192.810,190.367
7200.744,189.995
7207.360,189.716
7213.231,189.579
7219.750,189.310
7228.848,188.965
7236.585,188.668
7245.907,188.289
7245.933,188.290
7258.032,187.832
7285.681,186.701
7292.673,186.356
7298.974,186.117
7305.431,185.816
7312.265,185.533
7319.205,185.201
7326.154,184.853
7333.234,184.381
7340.347,184.103
7347.328,183.713
7354.364,183.246
7361.502,182.843
7367.992,182.456
7375.911,181.959
7384.644,181.373
7392.241,180.905
7399.881,180.324
7407.843,179.801
7415.668,179.279
7424.167,178.669
7432.210,178.121
7440.759,177.307
7449.647,176.791
7457.950,176.302
7465.724,175.862
7473.647,175.415
7481.237,174.813
7488.835,174.422
7496.469,173.975
7503.840,173.552
7510.060,173.123
7516.418,172.856
7523.044,172.492
7529.841,172.208
7536.100,171.888
7542.257,171.520
7550.178,171.151
7558.032,170.829
7565.611,170.491
7573.321,170.134
7580.305,169.851
7587.942,169.523
7594.695,169.240
7600.959,168.967
7608.251,168.672
7615.250,168.414
7622.988,168.071
7631.587,167.713
7639.453,167.407
7647.151,167.037
7654.610,166.699
7661.668,166.441
7668.524,166.040
7675.427,165.775
7682.938,165.409
7690.143,165.013
7698.061,164.655
7706.004,164.230
7713.787,163.877
7720.808,163.473
7728.689,163.065
7736.030,162.686
7742.720,162.266
7748.792,161.942
7756.211,161.562
7763.391,161.141
7769.372,160.769
7777.033,160.309
7784.838,159.827
7791.818,159.335
7800.854,158.752
7808.748,158.201
7816.448,157.708
7826.096,157.030
7834.296,156.472
7842.217,155.926
7851.009,155.261
7858.936,154.669
7866.218,154.172
7874.263,153.637
7882.440,153.043
7890.915,152.434
7897.947,151.958
7905.377,151.447
7913.268,150.871
7920.705,150.380
7928.013,149.878
7935.653,149.361
7944.059,148.853
7949.980,148.485
7957.485,148.049
7964.610,147.657
7969.836,147.360
7976.298,147.017
7983.609,146.653
7990.937,146.311
7998.015,145.943
8003.615,145.702
8009.049,145.537
8016.180,145.249
8023.005,145.045
8030.394,144.837
8036.791,144.655
8041.926,144.535
8046.304,144.462
8051.461,144.353
8056.057,144.300
8060.322,144.256
8065.470,144.200
8070.307,144.167
8075.274,144.129
8079.227,144.092
8084.814,144.006
8090.204,143.877
8094.599,143.737
8099.331,143.551
8104.198,143.307
8109.683,142.982
8114.509,142.722
8118.736,142.502
8123.346,142.301
8125.743,142.194
8128.811,142.047
8133.972,141.919
8137.012,141.758
8142.042,141.482
8146.119,141.146
8150.248,140.776
8154.598,140.304
8158.189,139.902
8159.734,139.793
8161.660,139.623
8165.297,139.299
8166.918,139.163
8168.565,139.019
8169.567,138.952
8172.602,138.496
8175.518,138.326
8177.788,138.060
8179.805,137.910
8184.392,137.456
8185.804,136.317
8187.846,135.762
8191.752,135.587
8195.747,135.289
8200.104,134.697
8206.278,134.522
8212.099,134.240
8217.685,134.067
8223.690,133.994
8229.485,133.701
8235.480,133.512
8241.468,133.318
8247.586,132.854
8254.000,132.519
8260.637,132.180
8267.643,132.071
8274.807,131.621
8282.097,131.499
8289.471,131.272
8296.669,131.043
8303.623,130.815
8310.889,130.501
8318.465,130.327
8326.141,130.010
8333.968,129.752
8342.114,129.480
8350.431,129.148
8359.095,128.847
8368.011,128.349
8377.247,127.988
8386.183,127.609
8394.609,127.256
8403.216,126.964
8412.173,126.609
8421.309,126.207
8430.512,125.934
8439.895,125.580
8449.443,125.288
8459.243,124.874
8469.082,124.542
8478.629,124.318
8487.903,124.077
8497.343,123.815
8506.492,123.580
8515.611,123.323
8524.640,123.219
8533.628,123.015
8542.339,122.954
8550.563,122.875
8558.905,122.756
8567.183,122.718
8575.546,122.725
8583.322,122.683
8590.821,122.707
8598.054,122.779
8605.439,122.827
8612.567,122.880
8620.283,122.949
8627.595,123.000
8635.468,123.121
8643.388,123.196
8650.770,123.301
8658.150,123.410
8665.264,123.546
8672.591,123.665
8679.814,123.791
8687.002,123.893
8694.100,124.023
8700.966,124.193
8707.494,124.295
8713.945,124.476
8720.198,124.623
8726.401,124.780
8732.128,124.924
8737.588,125.083
8742.590,125.245
8747.727,125.343
8751.163,125.534
8757.233,125.674
8761.564,125.825
8767.965,126.096
8775.282,126.298
8781.554,126.558
8787.532,126.863
8793.909,127.090
8799.516,127.408
8806.291,127.739
8812.867,128.060
8819.170,128.334
8825.117,128.682
8830.475,128.938
8836.306,129.253
8841.451,129.532
8847.714,129.901
8853.351,130.149
8858.249,130.426
8864.397,130.770
8869.700,130.987
8875.436,131.316
8881.134,131.588
8886.108,131.827
8891.269,132.060
8895.105,132.227
8899.316,132.422
8903.180,132.588
8905.186,132.671
8909.292,132.836
8915.130,133.089
8919.505,133.297
8924.298,133.504
8929.865,133.713
8934.861,133.923
8939.697,134.128
8945.350,134.359
8950.229,134.548
8955.074,134.752
8959.759,134.957
8964.505,135.140
8968.976,135.292
8974.463,135.537
8980.304,135.722
8986.109,135.964
8991.611,136.167
8997.233,136.327
9002.827,136.504
9008.728,136.674
9014.410,136.830
9020.196,136.985
9024.873,137.120
9029.714,137.199
9034.449,137.320
9039.397,137.392
9043.908,137.429
9049.145,137.509
9054.718,137.618
9060.865,137.708
9066.557,137.751
9072.248,137.815
9077.678,137.854
9083.248,137.827
9089.077,137.873
9094.714,137.876
9100.709,137.841
9106.450,137.852
9111.668,137.826
9117.000,137.824
9121.554,137.783
9126.377,137.738
9133.043,137.691
9139.470,137.609
9147.553,137.502
9154.777,137.389
9161.256,137.191
9167.885,137.030
9175.243,136.868
9182.036,136.783
9188.474,136.607
9195.887,136.316
9203.064,136.222
9210.792,135.992
9218.431,135.664
9226.827,135.369
9235.257,135.125
9242.918,134.808
9252.109,134.489
9260.775,134.213
9269.607,133.881
9278.933,133.614
9288.752,133.229
9298.696,132.830
9308.294,132.358
9318.546,131.951
9328.698,131.506
9338.014,131.008
9347.114,130.588
9355.772,130.179
9364.131,129.780
9372.951,129.413
9382.714,129.007
9391.665,128.583
9400.564,128.142
9410.722,127.643
9421.138,127.176
9431.333,126.781
9442.155,126.262
9451.984,125.870
9462.077,125.440
9473.452,124.948
9484.209,124.645
9495.144,124.215
9506.022,123.802
9517.449,123.349
9528.131,123.037
9539.356,122.816
9549.452,122.575
9556.426,122.360
9564.737,122.316
9572.829,122.214
9581.638,121.963
9590.681,121.931
9599.865,121.682
9609.577,121.671
9620.032,121.580
9629.796,121.508
9640.033,121.449
9649.799,121.403
9659.417,121.366
9669.830,121.338
9679.642,121.319
9688.760,121.292
9698.170,121.292
9707.068,121.312
9715.792,121.307
9725.268,121.312
9734.340,121.318
9743.421,121.332
9750.951,121.332
9759.571,121.333
9769.396,121.353
9779.526,121.365
9788.740,121.372
9798.046,121.399
9808.246,121.420
9817.684,121.445
9827.174,121.457
9835.488,121.472
9844.914,121.480
9854.168,121.490
9864.172,121.492
9873.640,121.499
9884.061,121.507
9894.205,121.515
9903.883,121.524
9913.798,121.534
9923.536,121.559
9933.058,121.574
9943.624,121.591
9953.993,121.611
9963.722,121.618
9973.071,121.656
9982.903,121.678
9992.532,121.725
10002.224,121.757
10011.456,121.810
10021.247,121.859
10030.844,121.898
10040.069,121.949
10049.017,122.002
10058.887,122.077
10068.308,122.118
10077.763,122.199
10086.717,122.239
10095.838,122.307
10105.216,122.381
10114.787,122.460
10124.117,122.540
10133.425,122.622
10142.334,122.705
10151.670,122.793
10161.827,122.887
10171.250,122.981
10181.398,123.082
10191.256,123.184
10201.123,123.290
10210.207,123.400
10219.262,123.500
10228.701,123.607
10238.013,123.712
10247.128,123.820
10256.738,123.933
10265.968,124.043
10274.308,124.144
10284.120,124.268
10293.854,124.380
10302.921,124.497
10312.743,124.621
10321.926,124.736
10331.098,124.864
10340.715,124.981
10349.744,125.091
10357.762,125.192
10366.162,125.294
10375.453,125.404
10384.858,125.517
10393.953,125.628
10403.026,125.709
10412.418,125.834
10421.189,125.927
10430.082,126.046
10438.877,126.141
10448.413,126.265
10457.098,126.362
10465.337,126.469
10474.225,126.570
10483.570,126.674
10492.259,126.770
10500.127,126.866
10508.433,126.946
10517.033,127.055
10524.815,127.118
10532.727,127.187
10541.178,127.293
10548.823,127.362
10556.750,127.399
10564.724,127.447
10573.258,127.543
10581.130,127.555
10589.651,127.643
10597.761,127.644
10606.386,127.687
10614.982,127.761
10623.683,127.752
10632.745,127.777
10640.963,127.789
10650.026,127.832
10658.753,127.800
10667.316,127.817
10676.578,127.788
10685.676,127.797
10694.755,127.772
10703.516,127.717
10712.979,127.683
10721.818,127.664
10729.411,127.625
10737.559,127.582
10746.312,127.534
10755.422,127.473
10764.011,127.423
10772.215,127.374
10780.577,127.327
10789.998,127.264
10798.358,127.211
10807.301,127.150
10816.807,127.084
10825.386,127.035
10833.389,126.983
10841.527,126.929
10850.899,126.868
10859.386,126.810
10869.276,126.744
10877.954,126.678
10886.688,126.624
10894.943,126.564
10903.546,126.500
10912.178,126.427
10920.679,126.375
10930.634,126.307
10939.420,126.238
10950.109,126.148
10958.580,126.072
10967.873,125.989
10976.715,125.906
10985.249,125.808
10995.026,125.728
11005.407,125.602
11015.433,125.505
11024.729,125.435
11034.026,125.336
11043.614,125.226
11053.610,125.097
11063.920,124.980
11074.658,124.845
11084.926,124.734
11094.911,124.591
11104.182,124.476
11113.999,124.358
11123.290,124.243
11132.122,124.133
11141.086,124.016
11150.556,123.922
11159.914,123.820
11168.770,123.727
11178.497,123.630
11188.103,123.531
11197.006,123.458
11205.664,123.396
11214.414,123.286
11223.771,123.239
11234.065,123.258
11244.149,123.172
11253.663,123.168
11261.470,123.182
11269.815,123.272
11278.267,123.310
11286.314,123.363
11294.936,123.429
11303.197,123.439
11311.608,123.544
11320.140,123.722
11327.887,123.769
11336.480,123.901
11344.523,124.098
11352.463,124.187
11360.219,124.391
11367.926,124.549
11375.198,124.669
11383.101,124.838
11391.306,125.027
11399.218,125.215
11407.342,125.408
11415.384,125.601
11423.400,125.796
11431.440,125.984
11438.992,126.160
11446.487,126.314
11454.569,126.521
11462.033,126.653
11470.180,126.820
11477.002,127.001
11484.835,127.155
11493.067,127.304
11500.921,127.367
11510.011,127.503
11517.901,127.682
11526.497,127.714
11534.159,127.795
11541.082,127.927
11548.847,127.916
11555.649,128.003
11563.760,127.979
11571.642,128.007
11579.510,128.027
11587.339,128.092
11595.082,128.040
11603.098,128.034
11610.656,128.025
11618.569,128.040
11625.413,128.017
11632.635,127.982
11641.135,127.950
11649.497,127.922
11656.935,127.892
11665.093,127.862
11673.324,127.836
11681.159,127.841
11689.219,127.794
11696.826,127.778
11705.050,127.757
11713.080,127.747
11721.440,127.762
11728.930,127.757
11736.762,127.718
11744.703,127.758
11752.706,127.725
11759.674,127.757
11768.315,127.785
11777.015,127.830
11785.053,127.885
11793.303,127.976
11801.251,128.017
11810.165,128.131
11818.406,128.217
11826.516,128.291
11834.406,128.409
11843.398,128.528
11851.914,128.644
11860.384,128.750
11868.360,128.868
11876.464,129.007
11884.955,129.135
11893.039,129.281
11900.926,129.413
11908.396,129.512
11916.391,129.694
11923.041,129.777
11929.137,129.906
11936.032,130.046
11942.540,130.229
11948.950,130.361
11956.162,130.483
11963.556,130.649
11970.117,130.843
11977.140,131.010
11983.730,131.132
11990.461,131.314
11997.234,131.462
12003.079,131.595
12009.313,131.750
12015.374,131.895
12021.365,132.025
12027.937,132.176
12034.292,132.305
12040.793,132.419
12047.812,132.557
12054.246,132.678
12060.637,132.819
12067.057,132.878
12073.504,133.014
12080.299,133.107
12086.425,133.209
12093.206,133.303
12099.785,133.387
12106.863,133.470
12114.061,133.558
12121.034,133.563
12127.628,133.690
12135.737,133.730
12143.577,133.669
12151.069,133.677
12157.893,133.748
12165.751,133.647
12172.575,133.625
12179.730,133.571
12186.892,133.561
12193.618,133.431
12201.860,133.410
12210.284,133.249
12219.632,133.197
12228.238,133.070
12236.640,132.946
12245.023,132.765
12253.502,132.669
12263.268,132.447
12271.796,132.270
12280.210,132.101
12288.223,131.945
12295.474,131.781
12303.481,131.582
12311.279,131.342
12319.827,131.099
12328.431,130.908
12337.586,130.646
12346.819,130.443
12356.159,130.232
12365.527,129.971
12375.113,129.695
12384.161,129.495
12393.746,129.266
12403.634,129.022
12413.672,128.753
12423.903,128.538
12434.219,128.280
12444.228,128.084
12454.222,127.823
12463.428,127.643
12472.963,127.399
12481.729,127.279
12491.235,127.105
12501.079,126.878
12509.717,126.750
12518.541,126.611
12528.294,126.473
12537.771,126.271
12547.623,126.164
12557.351,126.100
12566.834,126.020
12576.901,125.942
12586.874,125.814
12595.858,125.811
12605.805,125.738
12615.201,125.743
12625.136,125.702
12635.311,125.724
12644.582,125.727
12654.364,125.758
12663.856,125.773
12672.215,125.826
12680.843,125.890
12690.176,125.963
12698.869,126.041
12706.968,126.121
12715.380,126.225
12724.174,126.296
12732.716,126.403
12739.594,126.461
12746.546,126.545
12754.668,126.618
12763.362,126.718
12771.404,126.800
12778.752,126.859
12785.560,126.930
12792.294,127.000
12798.108,127.045
12803.737,127.091
12808.741,127.132
12814.405,127.197
12818.781,127.218
12822.671,127.258
12828.422,127.298
12833.436,127.332
12840.098,127.378
12847.391,127.440
12856.498,127.504
12863.333,127.552
12871.288,127.606
12878.468,127.662
12884.812,127.694
12891.225,127.732
12899.531,127.789
12907.222,127.821
12914.624,127.868
12922.082,127.897
12929.380,127.941
12936.425,127.963
12944.527,128.003
12951.315,128.039
12958.703,128.068
12967.729,128.095
12975.773,128.120
12984.460,128.151
12992.824,128.186
13000.298,128.225
13009.230,128.249
13017.964,128.290
13026.379,128.311
13033.133,128.354
13041.410,128.384
13049.702,128.412
13057.790,128.447
13065.705,128.480
13074.060,128.505
13081.958,128.527
13089.942,128.550
13098.233,128.570
13107.172,128.596
13115.463,128.631
13123.570,128.639
13131.287,128.675
13138.846,128.677
13147.112,128.700
13155.707,128.720
13163.184,128.761
13171.647,128.769
13180.484,128.758
13189.300,128.782
13196.616,128.771
13204.489,128.757
13211.902,128.734
13218.282,128.711
13226.311,128.671
13233.724,128.657
13242.529,128.619
13247.881,128.589
13254.235,128.551
13260.972,128.525
13266.945,128.496
13273.887,128.462
13280.894,128.424
13289.110,128.382
13296.229,128.347
13303.326,128.314
13310.985,128.275
13317.194,128.240
13323.581,128.216
13329.543,128.185
13336.393,128.156
13343.712,128.129
13351.523,128.104
13358.416,128.077
13364.162,128.057
13371.071,128.018
13377.164,127.986
13384.235,127.958
13391.472,127.921
13397.931,127.897
13404.809,127.863
13411.855,127.829
13419.688,127.795
13427.385,127.762
13435.881,127.727
13443.518,127.684
13451.302,127.649
13459.200,127.625
13467.319,127.594
13475.240,127.560
13483.104,127.523
13492.535,127.478
13500.121,127.443
13507.907,127.408
13515.479,127.366
13523.762,127.324
13531.740,127.282
13539.505,127.243
13547.628,127.202
13555.894,127.151
13563.121,127.112
13571.049,127.072
13578.846,127.038
13586.724,126.993
13594.435,126.958
13602.003,126.907
13609.937,126.869
13617.572,126.831
13624.782,126.792
13631.185,126.764
13639.322,126.722
13648.312,126.680
13657.417,126.640
13664.641,126.615
13672.115,126.594
13680.277,126.568
13688.610,126.558
13696.383,126.543
13704.281,126.526
13711.704,126.499
13719.662,126.497
13726.661,126.484
13735.128,126.470
13743.099,126.442
13751.795,126.442
13760.043,126.421
13767.490,126.424
13774.923,126.432
13783.021,126.464
13790.197,126.483
13797.899,126.485
13805.292,126.527
13813.233,126.534
13821.437,126.574
13829.092,126.583
13837.822,126.627
13846.013,126.643
13852.922,126.678
13861.170,126.706
13869.313,126.735
13876.866,126.760
13884.700,126.792
13892.786,126.820
13900.917,126.845
13909.637,126.871
13917.152,126.885
13925.327,126.899
13932.284,126.898
13939.875,126.898
13947.489,126.891
13955.458,126.832
13963.899,126.852
13971.395,126.760
13978.960,126.767
13987.830,126.706
13997.071,126.568
14006.115,126.500
14013.999,126.432
14022.135,126.362
14029.713,126.289
14037.122,126.241
14045.390,126.141
14053.173,126.033
14060.736,125.923
14068.255,125.811
14076.508,125.686
14083.862,125.569
14090.746,125.459
14098.273,125.335
14105.899,125.224
14114.333,125.098
14122.291,124.981
14130.277,124.841
14138.255,124.755
14145.967,124.658
14154.653,124.555
14163.430,124.408
14172.475,124.347
14180.672,124.273
14189.654,124.201
14200.196,124.063
14209.506,124.000
14217.265,124.035
14224.910,123.972
14231.077,124.034
14237.947,124.043
14245.105,124.060
14254.007,124.050
14262.465,124.126
14270.215,124.163
14277.523,124.192
14284.576,124.266
14292.144,124.314
14299.553,124.390
14306.916,124.450
14314.641,124.526
14322.127,124.597
14328.822,124.667
14336.099,124.738
14343.839,124.822
14350.654,124.901
14357.931,124.988
14364.952,125.054
14371.388,125.141
14378.918,125.231
14386.658,125.309
14393.204,125.389
14399.385,125.455
14406.524,125.540
14412.983,125.618
14420.725,125.694
14427.794,125.774
14434.643,125.854
14441.975,125.939
14448.682,126.023
14455.466,126.113
14462.036,126.193
14469.077,126.280
14476.537,126.371
14483.197,126.455
14490.704,126.553
14498.314,126.666
14504.127,126.750
14512.261,126.858
14518.156,126.943
14526.740,127.066
14534.458,127.187
14543.650,127.329
14551.187,127.462
14558.868,127.595
14566.318,127.728
14574.875,127.869
14582.859,127.988
14590.586,128.099
14597.777,128.161
14605.377,128.188
14613.041,128.188
14619.865,128.172
14626.061,128.148
14633.951,128.124
14640.441,128.107
14647.320,128.089
14653.436,128.078
14659.327,128.094
14663.408,128.129
14668.000,128.183
14672.149,128.242
14677.382,128.304
14682.489,128.314
14686.441,128.279
14689.311,127.870
14690.997,127.796
14692.034,127.792
14693.182,127.737
14695.284,127.726
14698.253,127.696
14701.106,127.661
14704.218,127.616
14707.909,127.584
14710.433,127.524
14713.551,127.486
14718.101,127.426
14721.491,127.417
14726.445,127.396
14730.715,127.380
14734.519,127.369
14739.935,127.352
14745.339,127.336
14751.040,127.321
14757.328,127.316
14763.658,127.296
14769.787,127.303
14775.444,127.302
14782.767,127.299
14789.500,127.299
14796.243,127.282
14803.385,127.307
14810.354,127.276
14816.942,127.283
14824.768,127.298
14831.144,127.295
14837.990,127.294
14844.662,127.317
14850.915,127.336
14857.337,127.343
14865.358,127.367
14872.501,127.393
14878.633,127.412
14884.095,127.430
14890.838,127.458
14900.022,127.499
14908.131,127.539
14916.203,127.578
14923.995,127.616
14931.468,127.658
14939.361,127.681
14946.718,127.715
14954.679,127.741
14961.998,127.775
14968.979,127.795
14976.210,127.803
14983.086,127.832
14990.360,127.839
14997.407,127.871
15004.971,127.884
15013.433,127.905
15021.274,127.928
15029.336,127.951
15036.823,127.973
15044.865,127.996
15052.365,128.011
15061.180,128.046
15069.642,128.056
15077.215,128.089
15085.766,128.105
15093.796,128.138
15100.491,128.150
15107.765,128.176
15115.274,128.204
15123.203,128.227
15131.112,128.250
15138.739,128.271
15146.660,128.293
15153.797,128.313
15161.357,128.333
15170.321,128.359
15178.914,128.383
15187.243,128.407
15195.704,128.434
15203.304,128.453
15211.299,128.483
15219.123,128.523
15226.993,128.554
15234.958,128.576
15242.456,128.604
15251.016,128.649
15259.241,128.689
15267.477,128.717
15275.542,128.750
15283.469,128.779
15291.243,128.807
15298.648,128.857
15306.442,128.868
15313.552,128.903
15320.124,128.960
15325.962,128.975
15334.281,129.035
15342.741,129.074
15350.637,129.126
15357.891,129.177
15366.161,129.227
15374.462,129.277
15384.074,129.339
15392.443,129.395
15400.772,129.439
15408.528,129.498
15416.309,129.529
15424.604,129.588
15433.813,129.615
15441.443,129.637
15448.903,129.658
15457.851,129.710
15465.124,129.714
15472.463,129.721
15478.847,129.712
15486.485,129.676
15494.733,129.670
15502.823,129.658
15511.359,129.681
15519.077,129.627
15526.963,129.602
15534.181,129.608
15542.812,129.582
15551.384,129.535
15558.078,129.475
15566.223,129.444
15575.382,129.383
15582.743,129.322
15591.667,129.260
15599.851,129.198
15608.431,129.132
15616.556,129.059
15623.887,128.996
15632.262,128.925
15640.441,128.858
15648.511,128.814
15655.943,128.761
15665.601,128.656
15673.193,128.650
15682.626,128.588
15690.863,128.553
15698.546,128.501
15706.639,128.475
15714.312,128.476
15720.444,128.463
15727.846,128.429
15735.432,128.421
15742.178,128.440
15750.571,128.432
15757.940,128.418
15765.370,128.426
15772.878,128.426
15781.218,128.422
15789.101,128.431
15796.684,128.429
15804.051,128.444
15812.066,128.452
15819.442,128.460
15827.048,128.465
15834.981,128.473
15842.230,128.484
15850.753,128.481
15857.962,128.483
15866.359,128.499
15874.342,128.500
15882.486,128.497
15890.077,128.492
15897.888,128.488
15905.338,128.484
15912.653,128.480
15919.916,128.470
15927.214,128.471
15935.655,128.469
15942.415,128.464
15949.858,128.461
15958.144,128.456
15966.709,128.446
15975.237,128.448
15983.576,128.433
15991.875,128.444
16000.517,128.432
16008.659,128.455
16016.395,128.468
16023.291,128.465
16031.003,128.487
16038.918,128.537
16046.800,128.543
16055.888,128.576
16064.650,128.642
16073.280,128.682
16082.267,128.723
16090.610,128.769
16099.585,128.793
16108.244,128.849
16116.558,128.934
16123.439,128.990
16130.944,129.034
16139.667,129.120
16147.223,129.179
16155.864,129.256
16164.781,129.322
16173.260,129.409
16181.144,129.440
16189.248,129.524
16197.068,129.538
16205.757,129.623
16214.105,129.667
16222.800,129.758
16231.613,129.854
16240.172,129.942
16248.055,130.016
16256.204,130.075
16264.020,130.115
16271.593,130.140
16280.168,130.150
16287.866,130.140
16295.040,130.120
16303.043,130.067
16310.783,129.985
16318.279,129.868
16326.164,129.704
16333.757,129.509
16341.144,129.317
16348.521,129.064
16356.465,128.709
16363.299,128.303
16370.872,127.768
16377.878,127.290
16384.632,127.038
16391.043,126.917
16396.600,126.883
16402.535,127.862
16404.964,127.610
16407.536,127.656
16410.138,127.694
16413.243,127.751
16416.119,127.762
16418.812,127.842
16421.386,127.852
16423.825,127.874
16426.309,127.936
16429.734,127.949
16433.189,127.970
16436.731,127.984
16439.962,127.995
16444.339,128.011
16450.541,128.032
16455.369,128.044
16461.566,128.065
16467.277,128.070
16473.197,128.090
16479.016,128.085
16485.295,128.104
16491.897,128.110
16498.611,128.115
16505.653,128.121
16512.896,128.119
16520.214,128.152
16527.576,128.156
16534.727,128.173
16541.874,128.188
16549.096,128.205
16556.393,128.233
16563.723,128.236
16570.890,128.254
16577.984,128.264
16584.852,128.270
16591.972,128.280
16599.070,128.287
16606.536,128.293
16614.051,128.304
16621.724,128.289
16629.731,128.288
16637.657,128.282
16645.599,128.263
16653.734,128.257
16662.159,128.241
16670.643,128.229
16679.323,128.219
16687.878,128.207
16696.369,128.178
16704.874,128.181
16713.472,128.169
16721.915,128.145
16730.346,128.122
16738.673,128.095
16747.413,128.067
16755.840,128.035
16764.386,127.999
16772.740,127.931
16781.081,127.915
16789.653,127.867
16798.104,127.819
16806.654,127.759
16815.150,127.683
16823.469,127.636
16831.622,127.566
16839.617,127.508
16847.809,127.447
16856.575,127.375
16865.230,127.320
16873.826,127.263
16882.286,127.193
16890.884,127.162
16899.625,127.113
16908.255,127.036
16917.058,126.991
16925.689,126.992
16934.386,126.959
16943.107,126.930
16951.555,126.873
16959.923,126.888
16968.265,126.874
16976.607,126.836
16985.007,126.863
16993.355,126.840
17001.492,126.850
17009.608,126.862
17018.163,126.878
17026.735,126.905
17035.098,126.924
17043.566,126.945
17051.941,126.973
17060.461,127.002
17069.051,127.034
17077.648,127.059
17085.995,127.087
17094.521,127.127
17102.884,127.153
17111.192,127.167
17119.447,127.200
17127.626,127.220
17135.578,127.223
17143.788,127.240
17151.899,127.257
17160.150,127.273
17168.528,127.290
17176.803,127.300
17185.177,127.313
17193.300,127.324
17201.298,127.343
17209.343,127.358
17217.376,127.372
17225.519,127.388
17233.618,127.394
17241.644,127.417
17249.380,127.423
17257.157,127.447
17264.955,127.455
17272.688,127.477
17280.393,127.490
17288.116,127.508
17295.799,127.528
17303.776,127.542
17311.558,127.559
17319.399,127.573
17327.387,127.590
17335.434,127.607
17343.464,127.627
17351.336,127.645
17359.009,127.665
17367.280,127.688
17375.038,127.710
17382.836,127.731
17390.831,127.757
17398.546,127.767
17406.019,127.782
17413.524,127.805
17421.146,127.813
17429.096,127.828
17436.950,127.841
17444.868,127.854
17452.790,127.869
17460.620,127.888
17468.566,127.903
17476.581,127.908
17484.685,127.939
17492.625,127.949
17500.421,127.992
17508.280,128.025
17516.294,128.061
17524.190,128.077
17532.014,128.145
17539.716,128.170
17547.425,128.221
17555.126,128.299
17563.032,128.357
17570.640,128.420
17578.473,128.460
17586.482,128.570
17594.301,128.619
17602.157,128.710
17609.649,128.835
17617.670,128.909
17625.478,129.017
17633.207,129.130
17641.169,129.260
17648.233,129.406
17655.979,129.513
17663.812,129.650
17671.624,129.790
17679.458,129.937
17687.266,130.084
17694.632,130.239
17701.935,130.373
17709.013,130.516
17716.487,130.667
17723.710,130.817
17731.261,130.990
17738.785,131.138
17745.892,131.296
17753.186,131.468
17759.594,131.593
17766.267,131.758
17773.220,131.910
17780.187,132.074
17787.124,132.246
17794.065,132.403
17800.636,132.544
17807.173,132.696
17813.723,132.849
17820.183,132.980
17826.976,133.130
17833.624,133.286
17840.318,133.436
17847.091,133.588
17853.946,133.743
17860.475,133.879
17867.596,134.027
17874.951,134.186
17882.376,134.355
17889.290,134.469
17896.692,134.604
17903.809,134.747
17911.004,134.836
17918.318,134.995
17925.752,135.114
17933.189,135.180
17940.383,135.328
17947.662,135.376
17954.945,135.510
17962.460,135.566
17969.854,135.678
17977.460,135.746
17984.967,135.808
17992.244,135.861
17999.410,135.874
18006.644,135.947
18013.889,135.979
18020.887,136.005
18027.477,136.027
18034.417,136.027
18041.664,136.050
18048.428,136.084
18055.259,136.099
18062.332,136.095
18069.381,136.104
18076.544,136.096
18083.931,136.096
18091.276,136.099
18098.841,136.088
18106.583,136.074
18114.494,136.058
18122.297,136.034
18129.801,136.009
18137.311,135.986
18144.256,135.970
18151.822,135.924
18158.981,135.879
18165.993,135.840
18173.552,135.829
18180.769,135.757
18188.154,135.710
18196.092,135.690
18203.994,135.599
18211.793,135.540
18219.379,135.507
18226.828,135.415
18234.498,135.348
18241.513,135.296
18249.318,135.219
18257.031,135.140
18264.820,135.070
18272.922,134.997
18281.116,134.926
18289.088,134.856
18297.306,134.785
18305.360,134.716
18313.036,134.649
18321.418,134.568
18329.993,134.497
18338.399,134.458
18346.414,134.370
18354.970,134.314
18363.560,134.263
18372.038,134.219
18380.220,134.215
18388.050,134.157
18396.514,134.174
18404.653,134.117
18413.010,134.141
18421.164,134.101
18429.457,134.118
18438.064,134.125
18446.581,134.119
18454.915,134.125
18463.360,134.126
18471.713,134.148
18480.223,134.163
18488.746,134.180
18497.189,134.205
18505.559,134.225
18514.007,134.244
18522.505,134.246
18530.670,134.258
18539.281,134.270
18548.057,134.303
18556.294,134.293
18564.831,134.301
18573.396,134.308
18581.742,134.329
18590.315,134.331
18598.664,134.315
18606.966,134.328
18615.576,134.308
18624.141,134.317
18632.717,134.293
18640.878,134.281
18649.014,134.260
18657.051,134.239
18664.993,134.218
18672.990,134.196
18681.490,134.164
18689.504,134.142
18697.537,134.122
18705.867,134.113
18714.001,134.099
18722.183,134.086
18730.337,134.071
18738.516,134.057
18746.643,134.049
18754.699,134.032
18763.109,134.031
18771.057,134.016
18779.149,134.012
18787.227,134.022
18795.058,134.022
18802.946,134.012
18811.152,134.027
18819.033,134.035
18826.896,134.033
18834.822,134.056
18842.656,134.071
18850.355,134.078
18858.307,134.109
18866.182,134.120
18874.220,134.158
18882.100,134.187
18889.785,134.217
18897.270,134.249
18904.917,134.285
18913.116,134.324
18920.802,134.362
18928.441,134.404
18936.014,134.436
18943.854,134.500
18951.334,134.552
18959.349,134.609
18967.394,134.670
18974.913,134.729
18982.488,134.779
18989.936,134.857
18997.921,134.932
19005.282,135.006
19012.560,135.082
19020.111,135.155
19028.080,135.244
19035.442,135.310
19043.066,135.403
19050.409,135.470
19057.991,135.547
19065.555,135.624
19072.556,135.694
19080.034,135.759
19087.369,135.836
19094.426,135.902
19101.280,135.957
19107.874,136.017
19114.464,136.079
19120.961,136.129
19127.604,136.191
19134.694,136.254
19141.458,136.312
19148.302,136.367
19155.333,136.411
19161.870,136.458
19168.495,136.501
19174.975,136.541
19182.362,136.584
19190.310,136.628
19197.941,136.667
19205.453,136.685
19212.642,136.718
19220.010,136.758
19227.679,136.783
19235.547,136.821
19243.199,136.843
19250.632,136.879
19258.226,136.908
19265.930,136.931
19273.880,136.961
19281.793,136.998
19289.666,137.018
19297.496,137.048
19305.367,137.098
19312.773,137.130
19320.342,137.178
19327.700,137.220
19335.566,137.238
19343.293,137.282
19350.446,137.354
19358.100,137.377
19365.720,137.428
19373.205,137.482
19381.048,137.540
19388.880,137.626
19396.449,137.664
19404.051,137.729
19411.640,137.798
19419.288,137.868
19426.951,137.950
19435.178,138.021
19443.142,138.099
19451.056,138.173
19459.027,138.246
19466.947,138.318
19475.496,138.403
19483.952,138.464
19492.487,138.555
19500.856,138.619
19509.191,138.677
19517.237,138.726
19525.461,138.769
19533.453,138.806
19541.671,138.810
19549.804,138.869
19558.028,138.855
19566.502,138.915
19574.957,138.905
19583.196,138.918
19591.517,138.924
19599.844,138.926
19608.070,138.924
19616.488,138.916
19624.980,138.923
19633.539,138.900
19641.866,138.864
19650.014,138.848
19658.441,138.819
19667.111,138.790
19675.524,138.770
19683.878,138.730
19692.371,138.704
19701.039,138.682
19709.598,138.662
19717.989,138.669
19726.404,138.629
19734.814,138.644
19743.136,138.635
19751.382,138.605
19759.665,138.604
19768.028,138.606
19776.657,138.628
19785.030,138.619
19793.114,138.628
19801.213,138.638
19809.032,138.648
19816.997,138.659
19824.750,138.678
19832.477,138.684
19840.838,138.688
19849.375,138.708
19857.565,138.715
19865.873,138.705
19874.346,138.707
19883.001,138.710
19891.781,138.710
19900.782,138.711
19909.881,138.706
19918.723,138.698
19927.748,138.709
19936.632,138.671
19945.339,138.675
19954.119,138.634
19962.712,138.637
19971.393,138.594
19980.309,138.565
19989.409,138.533
19998.244,138.505
20007.091,138.463
20015.962,138.424
20024.627,138.384
20033.495,138.341
20042.240,138.299
20050.611,138.257
20059.377,138.215
20068.260,138.181
20077.372,138.130
20086.163,138.084
20094.913,138.055
20103.600,138.017
20112.470,137.967
20121.004,137.933
20129.643,137.898
20138.438,137.867
20147.232,137.839
20156.036,137.821
20164.613,137.798
20173.517,137.771
20181.999,137.751
20190.477,137.734
20198.764,137.715
20206.903,137.696
20214.905,137.678
20223.113,137.662
20231.437,137.642
20239.683,137.622
20247.746,137.605
20256.048,137.589
20264.319,137.575
20272.762,137.562
20281.318,137.548
20289.288,137.537
20297.344,137.526
20305.778,137.507
20313.932,137.497
20322.003,137.489
20329.723,137.483
20337.390,137.493
20345.527,137.494
20353.361,137.498
20361.118,137.485
20368.944,137.495
20376.201,137.511
20383.605,137.532
20391.064,137.557
20398.581,137.588
20405.888,137.623
20413.202,137.691
20420.718,137.734
20427.984,137.755
20435.258,137.807
20442.356,137.862
20449.426,137.922
20456.631,138.009
20463.635,138.073
20470.763,138.122
20477.826,138.196
20484.671,138.294
20492.065,138.359
20499.404,138.441
20506.286,138.542
20513.660,138.620
20520.908,138.713
20528.437,138.811
20536.124,138.915
20543.524,139.008
20551.095,139.106
20558.558,139.198
20566.047,139.290
20573.379,139.380
20581.057,139.474
20588.658,139.566
20596.070,139.673
20603.746,139.746
20611.020,139.851
20618.352,139.933
20625.596,140.009
20633.115,140.083
20640.259,140.150
20647.731,140.215
20655.341,140.279
20662.786,140.312
20670.290,140.390
20677.808,140.437
20685.510,140.489
20693.243,140.525
20701.091,140.555
20709.007,140.576
20716.627,140.589
20724.271,140.594
20732.044,140.590
20739.702,140.583
20747.101,140.561
20754.534,140.533
20762.015,140.500
20769.369,140.463
20776.989,140.421
20784.495,140.373
20792.133,140.319
20799.487,140.265
20806.845,140.206
20814.067,140.125
20821.408,140.077
20828.710,140.004
20835.790,139.921
20842.842,139.855
20849.885,139.779
20856.878,139.696
20863.989,139.620
20871.194,139.541
20878.298,139.464
20885.468,139.401
20892.440,139.314
20899.304,139.286
20906.272,139.202
20913.130,139.159
20919.943,139.165
20926.700,139.093
20933.583,139.122
20939.916,139.111
20946.267,139.061
20952.801,139.126
20959.704,139.149
20966.506,139.189
20973.052,139.179
20979.374,139.276
20985.139,139.282
20991.224,139.345
20996.961,139.415
21002.871,139.486
21009.287,139.570
21015.283,139.656
21021.533,139.753
21027.284,139.849
21033.573,139.980
21040.077,140.071
21045.747,140.178
21051.928,140.308
21058.112,140.420
21064.259,140.552
21070.604,140.682
21076.664,140.794
21082.711,140.924
21088.890,141.055
21095.005,141.186
21100.260,141.305
21106.279,141.431
21112.799,141.569
21119.689,141.708
21126.489,141.849
21133.082,141.989
21139.387,142.114
21146.063,142.254
21152.122,142.370
21158.201,142.494
21164.638,142.622
21170.806,142.743
21177.200,142.865
21183.099,142.989
21189.243,143.090
21195.187,143.216
21201.605,143.313
21208.253,143.445
21214.637,143.532
21221.002,143.651
21227.359,143.746
21234.068,143.823
21240.509,143.932
21247.026,144.000
21253.312,144.114
21259.202,144.151
21265.456,144.246
21272.000,144.296
21278.612,144.368
21284.987,144.454
21291.733,144.505
21298.169,144.584
21304.868,144.632
21311.467,144.706
21317.805,144.751
21324.307,144.808
21329.960,144.863
21336.011,144.901
21342.098,144.943
21348.262,144.995
21354.560,145.034
21360.624,145.080
21366.622,145.116
21372.654,145.167
21378.871,145.205
21385.171,145.262
21391.670,145.299
21398.340,145.344
21404.724,145.414
21411.360,145.461
21418.374,145.524
21425.204,145.567
21432.429,145.631
21439.613,145.697
21446.514,145.770
21453.248,145.856
21460.080,145.930
21467.014,145.992
21473.857,146.094
21480.637,146.161
21487.698,146.256
21494.546,146.360
21501.328,146.451
21508.525,146.556
21515.383,146.641
21522.157,146.750
21528.925,146.857
21535.716,146.949
21542.602,147.052
21549.603,147.163
21556.275,147.259
21562.699,147.366
21569.416,147.463
21575.907,147.554
21582.490,147.647
21589.004,147.734
21595.636,147.802
21602.034,147.878
21608.153,147.946
21614.190,148.033
21619.250,148.074
21624.178,148.119
21629.237,148.156
21634.304,148.198
21639.712,148.234
21645.303,148.274
21650.570,148.287
21656.221,148.328
21661.673,148.384
21667.077,148.397
21672.901,148.448
21678.716,148.476
21684.042,148.513
21689.378,148.568
21695.385,148.604
21701.316,148.634
21707.461,148.678
21713.673,148.708
21720.245,148.734
21726.708,148.773
21733.223,148.804
21739.479,148.846
21745.894,148.861
21752.576,148.893
21759.292,148.926
21766.206,148.955
21772.892,148.972
21779.725,148.993
21786.516,149.009
21793.329,149.028
21800.473,149.047
21807.364,149.075
21814.170,149.091
21821.040,149.105
21828.096,149.099
21835.014,149.125
21842.064,149.128
21849.112,149.129
21856.358,149.131
21863.455,149.125
21870.535,149.099
21878.084,149.090
21885.495,149.096
21892.302,149.063
21899.238,149.061
21906.467,149.039
21913.567,149.011
21920.738,148.991
21927.961,148.969
21935.333,148.942
21942.190,148.922
21949.094,148.898
21956.057,148.875
21963.226,148.840
21970.303,148.816
21977.271,148.811
21984.074,148.793
21991.294,148.776
21998.200,148.763
22005.126,148.751
22012.460,148.718
22019.661,148.728
22026.395,148.721
22032.925,148.716
22040.016,148.714
22047.073,148.711
22053.841,148.705
22060.508,148.700
22067.617,148.693
22074.877,148.685
22082.065,148.672
22089.022,148.678
22096.249,148.645
22103.658,148.656
22111.016,148.605
22118.218,148.615
22125.652,148.551
22133.189,148.549
22140.650,148.466
22148.126,148.413
22155.149,148.390
22162.219,148.328
22169.198,148.259
22175.860,148.190
22182.823,148.093
22189.340,148.020
22196.073,147.940
22202.486,147.861
22208.748,147.782
22214.857,147.706
22220.943,147.616
22226.922,147.560
22232.889,147.478
22238.663,147.442
22244.793,147.381
22250.626,147.296
22256.208,147.288
22261.621,147.215
22267.386,147.183
22272.843,147.151
22278.324,147.166
22283.635,147.144
22289.119,147.132
22295.414,147.081
22301.243,147.069
22307.424,147.067
22312.973,147.064
22318.906,147.062
22325.005,147.078
22330.871,147.065
22336.626,147.069
22342.264,147.076
22348.135,147.086
22353.802,147.094
22359.260,147.116
22365.237,147.140
22371.200,147.173
22377.724,147.219
22384.059,147.266
22390.762,147.312
22397.325,147.364
22403.929,147.387
22410.956,147.397
22418.051,147.399
22425.285,147.387
22432.593,147.383
22439.933,147.409
22447.325,147.466
22454.392,147.577
22461.217,147.738
22467.992,147.910
22474.664,148.001
22481.125,148.094
22487.090,148.116
22492.147,148.083
22496.094,148.018
22499.218,147.944
22501.584,147.895
22504.032,147.808
22506.522,147.728
22508.509,147.629
22510.317,147.154
22514.914,146.899
22519.376,146.664
22523.651,146.504
22528.422,146.303
22532.973,146.060
22536.684,145.835
22540.630,145.683
22544.226,145.620
22548.228,145.552
22551.823,145.493
22554.665,145.455
22556.436,145.427
22561.322,145.634
22564.104,145.565
22567.955,145.590
22573.682,145.616
22578.556,145.630
22583.413,145.555
22587.963,145.612
22591.190,145.619
22594.991,145.685
22601.523,145.739
22608.594,145.775
22614.486,145.831
22621.181,145.893
22628.806,145.992
22636.268,146.049
22643.791,146.111
22650.983,146.154
22658.531,146.208
22666.115,146.259
22673.508,146.311
22680.832,146.359
22688.440,146.405
22696.059,146.436
22703.819,146.493
22711.668,146.514
22719.368,146.549
22726.929,146.580
22734.322,146.627
22742.114,146.661
22749.804,146.690
22757.556,146.724
22765.187,146.750
22772.841,146.761
22780.133,146.783
22788.072,146.780
22796.123,146.791
22803.626,146.820
22811.201,146.837
22819.166,146.848
22826.902,146.842
22834.595,146.859
22842.365,146.846
22850.256,146.848
22858.251,146.836
22866.008,146.823
22873.565,146.806
22881.281,146.787
22889.159,146.768
22897.227,146.753
22905.248,146.738
22913.753,146.722
22922.385,146.690
22930.817,146.667
22939.447,146.655
22948.173,146.632
22956.671,146.600
22965.427,146.576
22974.042,146.557
22982.629,146.545
22991.185,146.526
22999.639,146.509
23008.068,146.497
23016.103,146.490
23024.560,146.471
23032.748,146.474
23041.234,146.451
23049.768,146.459
23058.328,146.456
23066.942,146.427
23075.668,146.455
23084.482,146.431
23093.265,146.442
23102.066,146.456
23110.823,146.506
23119.422,146.500
23128.047,146.531
23137.115,146.566
23145.595,146.630
23154.006,146.647
23162.532,146.711
23170.935,146.744
23179.063,146.794
23187.242,146.843
23195.276,146.895
23203.275,146.942
23211.275,146.981
23219.331,147.021
23227.321,147.059
23235.465,147.096
23243.679,147.154
23251.737,147.185
23259.861,147.208
23268.060,147.228
23276.478,147.203
23284.887,147.251
23293.258,147.202
23301.805,147.202
23309.840,147.188
23318.260,147.170
23326.792,147.137
23335.505,147.116
23344.160,147.078
23352.817,147.077
23361.377,146.973
23370.061,146.919
23378.691,146.887
23387.592,146.769
23396.411,146.680
23405.219,146.580
23414.045,146.477
23423.027,146.403
23432.102,146.284
23441.669,146.151
23451.237,146.009
23460.689,145.861
23470.259,145.657
23480.000,145.492
23489.574,145.325
23499.171,145.186
23509.133,145.018
23519.419,144.817
23529.819,144.617
23540.239,144.424
23550.560,144.208
23560.964,144.009
23571.349,143.787
23581.625,143.605
23591.937,143.397
23601.971,143.193
23611.996,143.018
23621.888,142.861
23631.421,142.672
23641.087,142.522
23650.678,142.378
23660.526,142.217
23669.981,142.129
23679.442,142.011
23688.648,141.906
23698.014,141.806
23707.091,141.720
23716.246,141.646
23725.101,141.544
23734.114,141.491
23743.089,141.474
23751.997,141.427
23761.000,141.359
23770.099,141.324
23779.104,141.300
23788.856,141.262
23797.626,141.253
23806.519,141.246
23815.263,141.256
23824.276,141.268
23832.529,141.287
23840.764,141.312
23848.133,141.329
23856.067,141.359
23864.359,141.393
23871.239,141.426
23878.599,141.459
23885.883,141.478
23894.258,141.494
23902.338,141.501
23910.768,141.478
23918.271,141.432
23926.423,141.354
23934.801,141.294
23942.882,141.257
23950.701,141.228
23958.257,141.183
23965.369,141.132
23971.546,141.104
23976.543,141.087
23979.916,141.070
23984.362,141.083
23987.283,141.085
23990.155,141.094
23993.626,141.085
23996.872,141.119
23999.863,141.134
24004.691,141.367
24011.402,141.273
24018.153,141.287
24022.872,141.303
24028.545,141.334
24036.564,141.337
24044.829,141.350
24054.120,141.363
24063.399,141.383
24073.053,141.388
24081.265,141.399
24090.296,141.409
24098.864,141.412
24107.454,141.416
24117.062,141.420
24126.695,141.423
24136.193,141.426
24146.521,141.428
24155.747,141.431
24165.830,141.435
24176.095,141.438
24187.020,141.439
24197.004,141.442
24206.781,141.446
24216.247,141.456
24227.293,141.465
24236.536,141.470
24247.483,141.485
24258.143,141.498
24268.386,141.513
24278.725,141.538
24288.475,141.543
24298.407,141.568
24307.054,141.575
24315.513,141.604
24324.488,141.627
24333.111,141.644
24342.520,141.682
24351.404,141.711
24360.118,141.740
24368.887,141.769
24378.052,141.799
24386.594,141.829
24395.551,141.860
24404.413,141.887
24413.660,141.922
24421.975,141.965
24431.472,142.009
24439.572,142.052
24448.277,142.086
24457.247,142.132
24466.063,142.187
24473.713,142.233
24481.594,142.267
24489.643,142.330
24497.986,142.383
24506.245,142.436
24515.088,142.491
24521.558,142.540
24530.339,142.582
24538.060,142.640
24546.180,142.710
24554.491,142.762
24561.999,142.820
24569.218,142.871
24576.552,142.926
24584.610,142.985
24591.778,143.030
24599.945,143.094
24606.911,143.123
24613.704,143.166
24619.630,143.209
24627.367,143.238
24633.901,143.264
24641.088,143.319
24648.248,143.333
24657.177,143.387
24664.285,143.404
24671.113,143.403
24679.376,143.449
24687.043,143.458
24695.583,143.458
24703.345,143.488
24710.566,143.495
24718.535,143.502
24726.801,143.503
24735.466,143.519
24743.349,143.500
24751.742,143.504
24760.960,143.504
24769.418,143.491
24777.952,143.484
24786.601,143.475
24795.167,143.461
24804.077,143.460
24811.832,143.441
24820.515,143.432
24829.004,143.417
24837.337,143.397
24846.369,143.379
24856.046,143.351
24866.158,143.323
24875.399,143.296
24884.439,143.259
24893.301,143.235
24902.683,143.195
24911.587,143.163
24919.609,143.117
24928.645,143.079
24937.409,143.041
24945.822,143.022
24954.108,142.968
24962.647,142.922
24971.455,142.903
24980.181,142.837
24988.991,142.788
24997.629,142.758
25005.898,142.692
25014.476,142.653
25022.784,142.598
25030.969,142.547
25039.074,142.494
25048.451,142.448
25057.812,142.378
25067.123,142.346
25076.544,142.294
25085.485,142.219
25094.478,142.176
25102.496,142.144
25110.697,142.113
25118.821,142.103
25126.521,142.150
25134.206,142.172
25142.459,142.142
25151.282,142.246
25159.128,142.315
25165.708,142.332
25173.256,142.421
25181.924,142.598
25191.301,142.689
25200.194,142.855
25208.188,143.057
25217.175,143.207
25224.476,143.379
25232.633,143.549
25240.829,143.723
25247.427,143.815
25253.200,143.951
25258.884,144.028
25265.881,144.082
25271.507,144.138
25276.333,144.176
25281.758,144.234
25286.398,144.315
25290.901,144.335
25296.184,144.361
25300.604,144.370
25304.998,144.397
25310.617,144.408
25315.946,144.419
25321.056,144.405
25327.211,144.360
25332.477,144.423
25338.718,144.417
25345.452,144.341
25352.642,144.385
25360.870,144.363
25367.294,144.291
25373.137,144.313
25379.541,144.247
25386.720,144.230
25393.890,144.201
25402.090,144.121
25410.999,144.060
25419.788,143.979
25428.350,143.895
25436.589,143.811
25444.615,143.742
25452.280,143.670
25460.199,143.588
25467.809,143.514
25475.793,143.442
25482.398,143.389
25490.106,143.332
25498.866,143.245
25507.818,143.229
25516.707,143.157
25524.507,143.187
25532.569,143.162
25540.901,143.110
25548.950,143.168
25555.877,143.185
25564.376,143.159
25572.065,143.239
25579.928,143.230
25587.268,143.280
25594.830,143.379
25601.824,143.404
25609.548,143.504
25616.367,143.546
25624.642,143.649
25632.952,143.730
25640.977,143.792
25648.850,143.875
25656.710,143.959
25665.620,144.054
25672.967,144.136
25681.057,144.233
25689.539,144.337
25697.215,144.424
25705.682,144.531
25713.911,144.653
25722.353,144.737
25730.830,144.863
25738.786,144.929
25746.747,145.016
25755.299,145.136
25763.127,145.178
25771.330,145.238
25778.447,145.281
25785.844,145.354
25794.159,145.401
25803.176,145.449
25811.844,145.443
25819.092,145.462
25825.908,145.478
25834.483,145.521
25841.621,145.524
25848.535,145.489
25855.521,145.487
25862.656,145.506
25870.461,145.465
25877.195,145.474
25884.944,145.441
25893.202,145.421
25900.922,145.408
25908.388,145.395
25916.753,145.376
25924.037,145.356
25931.696,145.346
25938.009,145.325
25945.515,145.307
25952.731,145.298
25960.152,145.287
25966.966,145.263
25974.151,145.269
25980.256,145.258
25987.661,145.258
25995.161,145.243
26002.306,145.254
26010.090,145.279
26016.952,145.286
26024.953,145.295
26033.014,145.294
26041.695,145.329
26050.591,145.357
26059.328,145.373
26068.288,145.432
26078.711,145.486
26087.849,145.515
26097.312,145.568
26105.733,145.644
26115.557,145.695
26124.592,145.787
26134.028,145.866
26142.936,145.979
26150.637,146.071
26157.821,146.164
26166.114,146.245
26174.216,146.354
26183.117,146.453
26191.176,146.536
26200.211,146.653
26208.115,146.752
26216.903,146.865
26225.403,146.958
26232.764,147.028
26239.582,147.105
26246.914,147.174
26252.921,147.228
26259.188,147.270
26266.201,147.316
26272.361,147.379
26278.683,147.411
26283.902,147.381
26288.624,147.381
26292.828,147.382
26298.016,147.415
26300.680,147.345
26302.492,147.358
26305.316,147.294
26308.558,147.289
26311.269,147.296
26315.760,147.310
26319.928,147.310
26325.582,147.319
26330.596,147.341
26334.706,147.350
26340.477,147.348
26345.926,147.356
26351.962,147.377
26358.363,147.381
26363.883,147.411
26370.612,147.404
26377.903,147.425
26384.810,147.473
26392.201,147.478
26399.339,147.533
26406.215,147.553
26413.528,147.553
26420.522,147.579
26427.488,147.627
26435.272,147.636
26443.971,147.685
26452.252,147.746
26458.987,147.781
26465.927,147.834
26473.710,147.907
26480.387,147.964
26487.689,148.021
26495.656,148.096
26503.769,148.175
26510.930,148.249
26517.193,148.312
26524.529,148.387
26532.281,148.472
26539.721,148.550
26546.089,148.622
26553.965,148.709
26561.119,148.805
26568.066,148.885
26575.105,148.965
26581.848,149.043
26588.788,149.125
26596.215,149.239
26604.053,149.333
26610.609,149.418
26618.584,149.487
26626.528,149.622
26633.580,149.689
26640.836,149.825
26646.937,149.896
26653.604,150.007
26660.481,150.129
26667.403,150.286
26674.113,150.419
26680.599,150.554
26686.380,150.684
26692.627,150.803
26699.157,150.972
26705.609,151.123
26711.971,151.277
26718.689,151.419
26724.631,151.590
26729.722,151.708
26734.674,151.831
26739.401,151.980
26744.950,152.131
26751.330,152.289
26757.276,152.436
26762.580,152.588
26768.797,152.764
26774.399,152.922
26780.123,153.080
26785.611,153.232
26791.033,153.364
26796.533,153.507
26801.842,153.645
26807.855,153.809
26814.177,153.950
26820.325,154.120
26826.189,154.261
26832.107,154.403
26838.153,154.540
26843.292,154.636
26848.457,154.748
26853.370,154.849
26858.797,154.938
26864.970,155.049
26869.461,155.091
26874.934,155.179
26879.294,155.262
26883.991,155.328
26889.633,155.408
26896.248,155.500
26902.157,155.576
26907.003,155.638
26913.027,155.708
26918.996,155.774
26924.489,155.834
26929.670,155.892
26935.934,155.955
26941.819,156.030
26947.724,156.090
26953.269,156.147
26958.670,156.205
26964.759,156.275
26969.789,156.332
26976.429,156.399
26982.160,156.445
26987.553,156.526
26993.463,156.601
26999.123,156.674
27005.404,156.737
27011.693,156.831
27017.776,156.953
27023.939,157.055
27031.049,157.165
27037.607,157.300
27043.085,157.414
27048.856,157.511
27053.909,157.643
27060.069,157.780
27065.589,157.888
27071.093,158.063
27075.806,158.192
27081.337,158.339
27086.565,158.485
27091.749,158.637
27096.054,158.725
27101.612,158.892
27106.227,159.045
27111.385,159.215
27116.733,159.394
27121.369,159.568
27125.238,159.715
27129.004,159.909
27133.389,160.036
27137.797,160.216
27142.408,160.405
27147.879,160.608
27151.348,160.783
27154.760,160.919
27158.594,161.053
27162.808,161.234
27166.566,161.371
27170.331,161.509
27174.651,161.681
27179.094,161.835
27183.498,162.026
27187.965,162.169
27192.536,162.336
27197.041,162.495
27201.714,162.652
27206.472,162.807
27211.003,162.965
27215.135,163.106
27219.052,163.199
27222.783,163.324
27227.860,163.422
27233.110,163.574
27237.978,163.678
27243.460,163.698
27248.459,163.831
27253.713,163.908
27259.305,163.970
27264.188,164.067
27269.579,164.008
27275.488,164.097
27281.724,164.078
27287.582,164.034
27293.902,164.130
27299.733,164.038
27305.482,163.994
27311.382,163.931
27317.564,163.860
27323.767,163.769
27330.283,163.664
27337.248,163.547
27343.587,163.419
27350.108,163.351
27356.617,163.207
27363.355,162.968
27370.123,162.816
27377.448,162.600
27385.031,162.421
27392.495,162.251
27400.500,161.965
27407.820,161.774
27414.868,161.608
27422.122,161.375
27430.559,161.051
27438.421,160.789
27447.318,160.477
27457.329,160.138
27467.159,159.825
27477.190,159.468
27486.890,159.084
27495.763,158.800
27505.301,158.472
27515.830,158.097
27524.890,157.764
27535.398,157.396
27545.990,157.042
27555.704,156.810
27566.069,156.509
27576.332,156.274
27585.409,155.969
27593.647,155.904
27602.194,155.679
27610.624,155.639
27619.415,155.448
27627.703,155.451
27634.269,155.399
27641.151,155.380
27647.232,155.348
27654.157,155.273
27660.891,155.315
27668.214,155.257
27675.433,155.248
27684.617,155.299
27693.206,155.302
27701.901,155.313
27710.045,155.297
27717.812,155.327
27726.231,155.373
27734.977,155.429
27743.097,155.478
27751.444,155.511
27759.600,155.562
27767.312,155.616
27775.199,155.662
27783.417,155.719
27791.643,155.759
27800.000,155.821
27808.915,155.860
27816.994,155.903
27826.581,155.984
27836.338,156.013
27845.493,156.085
27854.998,156.100
27863.841,156.157
27872.538,156.188
27880.527,156.175
27888.237,156.181
27897.332,156.206
27905.870,156.182
27914.168,156.173
27921.986,156.175
27929.803,156.156
27937.684,156.133
27945.522,156.108
27953.291,156.083
27961.532,156.052
27968.708,156.031
27976.428,156.011
27983.759,155.989
27991.067,155.976
27998.607,155.951
28007.052,155.949
28014.058,155.925
28021.379,155.915
28028.910,155.929
28036.548,155.901
28044.297,155.918
28051.954,155.889
28059.832,155.917
28067.661,155.893
28075.205,155.902
28082.074,155.916
28089.816,155.928
28096.786,155.959
28103.812,155.962
28110.956,155.985
28117.460,155.998
28124.527,156.013
28131.846,156.038
28139.392,156.057
28146.842,156.074
28153.610,156.060
28161.192,156.095
28168.425,156.068
28174.591,156.064
28181.351,156.094
28188.714,156.091
28196.644,156.051
28203.284,156.070
28210.550,156.053
28217.541,156.009
28223.932,156.008
28230.977,155.960
28238.537,155.939
28245.474,155.899
28252.791,155.848
28259.354,155.809
28265.621,155.766
28272.698,155.725
28279.917,155.683
28286.367,155.631
28293.459,155.593
28299.673,155.566
28306.425,155.542
28312.799,155.569
28319.120,155.565
28326.191,155.514
28333.679,155.558
28340.870,155.526
28348.418,155.586
28355.333,155.571
28362.016,155.637
28368.674,155.666
28375.618,155.676
28382.507,155.746
28388.979,155.775
28395.128,155.816
28401.645,155.855
28407.531,155.895
28413.265,155.925
28418.590,155.963
28423.300,155.971
28429.003,155.995
28434.452,156.036
28440.571,156.060
28445.715,156.075
28451.466,156.072
28457.367,156.111
28463.257,156.101
28469.227,156.137
28474.416,156.133
28480.562,156.135
28486.812,156.125
28493.882,156.115
28501.469,156.143
28508.125,156.095
28514.912,156.111
28522.973,156.078
28530.268,156.032
28539.050,156.014
28547.521,155.961
28553.630,155.905
28560.730,155.866
28569.029,155.796
28577.015,155.741
28585.010,155.671
28592.615,155.615
28599.362,155.552
28606.384,155.494
28613.969,155.433
28621.057,155.374
28627.978,155.318
28635.426,155.258
28641.764,155.188
28648.982,155.130
28655.890,155.104
28663.144,155.041
28669.609,154.984
28675.858,154.955
28682.969,154.945
28690.870,154.896
28698.258,154.892
28705.226,154.873
28712.432,154.857
28718.570,154.846
28725.601,154.838
28732.748,154.827
28740.117,154.800
28748.560,154.816
28756.080,154.820
28763.120,154.804
28770.449,154.846
28776.675,154.844
28783.490,154.876
28790.411,154.904
28798.162,154.944
28806.309,154.995
28813.959,155.052
28821.684,155.141
28829.179,155.217
28836.753,155.275
28843.695,155.356
28850.312,155.437
28857.354,155.536
28864.510,155.610
28871.217,155.695
28878.883,155.796
28885.055,155.873
28891.471,155.949
28898.266,156.027
28904.728,156.102
28911.806,156.182
28917.539,156.251
28923.385,156.328
28930.559,156.402
28937.329,156.484
28943.984,156.555
28948.697,156.607
28954.838,156.672
28959.470,156.726
28964.578,156.753
28969.724,156.819
28973.781,156.872
28978.439,156.892
28983.019,156.920
28989.039,156.955
28994.353,156.984
28999.678,157.002
29005.826,157.042
29012.279,157.067
29018.949,157.076
29024.605,157.063
29029.209,157.062
29033.717,157.080
29038.511,157.049
29043.005,157.012
29047.132,156.976
29053.290,156.923
29056.302,156.963
29059.112,156.951
29062.288,157.077
29065.587,157.138
29069.195,157.225
29070.219,157.224
29079.950,157.425
29086.217,157.651
29091.137,157.724
29096.935,157.840
29100.812,157.934
29103.496,158.007
29108.335,158.170
29111.849,158.287
29116.099,158.443
29119.136,158.549
29122.750,158.701
29124.568,158.763
29127.877,158.874
29131.329,158.955
29136.192,159.117
29140.611,159.280
29144.138,159.432
29149.835,159.719
29153.639,159.924
29157.809,160.115
" /><polyline class="data" points="
" />
<!-- CUT -->
<!-- RANGE 0.0,121.29190056094937 29157.808894407488,209.73387157352715 -->



<animateTransform attributeName="transform" type="scale" fill="freeze" values="0.03429612985054585 -2.512633082211825" />
<animateTransform attributeName="transform" type="translate" fill="freeze" additive="sum" values="-14578.904447203744 -165.51288606723827" />
<line class="grid" x1="2500.000" y1="115.764" x2="2500.000" y2="215.261" />
<line class="grid" x1="5000.000" y1="115.764" x2="5000.000" y2="215.261" />
<line class="grid" x1="7500.000" y1="115.764" x2="7500.000" y2="215.261" />
<line class="grid" x1="10000.000" y1="115.764" x2="10000.000" y2="215.261" />
<line class="grid" x1="12500.000" y1="115.764" x2="12500.000" y2="215.261" />
<line class="grid" x1="15000.000" y1="115.764" x2="15000.000" y2="215.261" />
<line class="grid" x1="17500.000" y1="115.764" x2="17500.000" y2="215.261" />
<line class="grid" x1="20000.000" y1="115.764" x2="20000.000" y2="215.261" />
<line class="grid" x1="22500.000" y1="115.764" x2="22500.000" y2="215.261" />
<line class="grid" x1="25000.000" y1="115.764" x2="25000.000" y2="215.261" />
<line class="grid" x1="27500.000" y1="115.764" x2="27500.000" y2="215.261" />
<line class="grid" x1="0.000" y1="125.000" x2="29157.809" y2="125.000" />
<line class="grid" x1="0.000" y1="150.000" x2="29157.809" y2="150.000" />
<line class="grid" x1="0.000" y1="175.000" x2="29157.809" y2="175.000" />
<line class="grid" x1="0.000" y1="200.000" x2="29157.809" y2="200.000" />
<defs>
<pattern id="smallGrid" patternUnits="userSpaceOnUse" width="500.0" height="5.0">
<polyline class="grid" points="0,0 500.0,0 500.0,5.0" />
</pattern>
</defs>
<rect class="frame" fill="url(#smallGrid)" x="0.0" y="115.76427737266326" width="29157.808894407488" height="99.49721738915001" />
<g xml:space="preserve" transform="translate(14578.904447203744 165.51288606723827) scale(29.157808894407488 -0.39798886955660007)">
<text class="markerArg" font-size="13.0" x="-414.260" y="125.000">2,5</text>
<text class="markerArg" font-size="13.0" x="-328.519" y="125.000">5</text>
<text class="markerArg" font-size="13.0" x="-242.779" y="125.000">7,5</text>
<text class="markerArg" font-size="13.0" x="-157.039" y="125.000">10</text>
<text class="markerArg" font-size="13.0" x="-71.298" y="125.000">12,5</text>
<text class="markerArg" font-size="13.0" x="14.442" y="125.000">15</text>
<text class="markerArg" font-size="13.0" x="100.182" y="125.000">17,5</text>
<text class="markerArg" font-size="13.0" x="185.923" y="125.000">20</text>
<text class="markerArg" font-size="13.0" x="271.663" y="125.000">22,5</text>
<text class="markerArg" font-size="13.0" x="357.403" y="125.000">25</text>
<text class="markerArg" font-size="13.0" x="443.144" y="125.000">27,5</text>
<text class="markerVal" font-size="13.0" x="-500.000" y="101.794">125 </text>
<text class="markerVal" font-size="13.0" x="-500.000" y="38.978">150 </text>
<text class="markerVal" font-size="13.0" x="-500.000" y="-23.838">175 </text>
<text class="markerVal" font-size="13.0" x="-500.000" y="-86.653">200 </text>
<text class="labelArg" font-size="15.0" x="0.000" y="150.000">Расстояние [км]</text>
<text class="labelVal" font-size="15.0" x="-500.000" y="-150.000">Высота [м.]</text>
<text class="title" font-size="20.0" x="0.000" y="-235.000">Urban Biker – Road – 5 Ноя 2015 г. 20:25</text>
<a target="_blank" xlink:href="https://play.google.com/store/apps/details?id=com.sublimis.urbanbiker">
<text class="about" font-size="11.0" x="0.000" y="235.000">Created with Urban Biker — 5 Ноя 2015 г. 21:44</text>
</a>
</g>

</g>
</svg>
